<svg width="554" height="80" viewBox="0 0 554 80" fill="none" xmlns="http://www.w3.org/2000/svg">
<mask id="path-1-inside-1_413_313" fill="white">
<path d="M0 12C0 5.37258 5.37258 0 12 0H114.375C121.002 0 126.375 5.37258 126.375 12V68C126.375 74.6274 121.002 80 114.375 80H12C5.37258 80 0 74.6274 0 68V12Z"/>
</mask>
<path d="M0 12C0 5.37258 5.37258 0 12 0H114.375C121.002 0 126.375 5.37258 126.375 12V68C126.375 74.6274 121.002 80 114.375 80H12C5.37258 80 0 74.6274 0 68V12Z" fill="url(#paint0_linear_413_313)" fill-opacity="0.15"/>
<path d="M12 0V1H114.375V0V-1H12V0ZM126.375 12H125.375V68H126.375H127.375V12H126.375ZM114.375 80V79H12V80V81H114.375V80ZM0 68H1V12H0H-1V68H0ZM12 80V79C5.92487 79 1 74.0751 1 68H0H-1C-1 75.1797 4.8203 81 12 81V80ZM126.375 68H125.375C125.375 74.0751 120.45 79 114.375 79V80V81C121.555 81 127.375 75.1797 127.375 68H126.375ZM114.375 0V1C120.45 1 125.375 5.92487 125.375 12H126.375H127.375C127.375 4.8203 121.555 -1 114.375 -1V0ZM12 0V-1C4.8203 -1 -1 4.8203 -1 12H0H1C1 5.92487 5.92487 1 12 1V0Z" fill="url(#paint1_linear_413_313)" mask="url(#path-1-inside-1_413_313)"/>
<path d="M57.1875 25C57.1875 25.5523 57.6352 26 58.1875 26H64.1875C64.7398 26 65.1875 25.5523 65.1875 25C65.1875 24.4477 64.7398 24 64.1875 24H58.1875C57.6352 24 57.1875 24.4477 57.1875 25ZM57.1875 22C57.1875 22.5523 57.6352 23 58.1875 23H68.1875C68.7398 23 69.1875 22.5523 69.1875 22C69.1875 21.4477 68.7398 21 68.1875 21H58.1875C57.6352 21 57.1875 21.4477 57.1875 22ZM57.1875 19C57.1875 19.5523 57.6352 20 58.1875 20H68.1875C68.7398 20 69.1875 19.5523 69.1875 19C69.1875 18.4477 68.7398 18 68.1875 18H58.1875C57.6352 18 57.1875 18.4477 57.1875 19ZM53.1875 34V16C53.1875 15.45 53.3833 14.9792 53.775 14.5875C54.1667 14.1958 54.6375 14 55.1875 14H71.1875C71.7375 14 72.2083 14.1958 72.6 14.5875C72.9917 14.9792 73.1875 15.45 73.1875 16V28C73.1875 28.55 72.9917 29.0208 72.6 29.4125C72.2083 29.8042 71.7375 30 71.1875 30H57.1875L53.1875 34ZM56.3375 28H71.1875V16H55.1875V29.125L56.3375 28Z" fill="#363E4A"/>
<path d="M31.2251 53.6172C31.1787 53.183 30.9832 52.8449 30.6385 52.603C30.2971 52.361 29.853 52.2401 29.3061 52.2401C28.9216 52.2401 28.5919 52.2981 28.3168 52.4141C28.0417 52.5301 27.8312 52.6875 27.6854 52.8864C27.5395 53.0852 27.465 53.3123 27.4616 53.5675C27.4616 53.7796 27.5097 53.9635 27.6058 54.1193C27.7053 54.2751 27.8395 54.4077 28.0085 54.517C28.1776 54.6231 28.3648 54.7126 28.5703 54.7855C28.7758 54.8584 28.983 54.9197 29.1918 54.9695L30.1463 55.2081C30.5308 55.2976 30.9003 55.4186 31.255 55.571C31.6129 55.7235 31.9328 55.9157 32.2145 56.1477C32.4995 56.3797 32.7249 56.6598 32.8906 56.9879C33.0563 57.3161 33.1392 57.7005 33.1392 58.1413C33.1392 58.7379 32.9867 59.2633 32.6818 59.7173C32.3769 60.1681 31.9361 60.5211 31.3594 60.7763C30.786 61.0282 30.0916 61.1541 29.2763 61.1541C28.4841 61.1541 27.7964 61.0315 27.2131 60.7862C26.633 60.541 26.179 60.183 25.8509 59.7124C25.526 59.2417 25.3504 58.6683 25.3239 57.9922H27.1385C27.165 58.3468 27.2744 58.6418 27.4666 58.8771C27.6589 59.1125 27.9091 59.2881 28.2173 59.4041C28.5289 59.5201 28.8769 59.5781 29.2614 59.5781C29.6624 59.5781 30.0137 59.5185 30.3153 59.3991C30.6203 59.2765 30.8589 59.1075 31.0312 58.892C31.2036 58.6733 31.2914 58.4181 31.2947 58.1264C31.2914 57.8613 31.2135 57.6425 31.0611 57.4702C30.9086 57.2945 30.6948 57.1487 30.4197 57.0327C30.148 56.9134 29.8298 56.8073 29.4652 56.7145L28.3068 56.4162C27.4683 56.2008 26.8054 55.8743 26.3182 55.4368C25.8343 54.996 25.5923 54.411 25.5923 53.6818C25.5923 53.0819 25.7547 52.5566 26.0795 52.1058C26.4077 51.6551 26.8535 51.3054 27.4169 51.0568C27.9804 50.8049 28.6184 50.679 29.331 50.679C30.0535 50.679 30.6866 50.8049 31.2301 51.0568C31.777 51.3054 32.2062 51.6518 32.5178 52.0959C32.8293 52.5367 32.9901 53.0438 33 53.6172H31.2251ZM39.5712 57.7884V53.3636H41.3709V61H39.6259V59.6428H39.5463C39.374 60.0703 39.0906 60.42 38.6962 60.6918C38.3051 60.9635 37.8229 61.0994 37.2495 61.0994C36.749 61.0994 36.3065 60.9884 35.9221 60.7663C35.5409 60.541 35.2426 60.2145 35.0272 59.7869C34.8117 59.3561 34.704 58.8357 34.704 58.2259V53.3636H36.5037V57.9474C36.5037 58.4313 36.6363 58.8158 36.9015 59.1009C37.1666 59.3859 37.5146 59.5284 37.9455 59.5284C38.2106 59.5284 38.4675 59.4638 38.7161 59.3345C38.9647 59.2053 39.1685 59.013 39.3276 58.7578C39.49 58.4993 39.5712 58.1761 39.5712 57.7884ZM43.2216 61V53.3636H44.9418V54.6612H45.0312C45.1903 54.2237 45.4538 53.8823 45.8217 53.6371C46.1896 53.3885 46.6288 53.2642 47.1392 53.2642C47.6562 53.2642 48.0921 53.3902 48.4467 53.642C48.8047 53.8906 49.0566 54.2304 49.2024 54.6612H49.282C49.451 54.237 49.736 53.8989 50.1371 53.647C50.5414 53.3918 51.0204 53.2642 51.5739 53.2642C52.2765 53.2642 52.8499 53.4863 53.294 53.9304C53.7382 54.3745 53.9602 55.0225 53.9602 55.8743V61H52.1555V56.1527C52.1555 55.6787 52.0296 55.3324 51.7777 55.1136C51.5258 54.8916 51.2176 54.7805 50.853 54.7805C50.4188 54.7805 50.0791 54.9164 49.8338 55.1882C49.5919 55.4567 49.4709 55.8063 49.4709 56.2372V61H47.706V56.0781C47.706 55.6837 47.5866 55.3688 47.348 55.1335C47.1127 54.8982 46.8045 54.7805 46.4233 54.7805C46.1648 54.7805 45.9295 54.8468 45.7173 54.9794C45.5052 55.1087 45.3362 55.2926 45.2102 55.5312C45.0843 55.7666 45.0213 56.0417 45.0213 56.3565V61H43.2216ZM57.9835 61.1541C57.4996 61.1541 57.0637 61.0679 56.676 60.8956C56.2915 60.7199 55.9866 60.4614 55.7612 60.12C55.5391 59.7786 55.4281 59.3577 55.4281 58.8572C55.4281 58.4264 55.5076 58.0701 55.6667 57.7884C55.8258 57.5066 56.0429 57.2812 56.318 57.1122C56.5931 56.9432 56.903 56.8156 57.2477 56.7294C57.5957 56.6399 57.9553 56.5753 58.3265 56.5355C58.774 56.4891 59.1369 56.4477 59.4153 56.4112C59.6937 56.3714 59.8959 56.3118 60.0218 56.2322C60.1511 56.1494 60.2157 56.0218 60.2157 55.8494V55.8196C60.2157 55.4451 60.1047 55.1551 59.8826 54.9496C59.6606 54.7441 59.3407 54.6413 58.9231 54.6413C58.4823 54.6413 58.1326 54.7375 57.8741 54.9297C57.6189 55.1219 57.4466 55.349 57.3571 55.6108L55.6767 55.3722C55.8092 54.9081 56.028 54.5204 56.3329 54.2088C56.6378 53.8939 57.0107 53.6586 57.4515 53.5028C57.8923 53.3438 58.3796 53.2642 58.9132 53.2642C59.2811 53.2642 59.6473 53.3073 60.0119 53.3935C60.3765 53.4796 60.7096 53.6222 61.0112 53.821C61.3128 54.0166 61.5547 54.2834 61.737 54.6214C61.9226 54.9595 62.0154 55.3821 62.0154 55.8892V61H60.2853V59.951H60.2257C60.1163 60.1631 59.9622 60.362 59.7633 60.5476C59.5678 60.7299 59.3208 60.8774 59.0225 60.9901C58.7276 61.0994 58.3812 61.1541 57.9835 61.1541ZM58.4508 59.8317C58.8121 59.8317 59.1253 59.7604 59.3904 59.6179C59.6556 59.4721 59.8594 59.2798 60.002 59.0412C60.1478 58.8026 60.2207 58.5424 60.2207 58.2607V57.3608C60.1644 57.4072 60.0682 57.4503 59.9324 57.4901C59.7998 57.5298 59.6506 57.5646 59.4849 57.5945C59.3192 57.6243 59.1551 57.6508 58.9927 57.674C58.8303 57.6972 58.6895 57.7171 58.5701 57.7337C58.3017 57.7701 58.0614 57.8298 57.8493 57.9126C57.6371 57.9955 57.4698 58.1115 57.3471 58.2607C57.2245 58.4065 57.1632 58.5954 57.1632 58.8274C57.1632 59.1589 57.2842 59.4091 57.5261 59.5781C57.7681 59.7472 58.0763 59.8317 58.4508 59.8317ZM63.8251 61V53.3636H65.5701V54.6364H65.6497C65.7889 54.1955 66.0275 53.8558 66.3656 53.6172C66.707 53.3752 67.0964 53.2543 67.5339 53.2543C67.6333 53.2543 67.7444 53.2592 67.867 53.2692C67.993 53.2758 68.0974 53.2874 68.1802 53.304V54.9595C68.104 54.933 67.983 54.9098 67.8173 54.8899C67.6549 54.8667 67.4975 54.8551 67.345 54.8551C67.0169 54.8551 66.7219 54.9264 66.46 55.0689C66.2015 55.2081 65.9977 55.402 65.8485 55.6506C65.6994 55.8991 65.6248 56.1858 65.6248 56.5107V61H63.8251ZM69.3759 61V53.3636H71.1756V61H69.3759ZM70.2807 52.2798C69.9957 52.2798 69.7504 52.1854 69.5449 51.9964C69.3394 51.8042 69.2367 51.5739 69.2367 51.3054C69.2367 51.0336 69.3394 50.8033 69.5449 50.6143C69.7504 50.4221 69.9957 50.326 70.2807 50.326C70.5691 50.326 70.8143 50.4221 71.0165 50.6143C71.222 50.8033 71.3248 51.0336 71.3248 51.3054C71.3248 51.5739 71.222 51.8042 71.0165 51.9964C70.8143 52.1854 70.5691 52.2798 70.2807 52.2798ZM72.9268 61V59.8565L76.8643 54.9197V54.8551H73.0561V53.3636H79.0668V54.5916L75.3182 59.4439V59.5085H79.196V61H72.9268ZM80.8876 61V53.3636H82.6873V61H80.8876ZM81.7924 52.2798C81.5074 52.2798 81.2621 52.1854 81.0566 51.9964C80.8511 51.8042 80.7484 51.5739 80.7484 51.3054C80.7484 51.0336 80.8511 50.8033 81.0566 50.6143C81.2621 50.4221 81.5074 50.326 81.7924 50.326C82.0808 50.326 82.3261 50.4221 82.5282 50.6143C82.7337 50.8033 82.8365 51.0336 82.8365 51.3054C82.8365 51.5739 82.7337 51.8042 82.5282 51.9964C82.3261 52.1854 82.0808 52.2798 81.7924 52.2798ZM86.3377 56.5256V61H84.538V53.3636H86.2582V54.6612H86.3477C86.5233 54.2337 86.8034 53.8939 87.1879 53.642C87.5756 53.3902 88.0546 53.2642 88.6246 53.2642C89.1516 53.2642 89.6107 53.3769 90.0018 53.6023C90.3962 53.8277 90.7011 54.1541 90.9165 54.5817C91.1353 55.0092 91.243 55.5279 91.2397 56.1378V61H89.44V56.4162C89.44 55.9058 89.3074 55.5064 89.0423 55.218C88.7804 54.9297 88.4175 54.7855 87.9535 54.7855C87.6386 54.7855 87.3585 54.8551 87.1133 54.9943C86.8713 55.1302 86.6808 55.3274 86.5415 55.5859C86.4057 55.8445 86.3377 56.1577 86.3377 56.5256ZM96.3903 64.0227C95.744 64.0227 95.1888 63.9349 94.7248 63.7592C94.2608 63.5869 93.8879 63.3549 93.6062 63.0632C93.3245 62.7715 93.1289 62.4484 93.0195 62.0938L94.6403 61.701C94.7132 61.8501 94.8192 61.9976 94.9585 62.1435C95.0977 62.2926 95.2849 62.4152 95.5202 62.5114C95.7589 62.6108 96.0588 62.6605 96.4201 62.6605C96.9305 62.6605 97.3531 62.5362 97.6879 62.2876C98.0226 62.0424 98.19 61.638 98.19 61.0746V59.6278H98.1005C98.0077 59.8134 97.8718 60.004 97.6928 60.1996C97.5172 60.3951 97.2835 60.5592 96.9918 60.6918C96.7035 60.8243 96.3406 60.8906 95.9031 60.8906C95.3164 60.8906 94.7844 60.7531 94.3072 60.478C93.8332 60.1996 93.4554 59.7853 93.1737 59.2351C92.8952 58.6816 92.756 57.9889 92.756 57.157C92.756 56.3184 92.8952 55.6108 93.1737 55.0341C93.4554 54.4541 93.8349 54.0149 94.3121 53.7166C94.7894 53.415 95.3214 53.2642 95.908 53.2642C96.3555 53.2642 96.7234 53.3404 97.0117 53.4929C97.3034 53.642 97.5354 53.8227 97.7077 54.0348C97.8801 54.2436 98.011 54.4408 98.1005 54.6264H98.1999V53.3636H99.9748V61.1243C99.9748 61.7772 99.819 62.3175 99.5075 62.745C99.1959 63.1726 98.77 63.4924 98.2298 63.7045C97.6895 63.9167 97.0763 64.0227 96.3903 64.0227ZM96.4052 59.4787C96.7863 59.4787 97.1112 59.3859 97.3796 59.2003C97.6481 59.0147 97.8519 58.7479 97.9911 58.3999C98.1303 58.0518 98.1999 57.6342 98.1999 57.147C98.1999 56.6664 98.1303 56.2455 97.9911 55.8842C97.8552 55.523 97.6531 55.2429 97.3846 55.044C97.1194 54.8419 96.793 54.7408 96.4052 54.7408C96.0041 54.7408 95.6694 54.8452 95.4009 55.054C95.1325 55.2628 94.9303 55.5495 94.7944 55.9141C94.6585 56.2753 94.5906 56.6863 94.5906 57.147C94.5906 57.6143 94.6585 58.0237 94.7944 58.375C94.9336 58.723 95.1374 58.9948 95.4059 59.1903C95.6777 59.3826 96.0108 59.4787 96.4052 59.4787Z" fill="#59616B"/>
<mask id="path-5-inside-2_413_313" fill="white">
<path d="M142.375 12C142.375 5.37258 147.748 0 154.375 0H256.75C263.377 0 268.75 5.37258 268.75 12V68C268.75 74.6274 263.377 80 256.75 80H154.375C147.748 80 142.375 74.6274 142.375 68V12Z"/>
</mask>
<path d="M142.375 12C142.375 5.37258 147.748 0 154.375 0H256.75C263.377 0 268.75 5.37258 268.75 12V68C268.75 74.6274 263.377 80 256.75 80H154.375C147.748 80 142.375 74.6274 142.375 68V12Z" fill="url(#paint2_linear_413_313)" fill-opacity="0.15"/>
<path d="M154.375 0V1H256.75V0V-1H154.375V0ZM268.75 12H267.75V68H268.75H269.75V12H268.75ZM256.75 80V79H154.375V80V81H256.75V80ZM142.375 68H143.375V12H142.375H141.375V68H142.375ZM154.375 80V79C148.3 79 143.375 74.0751 143.375 68H142.375H141.375C141.375 75.1797 147.195 81 154.375 81V80ZM268.75 68H267.75C267.75 74.0751 262.825 79 256.75 79V80V81C263.93 81 269.75 75.1797 269.75 68H268.75ZM256.75 0V1C262.825 1 267.75 5.92487 267.75 12H268.75H269.75C269.75 4.8203 263.93 -1 256.75 -1V0ZM154.375 0V-1C147.195 -1 141.375 4.8203 141.375 12H142.375H143.375C143.375 5.92487 148.3 1 154.375 1V0Z" fill="url(#paint3_linear_413_313)" mask="url(#path-5-inside-2_413_313)"/>
<path d="M205.562 33C203.046 33 200.917 32.6125 199.175 31.8375C197.433 31.0625 196.562 30.1167 196.562 29V19C196.562 17.9 197.442 16.9583 199.2 16.175C200.958 15.3917 203.079 15 205.562 15C208.046 15 210.167 15.3917 211.925 16.175C213.683 16.9583 214.562 17.9 214.562 19V29C214.562 30.1167 213.692 31.0625 211.95 31.8375C210.208 32.6125 208.079 33 205.562 33ZM205.562 21.025C207.046 21.025 208.538 20.8125 210.038 20.3875C211.538 19.9625 212.379 19.5083 212.562 19.025C212.379 18.5417 211.542 18.0833 210.05 17.65C208.558 17.2167 207.062 17 205.562 17C204.046 17 202.558 17.2125 201.1 17.6375C199.642 18.0625 198.796 18.525 198.562 19.025C198.796 19.525 199.642 19.9833 201.1 20.4C202.558 20.8167 204.046 21.025 205.562 21.025ZM205.562 26C206.262 26 206.938 25.9667 207.588 25.9C208.238 25.8333 208.858 25.7375 209.45 25.6125C210.042 25.4875 210.6 25.3333 211.125 25.15C211.65 24.9667 212.129 24.7583 212.562 24.525V21.525C212.129 21.7583 211.65 21.9667 211.125 22.15C210.6 22.3333 210.042 22.4875 209.45 22.6125C208.858 22.7375 208.238 22.8333 207.588 22.9C206.938 22.9667 206.262 23 205.562 23C204.863 23 204.179 22.9667 203.513 22.9C202.846 22.8333 202.217 22.7375 201.625 22.6125C201.033 22.4875 200.479 22.3333 199.963 22.15C199.446 21.9667 198.979 21.7583 198.562 21.525V24.525C198.979 24.7583 199.446 24.9667 199.963 25.15C200.479 25.3333 201.033 25.4875 201.625 25.6125C202.217 25.7375 202.846 25.8333 203.513 25.9C204.179 25.9667 204.863 26 205.562 26ZM205.562 31C206.329 31 207.108 30.9417 207.9 30.825C208.692 30.7083 209.421 30.5542 210.088 30.3625C210.754 30.1708 211.312 29.9542 211.762 29.7125C212.213 29.4708 212.479 29.225 212.562 28.975V26.525C212.129 26.7583 211.65 26.9667 211.125 27.15C210.6 27.3333 210.042 27.4875 209.45 27.6125C208.858 27.7375 208.238 27.8333 207.588 27.9C206.938 27.9667 206.262 28 205.562 28C204.863 28 204.179 27.9667 203.513 27.9C202.846 27.8333 202.217 27.7375 201.625 27.6125C201.033 27.4875 200.479 27.3333 199.963 27.15C199.446 26.9667 198.979 26.7583 198.562 26.525V29C198.646 29.25 198.908 29.4917 199.35 29.725C199.792 29.9583 200.346 30.1708 201.013 30.3625C201.679 30.5542 202.412 30.7083 203.213 30.825C204.013 30.9417 204.796 31 205.562 31Z" fill="#363E4A"/>
<path d="M159.067 61V50.8182H162.885C163.667 50.8182 164.323 50.9541 164.854 51.2259C165.387 51.4976 165.79 51.8788 166.062 52.3693C166.337 52.8565 166.474 53.425 166.474 54.0746C166.474 54.7275 166.335 55.2943 166.057 55.7749C165.782 56.2521 165.376 56.6217 164.839 56.8835C164.302 57.142 163.642 57.2713 162.86 57.2713H160.141V55.7401H162.612C163.069 55.7401 163.443 55.6771 163.735 55.5511C164.027 55.4219 164.242 55.2346 164.381 54.9893C164.524 54.7408 164.595 54.4358 164.595 54.0746C164.595 53.7133 164.524 53.4051 164.381 53.1499C164.239 52.8913 164.022 52.6958 163.73 52.5632C163.438 52.4273 163.062 52.3594 162.602 52.3594H160.911V61H159.067ZM164.327 56.3864L166.847 61H164.789L162.313 56.3864H164.327ZM171.364 61.1491C170.598 61.1491 169.937 60.9901 169.38 60.6719C168.827 60.3504 168.401 59.8963 168.103 59.3097C167.804 58.7197 167.655 58.0253 167.655 57.2266C167.655 56.4411 167.804 55.7517 168.103 55.1584C168.404 54.5618 168.825 54.0978 169.365 53.7663C169.906 53.4316 170.54 53.2642 171.27 53.2642C171.74 53.2642 172.184 53.3404 172.602 53.4929C173.023 53.642 173.394 53.8741 173.716 54.1889C174.04 54.5038 174.296 54.9048 174.481 55.392C174.667 55.8759 174.76 56.4527 174.76 57.1222V57.674H168.5V56.4609H173.034C173.031 56.1162 172.957 55.8097 172.811 55.5412C172.665 55.2694 172.461 55.0556 172.199 54.8999C171.941 54.7441 171.639 54.6662 171.294 54.6662C170.926 54.6662 170.603 54.7557 170.325 54.9347C170.047 55.1103 169.829 55.3423 169.674 55.6307C169.521 55.9157 169.443 56.2289 169.44 56.5703V57.6293C169.44 58.0734 169.521 58.4545 169.684 58.7727C169.846 59.0876 170.073 59.3295 170.365 59.4986C170.656 59.6643 170.998 59.7472 171.389 59.7472C171.651 59.7472 171.888 59.7107 172.1 59.6378C172.312 59.5616 172.496 59.4505 172.652 59.3047C172.807 59.1589 172.925 58.9782 173.005 58.7628L174.685 58.9517C174.579 59.3958 174.377 59.7836 174.078 60.1151C173.783 60.4432 173.406 60.6984 172.945 60.8807C172.484 61.0597 171.957 61.1491 171.364 61.1491ZM176.282 61V53.3636H178.002V54.6612H178.092C178.251 54.2237 178.514 53.8823 178.882 53.6371C179.25 53.3885 179.689 53.2642 180.2 53.2642C180.717 53.2642 181.153 53.3902 181.507 53.642C181.865 53.8906 182.117 54.2304 182.263 54.6612H182.343C182.512 54.237 182.797 53.8989 183.198 53.647C183.602 53.3918 184.081 53.2642 184.634 53.2642C185.337 53.2642 185.91 53.4863 186.355 53.9304C186.799 54.3745 187.021 55.0225 187.021 55.8743V61H185.216V56.1527C185.216 55.6787 185.09 55.3324 184.838 55.1136C184.586 54.8916 184.278 54.7805 183.914 54.7805C183.479 54.7805 183.14 54.9164 182.894 55.1882C182.652 55.4567 182.531 55.8063 182.531 56.2372V61H180.767V56.0781C180.767 55.6837 180.647 55.3688 180.409 55.1335C180.173 54.8982 179.865 54.7805 179.484 54.7805C179.225 54.7805 178.99 54.8468 178.778 54.9794C178.566 55.1087 178.397 55.2926 178.271 55.5312C178.145 55.7666 178.082 56.0417 178.082 56.3565V61H176.282ZM192.227 61.1491C191.462 61.1491 190.8 60.9901 190.244 60.6719C189.69 60.3504 189.264 59.8963 188.966 59.3097C188.668 58.7197 188.518 58.0253 188.518 57.2266C188.518 56.4411 188.668 55.7517 188.966 55.1584C189.268 54.5618 189.688 54.0978 190.229 53.7663C190.769 53.4316 191.404 53.2642 192.133 53.2642C192.603 53.2642 193.048 53.3404 193.465 53.4929C193.886 53.642 194.257 53.8741 194.579 54.1889C194.904 54.5038 195.159 54.9048 195.344 55.392C195.53 55.8759 195.623 56.4527 195.623 57.1222V57.674H189.364V56.4609H193.898C193.894 56.1162 193.82 55.8097 193.674 55.5412C193.528 55.2694 193.324 55.0556 193.062 54.8999C192.804 54.7441 192.502 54.6662 192.158 54.6662C191.79 54.6662 191.467 54.7557 191.188 54.9347C190.91 55.1103 190.693 55.3423 190.537 55.6307C190.384 55.9157 190.307 56.2289 190.303 56.5703V57.6293C190.303 58.0734 190.384 58.4545 190.547 58.7727C190.709 59.0876 190.936 59.3295 191.228 59.4986C191.52 59.6643 191.861 59.7472 192.252 59.7472C192.514 59.7472 192.751 59.7107 192.963 59.6378C193.175 59.5616 193.359 59.4505 193.515 59.3047C193.671 59.1589 193.788 58.9782 193.868 58.7628L195.548 58.9517C195.442 59.3958 195.24 59.7836 194.942 60.1151C194.647 60.4432 194.269 60.6984 193.808 60.8807C193.348 61.0597 192.821 61.1491 192.227 61.1491ZM197.145 61V53.3636H198.866V54.6612H198.955C199.114 54.2237 199.378 53.8823 199.746 53.6371C200.113 53.3885 200.553 53.2642 201.063 53.2642C201.58 53.2642 202.016 53.3902 202.371 53.642C202.729 53.8906 202.98 54.2304 203.126 54.6612H203.206C203.375 54.237 203.66 53.8989 204.061 53.647C204.465 53.3918 204.944 53.2642 205.498 53.2642C206.2 53.2642 206.774 53.4863 207.218 53.9304C207.662 54.3745 207.884 55.0225 207.884 55.8743V61H206.079V56.1527C206.079 55.6787 205.953 55.3324 205.702 55.1136C205.45 54.8916 205.141 54.7805 204.777 54.7805C204.343 54.7805 204.003 54.9164 203.758 55.1882C203.516 55.4567 203.395 55.8063 203.395 56.2372V61H201.63V56.0781C201.63 55.6837 201.51 55.3688 201.272 55.1335C201.037 54.8982 200.728 54.7805 200.347 54.7805C200.089 54.7805 199.853 54.8468 199.641 54.9794C199.429 55.1087 199.26 55.2926 199.134 55.5312C199.008 55.7666 198.945 56.0417 198.945 56.3565V61H197.145ZM209.789 61V50.8182H211.589V54.6264H211.664C211.757 54.4408 211.887 54.2436 212.056 54.0348C212.225 53.8227 212.454 53.642 212.743 53.4929C213.031 53.3404 213.399 53.2642 213.846 53.2642C214.436 53.2642 214.968 53.415 215.442 53.7166C215.919 54.0149 216.297 54.4574 216.576 55.044C216.857 55.6274 216.998 56.3433 216.998 57.1918C216.998 58.0303 216.861 58.7429 216.586 59.3295C216.31 59.9162 215.936 60.3636 215.462 60.6719C214.988 60.9801 214.451 61.1342 213.851 61.1342C213.414 61.1342 213.051 61.0613 212.762 60.9155C212.474 60.7696 212.242 60.594 212.066 60.3885C211.894 60.1797 211.76 59.9825 211.664 59.7969H211.559V61H209.789ZM211.554 57.1818C211.554 57.6757 211.624 58.1082 211.763 58.4794C211.906 58.8506 212.109 59.1406 212.375 59.3494C212.643 59.5549 212.968 59.6577 213.349 59.6577C213.747 59.6577 214.08 59.5516 214.348 59.3395C214.617 59.1241 214.819 58.8307 214.955 58.4595C215.094 58.085 215.164 57.6591 215.164 57.1818C215.164 56.7079 215.096 56.2869 214.96 55.919C214.824 55.5511 214.622 55.2628 214.353 55.054C214.085 54.8452 213.75 54.7408 213.349 54.7408C212.965 54.7408 212.638 54.8419 212.37 55.044C212.101 55.2462 211.897 55.5296 211.758 55.8942C211.622 56.2588 211.554 56.688 211.554 57.1818ZM221.909 61.1491C221.143 61.1491 220.482 60.9901 219.925 60.6719C219.372 60.3504 218.946 59.8963 218.648 59.3097C218.349 58.7197 218.2 58.0253 218.2 57.2266C218.2 56.4411 218.349 55.7517 218.648 55.1584C218.949 54.5618 219.37 54.0978 219.91 53.7663C220.451 53.4316 221.085 53.2642 221.814 53.2642C222.285 53.2642 222.729 53.3404 223.147 53.4929C223.568 53.642 223.939 53.8741 224.26 54.1889C224.585 54.5038 224.84 54.9048 225.026 55.392C225.212 55.8759 225.305 56.4527 225.305 57.1222V57.674H219.045V56.4609H223.579C223.576 56.1162 223.501 55.8097 223.356 55.5412C223.21 55.2694 223.006 55.0556 222.744 54.8999C222.486 54.7441 222.184 54.6662 221.839 54.6662C221.471 54.6662 221.148 54.7557 220.87 54.9347C220.591 55.1103 220.374 55.3423 220.219 55.6307C220.066 55.9157 219.988 56.2289 219.985 56.5703V57.6293C219.985 58.0734 220.066 58.4545 220.229 58.7727C220.391 59.0876 220.618 59.3295 220.91 59.4986C221.201 59.6643 221.543 59.7472 221.934 59.7472C222.196 59.7472 222.433 59.7107 222.645 59.6378C222.857 59.5616 223.041 59.4505 223.197 59.3047C223.352 59.1589 223.47 58.9782 223.55 58.7628L225.23 58.9517C225.124 59.3958 224.922 59.7836 224.623 60.1151C224.328 60.4432 223.951 60.6984 223.49 60.8807C223.029 61.0597 222.502 61.1491 221.909 61.1491ZM226.827 61V53.3636H228.572V54.6364H228.652C228.791 54.1955 229.029 53.8558 229.368 53.6172C229.709 53.3752 230.098 53.2543 230.536 53.2543C230.635 53.2543 230.746 53.2592 230.869 53.2692C230.995 53.2758 231.099 53.2874 231.182 53.304V54.9595C231.106 54.933 230.985 54.9098 230.819 54.8899C230.657 54.8667 230.499 54.8551 230.347 54.8551C230.019 54.8551 229.724 54.9264 229.462 55.0689C229.203 55.2081 229 55.402 228.85 55.6506C228.701 55.8991 228.627 56.1858 228.627 56.5107V61H226.827ZM232.378 61V53.3636H234.178V61H232.378ZM233.283 52.2798C232.998 52.2798 232.752 52.1854 232.547 51.9964C232.341 51.8042 232.239 51.5739 232.239 51.3054C232.239 51.0336 232.341 50.8033 232.547 50.6143C232.752 50.4221 232.998 50.326 233.283 50.326C233.571 50.326 233.816 50.4221 234.018 50.6143C234.224 50.8033 234.327 51.0336 234.327 51.3054C234.327 51.5739 234.224 51.8042 234.018 51.9964C233.816 52.1854 233.571 52.2798 233.283 52.2798ZM237.828 56.5256V61H236.028V53.3636H237.748V54.6612H237.838C238.014 54.2337 238.294 53.8939 238.678 53.642C239.066 53.3902 239.545 53.2642 240.115 53.2642C240.642 53.2642 241.101 53.3769 241.492 53.6023C241.886 53.8277 242.191 54.1541 242.407 54.5817C242.626 55.0092 242.733 55.5279 242.73 56.1378V61H240.93V56.4162C240.93 55.9058 240.798 55.5064 240.532 55.218C240.271 54.9297 239.908 54.7855 239.444 54.7855C239.129 54.7855 238.849 54.8551 238.604 54.9943C238.362 55.1302 238.171 55.3274 238.032 55.5859C237.896 55.8445 237.828 56.1577 237.828 56.5256ZM247.881 64.0227C247.234 64.0227 246.679 63.9349 246.215 63.7592C245.751 63.5869 245.378 63.3549 245.096 63.0632C244.815 62.7715 244.619 62.4484 244.51 62.0938L246.131 61.701C246.203 61.8501 246.309 61.9976 246.449 62.1435C246.588 62.2926 246.775 62.4152 247.01 62.5114C247.249 62.6108 247.549 62.6605 247.91 62.6605C248.421 62.6605 248.843 62.5362 249.178 62.2876C249.513 62.0424 249.68 61.638 249.68 61.0746V59.6278H249.591C249.498 59.8134 249.362 60.004 249.183 60.1996C249.007 60.3951 248.774 60.5592 248.482 60.6918C248.194 60.8243 247.831 60.8906 247.393 60.8906C246.807 60.8906 246.275 60.7531 245.797 60.478C245.323 60.1996 244.946 59.7853 244.664 59.2351C244.385 58.6816 244.246 57.9889 244.246 57.157C244.246 56.3184 244.385 55.6108 244.664 55.0341C244.946 54.4541 245.325 54.0149 245.802 53.7166C246.28 53.415 246.812 53.2642 247.398 53.2642C247.846 53.2642 248.214 53.3404 248.502 53.4929C248.794 53.642 249.026 53.8227 249.198 54.0348C249.37 54.2436 249.501 54.4408 249.591 54.6264H249.69V53.3636H251.465V61.1243C251.465 61.7772 251.309 62.3175 250.998 62.745C250.686 63.1726 250.26 63.4924 249.72 63.7045C249.18 63.9167 248.567 64.0227 247.881 64.0227ZM247.895 59.4787C248.277 59.4787 248.601 59.3859 248.87 59.2003C249.138 59.0147 249.342 58.7479 249.481 58.3999C249.621 58.0518 249.69 57.6342 249.69 57.147C249.69 56.6664 249.621 56.2455 249.481 55.8842C249.345 55.523 249.143 55.2429 248.875 55.044C248.61 54.8419 248.283 54.7408 247.895 54.7408C247.494 54.7408 247.16 54.8452 246.891 55.054C246.623 55.2628 246.421 55.5495 246.285 55.9141C246.149 56.2753 246.081 56.6863 246.081 57.147C246.081 57.6143 246.149 58.0237 246.285 58.375C246.424 58.723 246.628 58.9948 246.896 59.1903C247.168 59.3826 247.501 59.4787 247.895 59.4787Z" fill="#59616B"/>
<mask id="path-9-inside-3_413_313" fill="white">
<path d="M284.75 12C284.75 5.37258 290.123 0 296.75 0H399.125C405.752 0 411.125 5.37258 411.125 12V68C411.125 74.6274 405.752 80 399.125 80H296.75C290.123 80 284.75 74.6274 284.75 68V12Z"/>
</mask>
<path d="M284.75 12C284.75 5.37258 290.123 0 296.75 0H399.125C405.752 0 411.125 5.37258 411.125 12V68C411.125 74.6274 405.752 80 399.125 80H296.75C290.123 80 284.75 74.6274 284.75 68V12Z" fill="url(#paint4_linear_413_313)" fill-opacity="0.15"/>
<path d="M296.75 0V1H399.125V0V-1H296.75V0ZM411.125 12H410.125V68H411.125H412.125V12H411.125ZM399.125 80V79H296.75V80V81H399.125V80ZM284.75 68H285.75V12H284.75H283.75V68H284.75ZM296.75 80V79C290.675 79 285.75 74.0751 285.75 68H284.75H283.75C283.75 75.1797 289.57 81 296.75 81V80ZM411.125 68H410.125C410.125 74.0751 405.2 79 399.125 79V80V81C406.305 81 412.125 75.1797 412.125 68H411.125ZM399.125 0V1C405.2 1 410.125 5.92487 410.125 12H411.125H412.125C412.125 4.8203 406.305 -1 399.125 -1V0ZM296.75 0V-1C289.57 -1 283.75 4.8203 283.75 12H284.75H285.75C285.75 5.92487 290.675 1 296.75 1V0Z" fill="url(#paint5_linear_413_313)" mask="url(#path-9-inside-3_413_313)"/>
<path d="M347.938 34C347.388 34 346.917 33.8042 346.525 33.4125C346.133 33.0208 345.938 32.55 345.938 32H349.938C349.938 32.55 349.742 33.0208 349.35 33.4125C348.958 33.8042 348.488 34 347.938 34ZM344.938 31C344.654 31 344.417 30.9042 344.225 30.7125C344.033 30.5208 343.938 30.2833 343.938 30C343.938 29.7167 344.033 29.4792 344.225 29.2875C344.417 29.0958 344.654 29 344.938 29H350.938C351.221 29 351.458 29.0958 351.65 29.2875C351.842 29.4792 351.938 29.7167 351.938 30C351.938 30.2833 351.842 30.5208 351.65 30.7125C351.458 30.9042 351.221 31 350.938 31H344.938ZM344.188 28C343.038 27.3167 342.125 26.4 341.45 25.25C340.775 24.1 340.438 22.85 340.438 21.5C340.438 19.4167 341.167 17.6458 342.625 16.1875C344.083 14.7292 345.854 14 347.938 14C350.021 14 351.792 14.7292 353.25 16.1875C354.708 17.6458 355.438 19.4167 355.438 21.5C355.438 22.85 355.1 24.1 354.425 25.25C353.75 26.4 352.838 27.3167 351.688 28H344.188ZM344.787 26H351.088C351.838 25.4667 352.417 24.8083 352.825 24.025C353.233 23.2417 353.438 22.4 353.438 21.5C353.438 19.9667 352.904 18.6667 351.838 17.6C350.771 16.5333 349.471 16 347.938 16C346.404 16 345.104 16.5333 344.038 17.6C342.971 18.6667 342.438 19.9667 342.438 21.5C342.438 22.4 342.642 23.2417 343.05 24.025C343.458 24.8083 344.038 25.4667 344.787 26Z" fill="#363E4A"/>
<path d="M315.475 53.6172C315.429 53.183 315.233 52.8449 314.888 52.603C314.547 52.361 314.103 52.2401 313.556 52.2401C313.172 52.2401 312.842 52.2981 312.567 52.4141C312.292 52.5301 312.081 52.6875 311.935 52.8864C311.79 53.0852 311.715 53.3123 311.712 53.5675C311.712 53.7796 311.76 53.9635 311.856 54.1193C311.955 54.2751 312.089 54.4077 312.259 54.517C312.428 54.6231 312.615 54.7126 312.82 54.7855C313.026 54.8584 313.233 54.9197 313.442 54.9695L314.396 55.2081C314.781 55.2976 315.15 55.4186 315.505 55.571C315.863 55.7235 316.183 55.9157 316.464 56.1477C316.75 56.3797 316.975 56.6598 317.141 56.9879C317.306 57.3161 317.389 57.7005 317.389 58.1413C317.389 58.7379 317.237 59.2633 316.932 59.7173C316.627 60.1681 316.186 60.5211 315.609 60.7763C315.036 61.0282 314.342 61.1541 313.526 61.1541C312.734 61.1541 312.046 61.0315 311.463 60.7862C310.883 60.541 310.429 60.183 310.101 59.7124C309.776 59.2417 309.6 58.6683 309.574 57.9922H311.388C311.415 58.3468 311.524 58.6418 311.717 58.8771C311.909 59.1125 312.159 59.2881 312.467 59.4041C312.779 59.5201 313.127 59.5781 313.511 59.5781C313.912 59.5781 314.264 59.5185 314.565 59.3991C314.87 59.2765 315.109 59.1075 315.281 58.892C315.454 58.6733 315.541 58.4181 315.545 58.1264C315.541 57.8613 315.464 57.6425 315.311 57.4702C315.159 57.2945 314.945 57.1487 314.67 57.0327C314.398 56.9134 314.08 56.8073 313.715 56.7145L312.557 56.4162C311.718 56.2008 311.055 55.8743 310.568 55.4368C310.084 54.996 309.842 54.411 309.842 53.6818C309.842 53.0819 310.005 52.5566 310.33 52.1058C310.658 51.6551 311.103 51.3054 311.667 51.0568C312.23 50.8049 312.868 50.679 313.581 50.679C314.304 50.679 314.937 50.8049 315.48 51.0568C316.027 51.3054 316.456 51.6518 316.768 52.0959C317.079 52.5367 317.24 53.0438 317.25 53.6172H315.475ZM323.821 57.7884V53.3636H325.621V61H323.876V59.6428H323.796C323.624 60.0703 323.341 60.42 322.946 60.6918C322.555 60.9635 322.073 61.0994 321.499 61.0994C320.999 61.0994 320.557 60.9884 320.172 60.7663C319.791 60.541 319.493 60.2145 319.277 59.7869C319.062 59.3561 318.954 58.8357 318.954 58.2259V53.3636H320.754V57.9474C320.754 58.4313 320.886 58.8158 321.151 59.1009C321.417 59.3859 321.765 59.5284 322.195 59.5284C322.461 59.5284 322.718 59.4638 322.966 59.3345C323.215 59.2053 323.419 59.013 323.578 58.7578C323.74 58.4993 323.821 58.1761 323.821 57.7884ZM330.793 64.0227C330.146 64.0227 329.591 63.9349 329.127 63.7592C328.663 63.5869 328.29 63.3549 328.009 63.0632C327.727 62.7715 327.531 62.4484 327.422 62.0938L329.043 61.701C329.116 61.8501 329.222 61.9976 329.361 62.1435C329.5 62.2926 329.687 62.4152 329.923 62.5114C330.161 62.6108 330.461 62.6605 330.822 62.6605C331.333 62.6605 331.755 62.5362 332.09 62.2876C332.425 62.0424 332.592 61.638 332.592 61.0746V59.6278H332.503C332.41 59.8134 332.274 60.004 332.095 60.1996C331.92 60.3951 331.686 60.5592 331.394 60.6918C331.106 60.8243 330.743 60.8906 330.305 60.8906C329.719 60.8906 329.187 60.7531 328.71 60.478C328.236 60.1996 327.858 59.7853 327.576 59.2351C327.298 58.6816 327.158 57.9889 327.158 57.157C327.158 56.3184 327.298 55.6108 327.576 55.0341C327.858 54.4541 328.237 54.0149 328.714 53.7166C329.192 53.415 329.724 53.2642 330.31 53.2642C330.758 53.2642 331.126 53.3404 331.414 53.4929C331.706 53.642 331.938 53.8227 332.11 54.0348C332.282 54.2436 332.413 54.4408 332.503 54.6264H332.602V53.3636H334.377V61.1243C334.377 61.7772 334.221 62.3175 333.91 62.745C333.598 63.1726 333.172 63.4924 332.632 63.7045C332.092 63.9167 331.479 64.0227 330.793 64.0227ZM330.808 59.4787C331.189 59.4787 331.513 59.3859 331.782 59.2003C332.05 59.0147 332.254 58.7479 332.393 58.3999C332.533 58.0518 332.602 57.6342 332.602 57.147C332.602 56.6664 332.533 56.2455 332.393 55.8842C332.258 55.523 332.055 55.2429 331.787 55.044C331.522 54.8419 331.195 54.7408 330.808 54.7408C330.406 54.7408 330.072 54.8452 329.803 55.054C329.535 55.2628 329.333 55.5495 329.197 55.9141C329.061 56.2753 328.993 56.6863 328.993 57.147C328.993 57.6143 329.061 58.0237 329.197 58.375C329.336 58.723 329.54 58.9948 329.808 59.1903C330.08 59.3826 330.413 59.4787 330.808 59.4787ZM339.543 64.0227C338.896 64.0227 338.341 63.9349 337.877 63.7592C337.413 63.5869 337.04 63.3549 336.759 63.0632C336.477 62.7715 336.281 62.4484 336.172 62.0938L337.793 61.701C337.866 61.8501 337.972 61.9976 338.111 62.1435C338.25 62.2926 338.437 62.4152 338.673 62.5114C338.911 62.6108 339.211 62.6605 339.572 62.6605C340.083 62.6605 340.505 62.5362 340.84 62.2876C341.175 62.0424 341.342 61.638 341.342 61.0746V59.6278H341.253C341.16 59.8134 341.024 60.004 340.845 60.1996C340.67 60.3951 340.436 60.5592 340.144 60.6918C339.856 60.8243 339.493 60.8906 339.055 60.8906C338.469 60.8906 337.937 60.7531 337.46 60.478C336.986 60.1996 336.608 59.7853 336.326 59.2351C336.048 58.6816 335.908 57.9889 335.908 57.157C335.908 56.3184 336.048 55.6108 336.326 55.0341C336.608 54.4541 336.987 54.0149 337.464 53.7166C337.942 53.415 338.474 53.2642 339.06 53.2642C339.508 53.2642 339.876 53.3404 340.164 53.4929C340.456 53.642 340.688 53.8227 340.86 54.0348C341.032 54.2436 341.163 54.4408 341.253 54.6264H341.352V53.3636H343.127V61.1243C343.127 61.7772 342.971 62.3175 342.66 62.745C342.348 63.1726 341.922 63.4924 341.382 63.7045C340.842 63.9167 340.229 64.0227 339.543 64.0227ZM339.558 59.4787C339.939 59.4787 340.263 59.3859 340.532 59.2003C340.8 59.0147 341.004 58.7479 341.143 58.3999C341.283 58.0518 341.352 57.6342 341.352 57.147C341.352 56.6664 341.283 56.2455 341.143 55.8842C341.008 55.523 340.805 55.2429 340.537 55.044C340.272 54.8419 339.945 54.7408 339.558 54.7408C339.156 54.7408 338.822 54.8452 338.553 55.054C338.285 55.2628 338.083 55.5495 337.947 55.9141C337.811 56.2753 337.743 56.6863 337.743 57.147C337.743 57.6143 337.811 58.0237 337.947 58.375C338.086 58.723 338.29 58.9948 338.558 59.1903C338.83 59.3826 339.163 59.4787 339.558 59.4787ZM348.352 61.1491C347.587 61.1491 346.925 60.9901 346.369 60.6719C345.815 60.3504 345.389 59.8963 345.091 59.3097C344.793 58.7197 344.643 58.0253 344.643 57.2266C344.643 56.4411 344.793 55.7517 345.091 55.1584C345.393 54.5618 345.813 54.0978 346.354 53.7663C346.894 53.4316 347.529 53.2642 348.258 53.2642C348.728 53.2642 349.173 53.3404 349.59 53.4929C350.011 53.642 350.382 53.8741 350.704 54.1889C351.029 54.5038 351.284 54.9048 351.469 55.392C351.655 55.8759 351.748 56.4527 351.748 57.1222V57.674H345.489V56.4609H350.023C350.019 56.1162 349.945 55.8097 349.799 55.5412C349.653 55.2694 349.449 55.0556 349.188 54.8999C348.929 54.7441 348.627 54.6662 348.283 54.6662C347.915 54.6662 347.592 54.7557 347.313 54.9347C347.035 55.1103 346.818 55.3423 346.662 55.6307C346.509 55.9157 346.432 56.2289 346.428 56.5703V57.6293C346.428 58.0734 346.509 58.4545 346.672 58.7727C346.834 59.0876 347.061 59.3295 347.353 59.4986C347.645 59.6643 347.986 59.7472 348.377 59.7472C348.639 59.7472 348.876 59.7107 349.088 59.6378C349.3 59.5616 349.484 59.4505 349.64 59.3047C349.796 59.1589 349.913 58.9782 349.993 58.7628L351.673 58.9517C351.567 59.3958 351.365 59.7836 351.067 60.1151C350.772 60.4432 350.394 60.6984 349.933 60.8807C349.473 61.0597 348.946 61.1491 348.352 61.1491ZM359.306 55.3821L357.665 55.5611C357.619 55.3954 357.538 55.2396 357.422 55.0938C357.309 54.9479 357.157 54.8303 356.964 54.7408C356.772 54.6513 356.537 54.6065 356.258 54.6065C355.884 54.6065 355.569 54.6877 355.314 54.8501C355.062 55.0125 354.938 55.223 354.941 55.4815C354.938 55.7036 355.019 55.8842 355.184 56.0234C355.354 56.1626 355.632 56.277 356.02 56.3665L357.322 56.6449C358.045 56.8007 358.582 57.0476 358.933 57.3857C359.288 57.7237 359.467 58.1662 359.47 58.7131C359.467 59.1937 359.326 59.6179 359.047 59.9858C358.772 60.3504 358.39 60.6354 357.899 60.8409C357.408 61.0464 356.845 61.1491 356.209 61.1491C355.274 61.1491 354.522 60.9536 353.952 60.5625C353.381 60.1681 353.042 59.6196 352.932 58.9169L354.687 58.7479C354.767 59.0926 354.936 59.3527 355.194 59.5284C355.453 59.7041 355.789 59.7919 356.204 59.7919C356.631 59.7919 356.974 59.7041 357.233 59.5284C357.495 59.3527 357.626 59.1357 357.626 58.8771C357.626 58.6584 357.541 58.4777 357.372 58.3352C357.206 58.1927 356.948 58.0833 356.596 58.0071L355.294 57.7337C354.561 57.5812 354.019 57.3243 353.668 56.9631C353.317 56.5985 353.143 56.1378 353.146 55.581C353.143 55.1103 353.27 54.7027 353.529 54.358C353.791 54.0099 354.154 53.7415 354.618 53.5526C355.085 53.3603 355.624 53.2642 356.233 53.2642C357.128 53.2642 357.833 53.4548 358.346 53.8359C358.863 54.2171 359.183 54.7325 359.306 55.3821ZM364.767 53.3636V54.7557H360.377V53.3636H364.767ZM361.461 51.5341H363.261V58.7031C363.261 58.9451 363.297 59.1307 363.37 59.2599C363.446 59.3859 363.546 59.4721 363.669 59.5185C363.791 59.5649 363.927 59.5881 364.076 59.5881C364.189 59.5881 364.292 59.5798 364.384 59.5632C364.481 59.5466 364.553 59.5317 364.603 59.5185L364.906 60.9254C364.81 60.9586 364.673 60.995 364.494 61.0348C364.318 61.0746 364.103 61.0978 363.847 61.1044C363.397 61.1177 362.991 61.0497 362.629 60.9006C362.268 60.7481 361.981 60.5128 361.769 60.1946C361.561 59.8764 361.458 59.4787 361.461 59.0014V51.5341ZM366.272 61V53.3636H368.072V61H366.272ZM367.177 52.2798C366.892 52.2798 366.647 52.1854 366.441 51.9964C366.236 51.8042 366.133 51.5739 366.133 51.3054C366.133 51.0336 366.236 50.8033 366.441 50.6143C366.647 50.4221 366.892 50.326 367.177 50.326C367.466 50.326 367.711 50.4221 367.913 50.6143C368.118 50.8033 368.221 51.0336 368.221 51.3054C368.221 51.5739 368.118 51.8042 367.913 51.9964C367.711 52.1854 367.466 52.2798 367.177 52.2798ZM371.722 56.5256V61H369.923V53.3636H371.643V54.6612H371.732C371.908 54.2337 372.188 53.8939 372.573 53.642C372.96 53.3902 373.439 53.2642 374.009 53.2642C374.536 53.2642 374.995 53.3769 375.387 53.6023C375.781 53.8277 376.086 54.1541 376.301 54.5817C376.52 55.0092 376.628 55.5279 376.624 56.1378V61H374.825V56.4162C374.825 55.9058 374.692 55.5064 374.427 55.218C374.165 54.9297 373.802 54.7855 373.338 54.7855C373.023 54.7855 372.743 54.8551 372.498 54.9943C372.256 55.1302 372.066 55.3274 371.926 55.5859C371.79 55.8445 371.722 56.1577 371.722 56.5256ZM381.775 64.0227C381.129 64.0227 380.574 63.9349 380.11 63.7592C379.646 63.5869 379.273 63.3549 378.991 63.0632C378.709 62.7715 378.514 62.4484 378.404 62.0938L380.025 61.701C380.098 61.8501 380.204 61.9976 380.343 62.1435C380.482 62.2926 380.67 62.4152 380.905 62.5114C381.144 62.6108 381.444 62.6605 381.805 62.6605C382.315 62.6605 382.738 62.5362 383.073 62.2876C383.407 62.0424 383.575 61.638 383.575 61.0746V59.6278H383.485C383.392 59.8134 383.257 60.004 383.078 60.1996C382.902 60.3951 382.668 60.5592 382.377 60.6918C382.088 60.8243 381.725 60.8906 381.288 60.8906C380.701 60.8906 380.169 60.7531 379.692 60.478C379.218 60.1996 378.84 59.7853 378.558 59.2351C378.28 58.6816 378.141 57.9889 378.141 57.157C378.141 56.3184 378.28 55.6108 378.558 55.0341C378.84 54.4541 379.22 54.0149 379.697 53.7166C380.174 53.415 380.706 53.2642 381.293 53.2642C381.74 53.2642 382.108 53.3404 382.396 53.4929C382.688 53.642 382.92 53.8227 383.093 54.0348C383.265 54.2436 383.396 54.4408 383.485 54.6264H383.585V53.3636H385.36V61.1243C385.36 61.7772 385.204 62.3175 384.892 62.745C384.581 63.1726 384.155 63.4924 383.615 63.7045C383.074 63.9167 382.461 64.0227 381.775 64.0227ZM381.79 59.4787C382.171 59.4787 382.496 59.3859 382.764 59.2003C383.033 59.0147 383.237 58.7479 383.376 58.3999C383.515 58.0518 383.585 57.6342 383.585 57.147C383.585 56.6664 383.515 56.2455 383.376 55.8842C383.24 55.523 383.038 55.2429 382.769 55.044C382.504 54.8419 382.178 54.7408 381.79 54.7408C381.389 54.7408 381.054 54.8452 380.786 55.054C380.517 55.2628 380.315 55.5495 380.179 55.9141C380.043 56.2753 379.975 56.6863 379.975 57.147C379.975 57.6143 380.043 58.0237 380.179 58.375C380.318 58.723 380.522 58.9948 380.791 59.1903C381.062 59.3826 381.396 59.4787 381.79 59.4787Z" fill="#59616B"/>
<mask id="path-13-inside-4_413_313" fill="white">
<path d="M427.125 12C427.125 5.37258 432.498 0 439.125 0H541.5C548.127 0 553.5 5.37258 553.5 12V68C553.5 74.6274 548.127 80 541.5 80H439.125C432.498 80 427.125 74.6274 427.125 68V12Z"/>
</mask>
<path d="M427.125 12C427.125 5.37258 432.498 0 439.125 0H541.5C548.127 0 553.5 5.37258 553.5 12V68C553.5 74.6274 548.127 80 541.5 80H439.125C432.498 80 427.125 74.6274 427.125 68V12Z" fill="url(#paint6_linear_413_313)" fill-opacity="0.15"/>
<path d="M439.125 0V1H541.5V0V-1H439.125V0ZM553.5 12H552.5V68H553.5H554.5V12H553.5ZM541.5 80V79H439.125V80V81H541.5V80ZM427.125 68H428.125V12H427.125H426.125V68H427.125ZM439.125 80V79C433.05 79 428.125 74.0751 428.125 68H427.125H426.125C426.125 75.1797 431.945 81 439.125 81V80ZM553.5 68H552.5C552.5 74.0751 547.575 79 541.5 79V80V81C548.68 81 554.5 75.1797 554.5 68H553.5ZM541.5 0V1C547.575 1 552.5 5.92487 552.5 12H553.5H554.5C554.5 4.8203 548.68 -1 541.5 -1V0ZM439.125 0V-1C431.945 -1 426.125 4.8203 426.125 12H427.125H428.125C428.125 5.92487 433.05 1 439.125 1V0Z" fill="url(#paint7_linear_413_313)" mask="url(#path-13-inside-4_413_313)"/>
<path d="M495.488 26H485.812C484.562 26 483.5 25.5625 482.625 24.6875C481.75 23.8125 481.312 22.75 481.312 21.5C481.312 20.25 481.75 19.1875 482.625 18.3125C483.5 17.4375 484.562 17 485.812 17C486.096 17 486.333 17.0958 486.525 17.2875C486.717 17.4792 486.812 17.7167 486.812 18C486.812 18.2833 486.717 18.5208 486.525 18.7125C486.333 18.9042 486.096 19 485.812 19C485.112 19 484.521 19.2417 484.038 19.725C483.554 20.2083 483.312 20.8 483.312 21.5C483.312 22.2 483.554 22.7917 484.038 23.275C484.521 23.7583 485.112 24 485.812 24H495.488L492.613 21.1C492.429 20.9167 492.333 20.6875 492.325 20.4125C492.317 20.1375 492.413 19.9 492.613 19.7C492.796 19.5167 493.029 19.425 493.312 19.425C493.596 19.425 493.829 19.5167 494.012 19.7L498.613 24.3C498.812 24.5 498.913 24.7333 498.913 25C498.913 25.2667 498.812 25.5 498.613 25.7L494.012 30.3C493.812 30.5 493.579 30.5958 493.312 30.5875C493.046 30.5792 492.812 30.475 492.613 30.275C492.429 30.075 492.333 29.8417 492.325 29.575C492.317 29.3083 492.413 29.075 492.613 28.875L495.488 26Z" fill="#363E4A"/>
<path d="M446.532 54.2536H444.673C444.62 53.9486 444.522 53.6785 444.379 53.4432C444.237 53.2045 444.059 53.0024 443.847 52.8366C443.635 52.6709 443.393 52.5466 443.121 52.4638C442.853 52.3776 442.563 52.3345 442.251 52.3345C441.698 52.3345 441.207 52.4737 440.78 52.7521C440.352 53.0272 440.018 53.4316 439.776 53.9652C439.534 54.4955 439.413 55.1435 439.413 55.9091C439.413 56.688 439.534 57.3442 439.776 57.8778C440.021 58.4081 440.356 58.8092 440.78 59.081C441.207 59.3494 441.696 59.4837 442.246 59.4837C442.551 59.4837 442.836 59.4439 443.102 59.3643C443.37 59.2815 443.61 59.1605 443.822 59.0014C444.038 58.8423 444.219 58.6468 444.364 58.4148C444.513 58.1828 444.616 57.9176 444.673 57.6193L446.532 57.6293C446.462 58.1132 446.312 58.5672 446.08 58.9915C445.851 59.4157 445.551 59.7902 445.18 60.1151C444.808 60.4366 444.374 60.6884 443.877 60.8707C443.38 61.0497 442.828 61.1392 442.222 61.1392C441.327 61.1392 440.528 60.9321 439.825 60.5178C439.123 60.1035 438.569 59.5052 438.165 58.723C437.76 57.9408 437.558 57.0028 437.558 55.9091C437.558 54.812 437.762 53.8741 438.17 53.0952C438.577 52.313 439.133 51.7147 439.835 51.3004C440.538 50.8861 441.333 50.679 442.222 50.679C442.788 50.679 443.315 50.7585 443.803 50.9176C444.29 51.0767 444.724 51.3104 445.105 51.6186C445.486 51.9235 445.799 52.2981 446.045 52.7422C446.293 53.183 446.456 53.6868 446.532 54.2536ZM451.472 61.1491C450.727 61.1491 450.08 60.9851 449.534 60.657C448.987 60.3288 448.562 59.8698 448.261 59.2798C447.963 58.6899 447.813 58.0005 447.813 57.2116C447.813 56.4228 447.963 55.7318 448.261 55.1385C448.562 54.5452 448.987 54.0845 449.534 53.7564C450.08 53.4283 450.727 53.2642 451.472 53.2642C452.218 53.2642 452.865 53.4283 453.411 53.7564C453.958 54.0845 454.381 54.5452 454.679 55.1385C454.981 55.7318 455.132 56.4228 455.132 57.2116C455.132 58.0005 454.981 58.6899 454.679 59.2798C454.381 59.8698 453.958 60.3288 453.411 60.657C452.865 60.9851 452.218 61.1491 451.472 61.1491ZM451.482 59.7074C451.887 59.7074 452.225 59.5964 452.497 59.3743C452.768 59.1489 452.971 58.8473 453.103 58.4695C453.239 58.0916 453.307 57.6707 453.307 57.2067C453.307 56.7393 453.239 56.3168 453.103 55.9389C452.971 55.5578 452.768 55.2545 452.497 55.0291C452.225 54.8037 451.887 54.6911 451.482 54.6911C451.068 54.6911 450.723 54.8037 450.448 55.0291C450.177 55.2545 449.973 55.5578 449.837 55.9389C449.704 56.3168 449.638 56.7393 449.638 57.2067C449.638 57.6707 449.704 58.0916 449.837 58.4695C449.973 58.8473 450.177 59.1489 450.448 59.3743C450.723 59.5964 451.068 59.7074 451.482 59.7074ZM458.459 56.5256V61H456.659V53.3636H458.379V54.6612H458.469C458.644 54.2337 458.924 53.8939 459.309 53.642C459.697 53.3902 460.176 53.2642 460.746 53.2642C461.273 53.2642 461.732 53.3769 462.123 53.6023C462.517 53.8277 462.822 54.1541 463.038 54.5817C463.256 55.0092 463.364 55.5279 463.361 56.1378V61H461.561V56.4162C461.561 55.9058 461.429 55.5064 461.163 55.218C460.902 54.9297 460.539 54.7855 460.075 54.7855C459.76 54.7855 459.48 54.8551 459.234 54.9943C458.992 55.1302 458.802 55.3274 458.663 55.5859C458.527 55.8445 458.459 56.1577 458.459 56.5256ZM469.004 53.3636V54.7557H464.614V53.3636H469.004ZM465.697 51.5341H467.497V58.7031C467.497 58.9451 467.534 59.1307 467.607 59.2599C467.683 59.3859 467.782 59.4721 467.905 59.5185C468.027 59.5649 468.163 59.5881 468.312 59.5881C468.425 59.5881 468.528 59.5798 468.621 59.5632C468.717 59.5466 468.79 59.5317 468.839 59.5185L469.143 60.9254C469.047 60.9586 468.909 60.995 468.73 61.0348C468.554 61.0746 468.339 61.0978 468.084 61.1044C467.633 61.1177 467.227 61.0497 466.866 60.9006C466.504 60.7481 466.218 60.5128 466.006 60.1946C465.797 59.8764 465.694 59.4787 465.697 59.0014V51.5341ZM473.807 61.1491C473.042 61.1491 472.381 60.9901 471.824 60.6719C471.27 60.3504 470.844 59.8963 470.546 59.3097C470.248 58.7197 470.099 58.0253 470.099 57.2266C470.099 56.4411 470.248 55.7517 470.546 55.1584C470.848 54.5618 471.269 54.0978 471.809 53.7663C472.349 53.4316 472.984 53.2642 473.713 53.2642C474.184 53.2642 474.628 53.3404 475.045 53.4929C475.466 53.642 475.837 53.8741 476.159 54.1889C476.484 54.5038 476.739 54.9048 476.925 55.392C477.11 55.8759 477.203 56.4527 477.203 57.1222V57.674H470.944V56.4609H475.478C475.474 56.1162 475.4 55.8097 475.254 55.5412C475.108 55.2694 474.904 55.0556 474.643 54.8999C474.384 54.7441 474.082 54.6662 473.738 54.6662C473.37 54.6662 473.047 54.7557 472.768 54.9347C472.49 55.1103 472.273 55.3423 472.117 55.6307C471.965 55.9157 471.887 56.2289 471.883 56.5703V57.6293C471.883 58.0734 471.965 58.4545 472.127 58.7727C472.289 59.0876 472.516 59.3295 472.808 59.4986C473.1 59.6643 473.441 59.7472 473.832 59.7472C474.094 59.7472 474.331 59.7107 474.543 59.6378C474.755 59.5616 474.939 59.4505 475.095 59.3047C475.251 59.1589 475.368 58.9782 475.448 58.7628L477.128 58.9517C477.022 59.3958 476.82 59.7836 476.522 60.1151C476.227 60.4432 475.849 60.6984 475.388 60.8807C474.928 61.0597 474.401 61.1491 473.807 61.1491ZM480.033 53.3636L481.574 56.1825L483.14 53.3636H485.044L482.743 57.1818L485.084 61H483.19L481.574 58.2507L479.973 61H478.064L480.391 57.1818L478.124 53.3636H480.033ZM490.25 53.3636V54.7557H485.86V53.3636H490.25ZM486.944 51.5341H488.743V58.7031C488.743 58.9451 488.78 59.1307 488.853 59.2599C488.929 59.3859 489.028 59.4721 489.151 59.5185C489.274 59.5649 489.409 59.5881 489.559 59.5881C489.671 59.5881 489.774 59.5798 489.867 59.5632C489.963 59.5466 490.036 59.5317 490.086 59.5185L490.389 60.9254C490.293 60.9586 490.155 60.995 489.976 61.0348C489.801 61.0746 489.585 61.0978 489.33 61.1044C488.879 61.1177 488.473 61.0497 488.112 60.9006C487.751 60.7481 487.464 60.5128 487.252 60.1946C487.043 59.8764 486.94 59.4787 486.944 59.0014V51.5341ZM496.622 57.7884V53.3636H498.422V61H496.677V59.6428H496.597C496.425 60.0703 496.141 60.42 495.747 60.6918C495.356 60.9635 494.874 61.0994 494.3 61.0994C493.8 61.0994 493.357 60.9884 492.973 60.7663C492.592 60.541 492.293 60.2145 492.078 59.7869C491.863 59.3561 491.755 58.8357 491.755 58.2259V53.3636H493.555V57.9474C493.555 58.4313 493.687 58.8158 493.952 59.1009C494.217 59.3859 494.565 59.5284 494.996 59.5284C495.261 59.5284 495.518 59.4638 495.767 59.3345C496.015 59.2053 496.219 59.013 496.378 58.7578C496.541 58.4993 496.622 58.1761 496.622 57.7884ZM502.47 61.1541C501.986 61.1541 501.55 61.0679 501.162 60.8956C500.778 60.7199 500.473 60.4614 500.248 60.12C500.025 59.7786 499.914 59.3577 499.914 58.8572C499.914 58.4264 499.994 58.0701 500.153 57.7884C500.312 57.5066 500.529 57.2812 500.804 57.1122C501.079 56.9432 501.389 56.8156 501.734 56.7294C502.082 56.6399 502.442 56.5753 502.813 56.5355C503.26 56.4891 503.623 56.4477 503.902 56.4112C504.18 56.3714 504.382 56.3118 504.508 56.2322C504.637 56.1494 504.702 56.0218 504.702 55.8494V55.8196C504.702 55.4451 504.591 55.1551 504.369 54.9496C504.147 54.7441 503.827 54.6413 503.409 54.6413C502.969 54.6413 502.619 54.7375 502.36 54.9297C502.105 55.1219 501.933 55.349 501.843 55.6108L500.163 55.3722C500.296 54.9081 500.514 54.5204 500.819 54.2088C501.124 53.8939 501.497 53.6586 501.938 53.5028C502.379 53.3438 502.866 53.2642 503.4 53.2642C503.767 53.2642 504.134 53.3073 504.498 53.3935C504.863 53.4796 505.196 53.6222 505.498 53.821C505.799 54.0166 506.041 54.2834 506.223 54.6214C506.409 54.9595 506.502 55.3821 506.502 55.8892V61H504.772V59.951H504.712C504.603 60.1631 504.449 60.362 504.25 60.5476C504.054 60.7299 503.807 60.8774 503.509 60.9901C503.214 61.0994 502.868 61.1541 502.47 61.1541ZM502.937 59.8317C503.298 59.8317 503.612 59.7604 503.877 59.6179C504.142 59.4721 504.346 59.2798 504.488 59.0412C504.634 58.8026 504.707 58.5424 504.707 58.2607V57.3608C504.651 57.4072 504.555 57.4503 504.419 57.4901C504.286 57.5298 504.137 57.5646 503.971 57.5945C503.806 57.6243 503.641 57.6508 503.479 57.674C503.317 57.6972 503.176 57.7171 503.056 57.7337C502.788 57.7701 502.548 57.8298 502.336 57.9126C502.123 57.9955 501.956 58.1115 501.833 58.2607C501.711 58.4065 501.65 58.5954 501.65 58.8274C501.65 59.1589 501.77 59.4091 502.012 59.5781C502.254 59.7472 502.563 59.8317 502.937 59.8317ZM510.111 50.8182V61H508.311V50.8182H510.111ZM511.962 61V53.3636H513.762V61H511.962ZM512.867 52.2798C512.582 52.2798 512.336 52.1854 512.131 51.9964C511.925 51.8042 511.823 51.5739 511.823 51.3054C511.823 51.0336 511.925 50.8033 512.131 50.6143C512.336 50.4221 512.582 50.326 512.867 50.326C513.155 50.326 513.4 50.4221 513.602 50.6143C513.808 50.8033 513.911 51.0336 513.911 51.3054C513.911 51.5739 513.808 51.8042 513.602 51.9964C513.4 52.1854 513.155 52.2798 512.867 52.2798ZM515.513 61V59.8565L519.45 54.9197V54.8551H515.642V53.3636H521.653V54.5916L517.904 59.4439V59.5085H521.782V61H515.513ZM523.474 61V53.3636H525.273V61H523.474ZM524.378 52.2798C524.093 52.2798 523.848 52.1854 523.643 51.9964C523.437 51.8042 523.334 51.5739 523.334 51.3054C523.334 51.0336 523.437 50.8033 523.643 50.6143C523.848 50.4221 524.093 50.326 524.378 50.326C524.667 50.326 524.912 50.4221 525.114 50.6143C525.32 50.8033 525.422 51.0336 525.422 51.3054C525.422 51.5739 525.32 51.8042 525.114 51.9964C524.912 52.1854 524.667 52.2798 524.378 52.2798ZM528.924 56.5256V61H527.124V53.3636H528.844V54.6612H528.934C529.109 54.2337 529.389 53.8939 529.774 53.642C530.162 53.3902 530.641 53.2642 531.211 53.2642C531.738 53.2642 532.197 53.3769 532.588 53.6023C532.982 53.8277 533.287 54.1541 533.502 54.5817C533.721 55.0092 533.829 55.5279 533.826 56.1378V61H532.026V56.4162C532.026 55.9058 531.893 55.5064 531.628 55.218C531.366 54.9297 531.003 54.7855 530.539 54.7855C530.225 54.7855 529.944 54.8551 529.699 54.9943C529.457 55.1302 529.267 55.3274 529.127 55.5859C528.992 55.8445 528.924 56.1577 528.924 56.5256ZM538.976 64.0227C538.33 64.0227 537.775 63.9349 537.311 63.7592C536.847 63.5869 536.474 63.3549 536.192 63.0632C535.91 62.7715 535.715 62.4484 535.605 62.0938L537.226 61.701C537.299 61.8501 537.405 61.9976 537.544 62.1435C537.684 62.2926 537.871 62.4152 538.106 62.5114C538.345 62.6108 538.645 62.6605 539.006 62.6605C539.516 62.6605 539.939 62.5362 540.274 62.2876C540.609 62.0424 540.776 61.638 540.776 61.0746V59.6278H540.686C540.594 59.8134 540.458 60.004 540.279 60.1996C540.103 60.3951 539.869 60.5592 539.578 60.6918C539.289 60.8243 538.926 60.8906 538.489 60.8906C537.902 60.8906 537.37 60.7531 536.893 60.478C536.419 60.1996 536.041 59.7853 535.76 59.2351C535.481 58.6816 535.342 57.9889 535.342 57.157C535.342 56.3184 535.481 55.6108 535.76 55.0341C536.041 54.4541 536.421 54.0149 536.898 53.7166C537.375 53.415 537.907 53.2642 538.494 53.2642C538.941 53.2642 539.309 53.3404 539.598 53.4929C539.889 53.642 540.121 53.8227 540.294 54.0348C540.466 54.2436 540.597 54.4408 540.686 54.6264H540.786V53.3636H542.561V61.1243C542.561 61.7772 542.405 62.3175 542.093 62.745C541.782 63.1726 541.356 63.4924 540.816 63.7045C540.275 63.9167 539.662 64.0227 538.976 64.0227ZM538.991 59.4787C539.372 59.4787 539.697 59.3859 539.966 59.2003C540.234 59.0147 540.438 58.7479 540.577 58.3999C540.716 58.0518 540.786 57.6342 540.786 57.147C540.786 56.6664 540.716 56.2455 540.577 55.8842C540.441 55.523 540.239 55.2429 539.971 55.044C539.705 54.8419 539.379 54.7408 538.991 54.7408C538.59 54.7408 538.255 54.8452 537.987 55.054C537.718 55.2628 537.516 55.5495 537.38 55.9141C537.244 56.2753 537.176 56.6863 537.176 57.147C537.176 57.6143 537.244 58.0237 537.38 58.375C537.52 58.723 537.723 58.9948 537.992 59.1903C538.264 59.3826 538.597 59.4787 538.991 59.4787Z" fill="#59616B"/>
<defs>
<linearGradient id="paint0_linear_413_313" x1="63.1875" y1="0" x2="112.949" y2="69.8738" gradientUnits="userSpaceOnUse">
<stop stop-color="#D2C2FF"/>
<stop offset="1" stop-color="white" stop-opacity="0"/>
</linearGradient>
<linearGradient id="paint1_linear_413_313" x1="24.2877" y1="5.60805e-06" x2="94.9278" y2="63.3131" gradientUnits="userSpaceOnUse">
<stop offset="0.5" stop-color="#4D6380" stop-opacity="0.21"/>
<stop offset="1" stop-color="#A79263" stop-opacity="0.41"/>
</linearGradient>
<linearGradient id="paint2_linear_413_313" x1="205.562" y1="0" x2="255.324" y2="69.8738" gradientUnits="userSpaceOnUse">
<stop stop-color="#D2C2FF"/>
<stop offset="1" stop-color="white" stop-opacity="0"/>
</linearGradient>
<linearGradient id="paint3_linear_413_313" x1="166.663" y1="5.60805e-06" x2="237.303" y2="63.3131" gradientUnits="userSpaceOnUse">
<stop offset="0.5" stop-color="#4D6380" stop-opacity="0.21"/>
<stop offset="1" stop-color="#A79263" stop-opacity="0.41"/>
</linearGradient>
<linearGradient id="paint4_linear_413_313" x1="347.938" y1="0" x2="397.699" y2="69.8738" gradientUnits="userSpaceOnUse">
<stop stop-color="#D2C2FF"/>
<stop offset="1" stop-color="white" stop-opacity="0"/>
</linearGradient>
<linearGradient id="paint5_linear_413_313" x1="309.038" y1="5.60805e-06" x2="379.678" y2="63.3131" gradientUnits="userSpaceOnUse">
<stop offset="0.5" stop-color="#4D6380" stop-opacity="0.21"/>
<stop offset="1" stop-color="#A79263" stop-opacity="0.41"/>
</linearGradient>
<linearGradient id="paint6_linear_413_313" x1="490.312" y1="0" x2="540.074" y2="69.8738" gradientUnits="userSpaceOnUse">
<stop stop-color="#D2C2FF"/>
<stop offset="1" stop-color="white" stop-opacity="0"/>
</linearGradient>
<linearGradient id="paint7_linear_413_313" x1="451.413" y1="5.60805e-06" x2="522.053" y2="63.3131" gradientUnits="userSpaceOnUse">
<stop offset="0.5" stop-color="#4D6380" stop-opacity="0.21"/>
<stop offset="1" stop-color="#A79263" stop-opacity="0.41"/>
</linearGradient>
</defs>
</svg>
