<svg width="261" height="232" viewBox="0 0 261 232" fill="none" xmlns="http://www.w3.org/2000/svg">
<foreignObject x="-65.9276" y="-65.9276" width="392.605" height="363.855"><div xmlns="http://www.w3.org/1999/xhtml" style="backdrop-filter:blur(32.96px);clip-path:url(#bgblur_0_878_4834_clip_path);height:100%;width:100%"></div></foreignObject><g data-figma-bg-blur-radius="65.9276">
<mask id="path-1-inside-1_878_4834" fill="white">
<path d="M0 12C0 5.37258 5.37258 0 12 0H248.75C255.377 0 260.75 5.37258 260.75 12V220C260.75 226.627 255.377 232 248.75 232H12C5.37259 232 0 226.627 0 220V12Z"/>
</mask>
<path d="M0 12C0 5.37258 5.37258 0 12 0H248.75C255.377 0 260.75 5.37258 260.75 12V220C260.75 226.627 255.377 232 248.75 232H12C5.37259 232 0 226.627 0 220V12Z" fill="url(#paint0_linear_878_4834)" fill-opacity="0.15"/>
<path d="M12 0V1H248.75V0V-1H12V0ZM260.75 12H259.75V220H260.75H261.75V12H260.75ZM248.75 232V231H12V232V233H248.75V232ZM0 220H1V12H0H-1V220H0ZM12 232V231C5.92487 231 1 226.075 1 220H0H-1C-1 227.18 4.8203 233 12 233V232ZM260.75 220H259.75C259.75 226.075 254.825 231 248.75 231V232V233C255.93 233 261.75 227.18 261.75 220H260.75ZM248.75 0V1C254.825 1 259.75 5.92487 259.75 12H260.75H261.75C261.75 4.8203 255.93 -1 248.75 -1V0ZM12 0V-1C4.8203 -1 -1 4.8203 -1 12H0H1C1 5.92487 5.92487 1 12 1V0Z" fill="url(#paint1_linear_878_4834)" mask="url(#path-1-inside-1_878_4834)"/>
<path d="M42.6309 20.4258C44.8188 20.4258 46.8677 20.8382 48.7773 21.6621C50.51 22.4098 52.0379 23.4003 53.3613 24.6328L50.5459 27.3945C48.3585 25.3988 45.72 24.4004 42.6309 24.4004C39.3375 24.4005 36.5565 25.5353 34.2881 27.8037C32.0197 30.0722 30.8858 32.8531 30.8857 36.1465C30.8857 39.4399 32.0197 42.2208 34.2881 44.4893C36.5565 46.7577 39.3375 47.8925 42.6309 47.8926C45.9243 47.8926 48.7052 46.7577 50.9736 44.4893C53.2421 42.2208 54.377 39.44 54.377 36.1465C54.3769 34.3593 54.0391 32.7246 53.3711 31.2393L56.3145 28.3867C56.6063 28.9034 56.8748 29.4407 57.1162 30C57.9401 31.9097 58.3516 33.9586 58.3516 36.1465C58.3516 38.3344 57.9401 40.3833 57.1162 42.293C56.2922 44.2025 55.1735 45.8639 53.7607 47.2764C52.3483 48.6891 50.6868 49.8069 48.7773 50.6309C46.8676 51.4548 44.8188 51.8672 42.6309 51.8672C40.443 51.8672 38.394 51.4548 36.4844 50.6309C34.5751 49.8069 32.9143 48.6889 31.502 47.2764C30.0892 45.8639 28.9705 44.2025 28.1465 42.293C27.3225 40.3833 26.9102 38.3344 26.9102 36.1465C26.9102 33.9585 27.3225 31.9097 28.1465 30C28.9705 28.0905 30.0892 26.4291 31.502 25.0166C32.9143 23.6041 34.5751 22.486 36.4844 21.6621C38.394 20.8381 40.443 20.4258 42.6309 20.4258ZM57.4238 26.5791L40.5312 43.4717L33.8379 36.7783L36.5107 34.085L40.5312 38.1055L54.752 23.8848L57.4238 26.5791Z" fill="#5E1F88"/>
<path d="M74.5376 21.6172C74.4912 21.183 74.2957 20.8449 73.951 20.603C73.6096 20.361 73.1655 20.2401 72.6186 20.2401C72.2341 20.2401 71.9044 20.2981 71.6293 20.4141C71.3542 20.5301 71.1437 20.6875 70.9979 20.8864C70.852 21.0852 70.7775 21.3123 70.7741 21.5675C70.7741 21.7796 70.8222 21.9635 70.9183 22.1193C71.0178 22.2751 71.152 22.4077 71.321 22.517C71.4901 22.6231 71.6773 22.7126 71.8828 22.7855C72.0883 22.8584 72.2955 22.9197 72.5043 22.9695L73.4588 23.2081C73.8433 23.2976 74.2128 23.4186 74.5675 23.571C74.9254 23.7235 75.2453 23.9157 75.527 24.1477C75.812 24.3797 76.0374 24.6598 76.2031 24.9879C76.3688 25.3161 76.4517 25.7005 76.4517 26.1413C76.4517 26.7379 76.2992 27.2633 75.9943 27.7173C75.6894 28.1681 75.2486 28.5211 74.6719 28.7763C74.0985 29.0282 73.4041 29.1541 72.5888 29.1541C71.7966 29.1541 71.1089 29.0315 70.5256 28.7862C69.9455 28.541 69.4915 28.183 69.1634 27.7124C68.8385 27.2417 68.6629 26.6683 68.6364 25.9922H70.451C70.4775 26.3468 70.5869 26.6418 70.7791 26.8771C70.9714 27.1125 71.2216 27.2881 71.5298 27.4041C71.8414 27.5201 72.1894 27.5781 72.5739 27.5781C72.9749 27.5781 73.3262 27.5185 73.6278 27.3991C73.9328 27.2765 74.1714 27.1075 74.3438 26.892C74.5161 26.6733 74.6039 26.4181 74.6072 26.1264C74.6039 25.8613 74.526 25.6425 74.3736 25.4702C74.2211 25.2945 74.0073 25.1487 73.7322 25.0327C73.4605 24.9134 73.1423 24.8073 72.7777 24.7145L71.6193 24.4162C70.7808 24.2008 70.1179 23.8743 69.6307 23.4368C69.1468 22.996 68.9048 22.411 68.9048 21.6818C68.9048 21.0819 69.0672 20.5566 69.392 20.1058C69.7202 19.6551 70.166 19.3054 70.7294 19.0568C71.2929 18.8049 71.9309 18.679 72.6435 18.679C73.366 18.679 73.9991 18.8049 74.5426 19.0568C75.0895 19.3054 75.5187 19.6518 75.8303 20.0959C76.1418 20.5367 76.3026 21.0438 76.3125 21.6172H74.5376ZM78.0165 29V21.3636H79.8162V29H78.0165ZM78.9213 20.2798C78.6363 20.2798 78.391 20.1854 78.1855 19.9964C77.9801 19.8042 77.8773 19.5739 77.8773 19.3054C77.8773 19.0336 77.9801 18.8033 78.1855 18.6143C78.391 18.4221 78.6363 18.326 78.9213 18.326C79.2097 18.326 79.455 18.4221 79.6571 18.6143C79.8626 18.8033 79.9654 19.0336 79.9654 19.3054C79.9654 19.5739 79.8626 19.8042 79.6571 19.9964C79.455 20.1854 79.2097 20.2798 78.9213 20.2798ZM85.4801 21.3636V22.7557H81.0902V21.3636H85.4801ZM82.174 19.5341H83.9737V26.7031C83.9737 26.9451 84.0102 27.1307 84.0831 27.2599C84.1593 27.3859 84.2588 27.4721 84.3814 27.5185C84.504 27.5649 84.6399 27.5881 84.7891 27.5881C84.9018 27.5881 85.0045 27.5798 85.0973 27.5632C85.1934 27.5466 85.2663 27.5317 85.3161 27.5185L85.6193 28.9254C85.5232 28.9586 85.3857 28.995 85.2067 29.0348C85.031 29.0746 84.8156 29.0978 84.5604 29.1044C84.1096 29.1177 83.7036 29.0497 83.3423 28.9006C82.9811 28.7481 82.6944 28.5128 82.4822 28.1946C82.2734 27.8764 82.1707 27.4787 82.174 27.0014V19.5341ZM91.8525 25.7884V21.3636H93.6522V29H91.9071V27.6428H91.8276C91.6552 28.0703 91.3719 28.42 90.9775 28.6918C90.5864 28.9635 90.1041 29.0994 89.5307 29.0994C89.0302 29.0994 88.5878 28.9884 88.2033 28.7663C87.8221 28.541 87.5239 28.2145 87.3084 27.7869C87.093 27.3561 86.9853 26.8357 86.9853 26.2259V21.3636H88.785V25.9474C88.785 26.4313 88.9176 26.8158 89.1827 27.1009C89.4479 27.3859 89.7959 27.5284 90.2267 27.5284C90.4919 27.5284 90.7488 27.4638 90.9973 27.3345C91.2459 27.2053 91.4498 27.013 91.6088 26.7578C91.7712 26.4993 91.8525 26.1761 91.8525 25.7884ZM97.7003 29.1541C97.2164 29.1541 96.7805 29.0679 96.3928 28.8956C96.0083 28.7199 95.7034 28.4614 95.478 28.12C95.2559 27.7786 95.1449 27.3577 95.1449 26.8572C95.1449 26.4264 95.2244 26.0701 95.3835 25.7884C95.5426 25.5066 95.7597 25.2812 96.0348 25.1122C96.3099 24.9432 96.6198 24.8156 96.9645 24.7294C97.3125 24.6399 97.6721 24.5753 98.0433 24.5355C98.4908 24.4891 98.8537 24.4477 99.1321 24.4112C99.4105 24.3714 99.6127 24.3118 99.7386 24.2322C99.8679 24.1494 99.9325 24.0218 99.9325 23.8494V23.8196C99.9325 23.4451 99.8215 23.1551 99.5994 22.9496C99.3774 22.7441 99.0575 22.6413 98.6399 22.6413C98.1991 22.6413 97.8494 22.7375 97.5909 22.9297C97.3357 23.1219 97.1634 23.349 97.0739 23.6108L95.3935 23.3722C95.526 22.9081 95.7448 22.5204 96.0497 22.2088C96.3546 21.8939 96.7275 21.6586 97.1683 21.5028C97.6091 21.3438 98.0964 21.2642 98.63 21.2642C98.9979 21.2642 99.3641 21.3073 99.7287 21.3935C100.093 21.4796 100.426 21.6222 100.728 21.821C101.03 22.0166 101.272 22.2834 101.454 22.6214C101.639 22.9595 101.732 23.3821 101.732 23.8892V29H100.002V27.951H99.9425C99.8331 28.1631 99.679 28.362 99.4801 28.5476C99.2846 28.7299 99.0376 28.8774 98.7393 28.9901C98.4444 29.0994 98.098 29.1541 97.7003 29.1541ZM98.1676 27.8317C98.5289 27.8317 98.8421 27.7604 99.1072 27.6179C99.3724 27.4721 99.5762 27.2798 99.7188 27.0412C99.8646 26.8026 99.9375 26.5424 99.9375 26.2607V25.3608C99.8812 25.4072 99.785 25.4503 99.6491 25.4901C99.5166 25.5298 99.3674 25.5646 99.2017 25.5945C99.036 25.6243 98.8719 25.6508 98.7095 25.674C98.5471 25.6972 98.4063 25.7171 98.2869 25.7337C98.0185 25.7701 97.7782 25.8298 97.5661 25.9126C97.3539 25.9955 97.1866 26.1115 97.0639 26.2607C96.9413 26.4065 96.88 26.5954 96.88 26.8274C96.88 27.1589 97.0009 27.4091 97.2429 27.5781C97.4848 27.7472 97.7931 27.8317 98.1676 27.8317ZM107.355 21.3636V22.7557H102.965V21.3636H107.355ZM104.049 19.5341H105.849V26.7031C105.849 26.9451 105.885 27.1307 105.958 27.2599C106.034 27.3859 106.134 27.4721 106.256 27.5185C106.379 27.5649 106.515 27.5881 106.664 27.5881C106.777 27.5881 106.879 27.5798 106.972 27.5632C107.068 27.5466 107.141 27.5317 107.191 27.5185L107.494 28.9254C107.398 28.9586 107.261 28.995 107.082 29.0348C106.906 29.0746 106.691 29.0978 106.435 29.1044C105.985 29.1177 105.579 29.0497 105.217 28.9006C104.856 28.7481 104.569 28.5128 104.357 28.1946C104.148 27.8764 104.046 27.4787 104.049 27.0014V19.5341ZM112.159 29.1491C111.393 29.1491 110.732 28.9901 110.175 28.6719C109.622 28.3504 109.196 27.8963 108.898 27.3097C108.599 26.7197 108.45 26.0253 108.45 25.2266C108.45 24.4411 108.599 23.7517 108.898 23.1584C109.199 22.5618 109.62 22.0978 110.16 21.7663C110.701 21.4316 111.335 21.2642 112.064 21.2642C112.535 21.2642 112.979 21.3404 113.397 21.4929C113.818 21.642 114.189 21.8741 114.51 22.1889C114.835 22.5038 115.09 22.9048 115.276 23.392C115.462 23.8759 115.555 24.4527 115.555 25.1222V25.674H109.295V24.4609H113.829C113.826 24.1162 113.751 23.8097 113.606 23.5412C113.46 23.2694 113.256 23.0556 112.994 22.8999C112.736 22.7441 112.434 22.6662 112.089 22.6662C111.721 22.6662 111.398 22.7557 111.12 22.9347C110.841 23.1103 110.624 23.3423 110.469 23.6307C110.316 23.9157 110.238 24.2289 110.235 24.5703V25.6293C110.235 26.0734 110.316 26.4545 110.479 26.7727C110.641 27.0876 110.868 27.3295 111.16 27.4986C111.451 27.6643 111.793 27.7472 112.184 27.7472C112.446 27.7472 112.683 27.7107 112.895 27.6378C113.107 27.5616 113.291 27.4505 113.447 27.3047C113.602 27.1589 113.72 26.9782 113.8 26.7628L115.48 26.9517C115.374 27.3958 115.172 27.7836 114.873 28.1151C114.578 28.4432 114.201 28.6984 113.74 28.8807C113.279 29.0597 112.752 29.1491 112.159 29.1491ZM119.911 29.1342C119.311 29.1342 118.774 28.9801 118.3 28.6719C117.826 28.3636 117.452 27.9162 117.176 27.3295C116.901 26.7429 116.764 26.0303 116.764 25.1918C116.764 24.3433 116.903 23.6274 117.181 23.044C117.463 22.4574 117.843 22.0149 118.32 21.7166C118.797 21.415 119.329 21.2642 119.916 21.2642C120.363 21.2642 120.731 21.3404 121.02 21.4929C121.308 21.642 121.537 21.8227 121.706 22.0348C121.875 22.2436 122.006 22.4408 122.098 22.6264H122.173V18.8182H123.978V29H122.208V27.7969H122.098C122.006 27.9825 121.871 28.1797 121.696 28.3885C121.52 28.594 121.288 28.7696 121 28.9155C120.711 29.0613 120.348 29.1342 119.911 29.1342ZM120.413 27.6577C120.794 27.6577 121.119 27.5549 121.387 27.3494C121.656 27.1406 121.86 26.8506 121.999 26.4794C122.138 26.1082 122.208 25.6757 122.208 25.1818C122.208 24.688 122.138 24.2588 121.999 23.8942C121.863 23.5296 121.661 23.2462 121.392 23.044C121.127 22.8419 120.801 22.7408 120.413 22.7408C120.012 22.7408 119.677 22.8452 119.409 23.054C119.14 23.2628 118.938 23.5511 118.802 23.919C118.666 24.2869 118.598 24.7079 118.598 25.1818C118.598 25.6591 118.666 26.085 118.802 26.4595C118.941 26.8307 119.145 27.1241 119.414 27.3395C119.685 27.5516 120.019 27.6577 120.413 27.6577ZM130.755 29H128.786L132.371 18.8182H134.648L138.237 29H136.269L133.549 20.9062H133.47L130.755 29ZM130.82 25.0078H136.189V26.4893H130.82V25.0078ZM142.597 29.1491C141.835 29.1491 141.181 28.9818 140.634 28.647C140.09 28.3123 139.671 27.8499 139.376 27.2599C139.084 26.6667 138.938 25.9839 138.938 25.2116C138.938 24.4361 139.088 23.7517 139.386 23.1584C139.684 22.5618 140.105 22.0978 140.649 21.7663C141.195 21.4316 141.842 21.2642 142.588 21.2642C143.207 21.2642 143.756 21.3786 144.233 21.6072C144.714 21.8326 145.097 22.1525 145.382 22.5668C145.667 22.9777 145.829 23.4583 145.869 24.0085H144.149C144.079 23.6406 143.913 23.334 143.651 23.0888C143.393 22.8402 143.047 22.7159 142.612 22.7159C142.244 22.7159 141.921 22.8153 141.643 23.0142C141.365 23.2098 141.147 23.4915 140.992 23.8594C140.839 24.2273 140.763 24.6681 140.763 25.1818C140.763 25.7022 140.839 26.1496 140.992 26.5241C141.144 26.8954 141.358 27.1821 141.633 27.3842C141.911 27.5831 142.238 27.6825 142.612 27.6825C142.878 27.6825 143.115 27.6328 143.323 27.5334C143.535 27.4306 143.713 27.2831 143.855 27.0909C143.998 26.8987 144.096 26.665 144.149 26.3899H145.869C145.826 26.9302 145.667 27.4091 145.392 27.8267C145.116 28.241 144.742 28.5658 144.268 28.8011C143.794 29.0331 143.237 29.1491 142.597 29.1491ZM151.16 21.3636V22.7557H146.77V21.3636H151.16ZM147.854 19.5341H149.653V26.7031C149.653 26.9451 149.69 27.1307 149.763 27.2599C149.839 27.3859 149.938 27.4721 150.061 27.5185C150.184 27.5649 150.32 27.5881 150.469 27.5881C150.581 27.5881 150.684 27.5798 150.777 27.5632C150.873 27.5466 150.946 27.5317 150.996 27.5185L151.299 28.9254C151.203 28.9586 151.065 28.995 150.886 29.0348C150.711 29.0746 150.495 29.0978 150.24 29.1044C149.789 29.1177 149.383 29.0497 149.022 28.9006C148.661 28.7481 148.374 28.5128 148.162 28.1946C147.953 27.8764 147.85 27.4787 147.854 27.0014V19.5341ZM152.665 29V21.3636H154.465V29H152.665ZM153.57 20.2798C153.285 20.2798 153.039 20.1854 152.834 19.9964C152.628 19.8042 152.526 19.5739 152.526 19.3054C152.526 19.0336 152.628 18.8033 152.834 18.6143C153.039 18.4221 153.285 18.326 153.57 18.326C153.858 18.326 154.103 18.4221 154.306 18.6143C154.511 18.8033 154.614 19.0336 154.614 19.3054C154.614 19.5739 154.511 19.8042 154.306 19.9964C154.103 20.1854 153.858 20.2798 153.57 20.2798ZM159.646 29.1491C158.901 29.1491 158.254 28.9851 157.707 28.657C157.161 28.3288 156.736 27.8698 156.435 27.2798C156.136 26.6899 155.987 26.0005 155.987 25.2116C155.987 24.4228 156.136 23.7318 156.435 23.1385C156.736 22.5452 157.161 22.0845 157.707 21.7564C158.254 21.4283 158.901 21.2642 159.646 21.2642C160.392 21.2642 161.038 21.4283 161.585 21.7564C162.132 22.0845 162.555 22.5452 162.853 23.1385C163.155 23.7318 163.305 24.4228 163.305 25.2116C163.305 26.0005 163.155 26.6899 162.853 27.2798C162.555 27.8698 162.132 28.3288 161.585 28.657C161.038 28.9851 160.392 29.1491 159.646 29.1491ZM159.656 27.7074C160.061 27.7074 160.399 27.5964 160.67 27.3743C160.942 27.1489 161.144 26.8473 161.277 26.4695C161.413 26.0916 161.481 25.6707 161.481 25.2067C161.481 24.7393 161.413 24.3168 161.277 23.9389C161.144 23.5578 160.942 23.2545 160.67 23.0291C160.399 22.8037 160.061 22.6911 159.656 22.6911C159.242 22.6911 158.897 22.8037 158.622 23.0291C158.35 23.2545 158.147 23.5578 158.011 23.9389C157.878 24.3168 157.812 24.7393 157.812 25.2067C157.812 25.6707 157.878 26.0916 158.011 26.4695C158.147 26.8473 158.35 27.1489 158.622 27.3743C158.897 27.5964 159.242 27.7074 159.656 27.7074ZM166.633 24.5256V29H164.833V21.3636H166.553V22.6612H166.643C166.818 22.2337 167.098 21.8939 167.483 21.642C167.871 21.3902 168.349 21.2642 168.92 21.2642C169.447 21.2642 169.906 21.3769 170.297 21.6023C170.691 21.8277 170.996 22.1541 171.211 22.5817C171.43 23.0092 171.538 23.5279 171.535 24.1378V29H169.735V24.4162C169.735 23.9058 169.602 23.5064 169.337 23.218C169.075 22.9297 168.712 22.7855 168.248 22.7855C167.934 22.7855 167.653 22.8551 167.408 22.9943C167.166 23.1302 166.976 23.3274 166.836 23.5859C166.701 23.8445 166.633 24.1577 166.633 24.5256Z" fill="#E8E9EA"/>
<path d="M78.1023 47.9091C78.1023 49.0062 77.8968 49.9458 77.4858 50.728C77.0781 51.5069 76.5213 52.1035 75.8153 52.5178C75.1127 52.9321 74.3156 53.1392 73.424 53.1392C72.5324 53.1392 71.7337 52.9321 71.0277 52.5178C70.325 52.1001 69.7682 51.5019 69.3572 50.723C68.9496 49.9408 68.7457 49.0028 68.7457 47.9091C68.7457 46.812 68.9496 45.8741 69.3572 45.0952C69.7682 44.313 70.325 43.7147 71.0277 43.3004C71.7337 42.8861 72.5324 42.679 73.424 42.679C74.3156 42.679 75.1127 42.8861 75.8153 43.3004C76.5213 43.7147 77.0781 44.313 77.4858 45.0952C77.8968 45.8741 78.1023 46.812 78.1023 47.9091ZM76.2479 47.9091C76.2479 47.1368 76.1269 46.4856 75.8849 45.9553C75.6463 45.4216 75.3149 45.0189 74.8906 44.7472C74.4664 44.4721 73.9775 44.3345 73.424 44.3345C72.8705 44.3345 72.3816 44.4721 71.9574 44.7472C71.5331 45.0189 71.2 45.4216 70.9581 45.9553C70.7195 46.4856 70.6001 47.1368 70.6001 47.9091C70.6001 48.6813 70.7195 49.3343 70.9581 49.8679C71.2 50.3982 71.5331 50.8009 71.9574 51.076C72.3816 51.3478 72.8705 51.4837 73.424 51.4837C73.9775 51.4837 74.4664 51.3478 74.8906 51.076C75.3149 50.8009 75.6463 50.3982 75.8849 49.8679C76.1269 49.3343 76.2479 48.6813 76.2479 47.9091ZM84.6337 49.7884V45.3636H86.4334V53H84.6884V51.6428H84.6088C84.4365 52.0703 84.1531 52.42 83.7587 52.6918C83.3676 52.9635 82.8854 53.0994 82.312 53.0994C81.8115 53.0994 81.369 52.9884 80.9846 52.7663C80.6034 52.541 80.3051 52.2145 80.0897 51.7869C79.8742 51.3561 79.7665 50.8357 79.7665 50.2259V45.3636H81.5662V49.9474C81.5662 50.4313 81.6988 50.8158 81.964 51.1009C82.2291 51.3859 82.5771 51.5284 83.008 51.5284C83.2731 51.5284 83.53 51.4638 83.7786 51.3345C84.0272 51.2053 84.231 51.013 84.3901 50.7578C84.5525 50.4993 84.6337 50.1761 84.6337 49.7884ZM88.2841 53V45.3636H90.0291V46.6364H90.1087C90.2479 46.1955 90.4865 45.8558 90.8246 45.6172C91.166 45.3752 91.5554 45.2543 91.9929 45.2543C92.0923 45.2543 92.2034 45.2592 92.326 45.2692C92.4519 45.2758 92.5563 45.2874 92.6392 45.304V46.9595C92.563 46.933 92.442 46.9098 92.2763 46.8899C92.1139 46.8667 91.9564 46.8551 91.804 46.8551C91.4759 46.8551 91.1809 46.9264 90.919 47.0689C90.6605 47.2081 90.4567 47.402 90.3075 47.6506C90.1584 47.8991 90.0838 48.1858 90.0838 48.5107V53H88.2841ZM99.505 53.1541C99.0211 53.1541 98.5852 53.0679 98.1974 52.8956C97.813 52.7199 97.508 52.4614 97.2827 52.12C97.0606 51.7786 96.9496 51.3577 96.9496 50.8572C96.9496 50.4264 97.0291 50.0701 97.1882 49.7884C97.3473 49.5066 97.5644 49.2812 97.8395 49.1122C98.1146 48.9432 98.4245 48.8156 98.7692 48.7294C99.1172 48.6399 99.4768 48.5753 99.848 48.5355C100.295 48.4891 100.658 48.4477 100.937 48.4112C101.215 48.3714 101.417 48.3118 101.543 48.2322C101.673 48.1494 101.737 48.0218 101.737 47.8494V47.8196C101.737 47.4451 101.626 47.1551 101.404 46.9496C101.182 46.7441 100.862 46.6413 100.445 46.6413C100.004 46.6413 99.6541 46.7375 99.3956 46.9297C99.1404 47.1219 98.968 47.349 98.8786 47.6108L97.1982 47.3722C97.3307 46.9081 97.5495 46.5204 97.8544 46.2088C98.1593 45.8939 98.5322 45.6586 98.973 45.5028C99.4138 45.3438 99.901 45.2642 100.435 45.2642C100.803 45.2642 101.169 45.3073 101.533 45.3935C101.898 45.4796 102.231 45.6222 102.533 45.821C102.834 46.0166 103.076 46.2834 103.259 46.6214C103.444 46.9595 103.537 47.3821 103.537 47.8892V53H101.807V51.951H101.747C101.638 52.1631 101.484 52.362 101.285 52.5476C101.089 52.7299 100.842 52.8774 100.544 52.9901C100.249 53.0994 99.9027 53.1541 99.505 53.1541ZM99.9723 51.8317C100.334 51.8317 100.647 51.7604 100.912 51.6179C101.177 51.4721 101.381 51.2798 101.523 51.0412C101.669 50.8026 101.742 50.5424 101.742 50.2607V49.3608C101.686 49.4072 101.59 49.4503 101.454 49.4901C101.321 49.5298 101.172 49.5646 101.006 49.5945C100.841 49.6243 100.677 49.6508 100.514 49.674C100.352 49.6972 100.211 49.7171 100.092 49.7337C99.8232 49.7701 99.5829 49.8298 99.3707 49.9126C99.1586 49.9955 98.9912 50.1115 98.8686 50.2607C98.746 50.4065 98.6847 50.5954 98.6847 50.8274C98.6847 51.1589 98.8056 51.4091 99.0476 51.5781C99.2895 51.7472 99.5978 51.8317 99.9723 51.8317ZM105.347 55.8636V45.3636H107.116V46.6264H107.221C107.314 46.4408 107.445 46.2436 107.614 46.0348C107.783 45.8227 108.011 45.642 108.3 45.4929C108.588 45.3404 108.956 45.2642 109.403 45.2642C109.993 45.2642 110.525 45.415 110.999 45.7166C111.477 46.0149 111.854 46.4574 112.133 47.044C112.415 47.6274 112.555 48.3433 112.555 49.1918C112.555 50.0303 112.418 50.7429 112.143 51.3295C111.868 51.9162 111.493 52.3636 111.019 52.6719C110.545 52.9801 110.008 53.1342 109.408 53.1342C108.971 53.1342 108.608 53.0613 108.32 52.9155C108.031 52.7696 107.799 52.594 107.624 52.3885C107.451 52.1797 107.317 51.9825 107.221 51.7969H107.146V55.8636H105.347ZM107.112 49.1818C107.112 49.6757 107.181 50.1082 107.32 50.4794C107.463 50.8506 107.667 51.1406 107.932 51.3494C108.2 51.5549 108.525 51.6577 108.906 51.6577C109.304 51.6577 109.637 51.5516 109.906 51.3395C110.174 51.1241 110.376 50.8307 110.512 50.4595C110.651 50.085 110.721 49.6591 110.721 49.1818C110.721 48.7079 110.653 48.2869 110.517 47.919C110.381 47.5511 110.179 47.2628 109.911 47.054C109.642 46.8452 109.307 46.7408 108.906 46.7408C108.522 46.7408 108.195 46.8419 107.927 47.044C107.658 47.2462 107.455 47.5296 107.315 47.8942C107.179 48.2588 107.112 48.688 107.112 49.1818ZM114.097 55.8636V45.3636H115.866V46.6264H115.971C116.064 46.4408 116.195 46.2436 116.364 46.0348C116.533 45.8227 116.761 45.642 117.05 45.4929C117.338 45.3404 117.706 45.2642 118.153 45.2642C118.743 45.2642 119.275 45.415 119.749 45.7166C120.227 46.0149 120.604 46.4574 120.883 47.044C121.165 47.6274 121.305 48.3433 121.305 49.1918C121.305 50.0303 121.168 50.7429 120.893 51.3295C120.618 51.9162 120.243 52.3636 119.769 52.6719C119.295 52.9801 118.758 53.1342 118.158 53.1342C117.721 53.1342 117.358 53.0613 117.07 52.9155C116.781 52.7696 116.549 52.594 116.374 52.3885C116.201 52.1797 116.067 51.9825 115.971 51.7969H115.896V55.8636H114.097ZM115.862 49.1818C115.862 49.6757 115.931 50.1082 116.07 50.4794C116.213 50.8506 116.417 51.1406 116.682 51.3494C116.95 51.5549 117.275 51.6577 117.656 51.6577C118.054 51.6577 118.387 51.5516 118.656 51.3395C118.924 51.1241 119.126 50.8307 119.262 50.4595C119.401 50.085 119.471 49.6591 119.471 49.1818C119.471 48.7079 119.403 48.2869 119.267 47.919C119.131 47.5511 118.929 47.2628 118.661 47.054C118.392 46.8452 118.057 46.7408 117.656 46.7408C117.272 46.7408 116.945 46.8419 116.677 47.044C116.408 47.2462 116.205 47.5296 116.065 47.8942C115.929 48.2588 115.862 48.688 115.862 49.1818ZM122.847 53V45.3636H124.592V46.6364H124.671C124.81 46.1955 125.049 45.8558 125.387 45.6172C125.728 45.3752 126.118 45.2543 126.555 45.2543C126.655 45.2543 126.766 45.2592 126.888 45.2692C127.014 45.2758 127.119 45.2874 127.202 45.304V46.9595C127.125 46.933 127.004 46.9098 126.839 46.8899C126.676 46.8667 126.519 46.8551 126.366 46.8551C126.038 46.8551 125.743 46.9264 125.482 47.0689C125.223 47.2081 125.019 47.402 124.87 47.6506C124.721 47.8991 124.646 48.1858 124.646 48.5107V53H122.847ZM131.414 53.1491C130.668 53.1491 130.022 52.9851 129.475 52.657C128.928 52.3288 128.504 51.8698 128.202 51.2798C127.904 50.6899 127.755 50.0005 127.755 49.2116C127.755 48.4228 127.904 47.7318 128.202 47.1385C128.504 46.5452 128.928 46.0845 129.475 45.7564C130.022 45.4283 130.668 45.2642 131.414 45.2642C132.16 45.2642 132.806 45.4283 133.353 45.7564C133.9 46.0845 134.322 46.5452 134.621 47.1385C134.922 47.7318 135.073 48.4228 135.073 49.2116C135.073 50.0005 134.922 50.6899 134.621 51.2798C134.322 51.8698 133.9 52.3288 133.353 52.657C132.806 52.9851 132.16 53.1491 131.414 53.1491ZM131.424 51.7074C131.828 51.7074 132.166 51.5964 132.438 51.3743C132.71 51.1489 132.912 50.8473 133.045 50.4695C133.18 50.0916 133.248 49.6707 133.248 49.2067C133.248 48.7393 133.18 48.3168 133.045 47.9389C132.912 47.5578 132.71 47.2545 132.438 47.0291C132.166 46.8037 131.828 46.6911 131.424 46.6911C131.01 46.6911 130.665 46.8037 130.39 47.0291C130.118 47.2545 129.914 47.5578 129.778 47.9389C129.646 48.3168 129.579 48.7393 129.579 49.2067C129.579 49.6707 129.646 50.0916 129.778 50.4695C129.914 50.8473 130.118 51.1489 130.39 51.3743C130.665 51.5964 131.01 51.7074 131.424 51.7074ZM138.798 53.1541C138.314 53.1541 137.878 53.0679 137.49 52.8956C137.106 52.7199 136.801 52.4614 136.576 52.12C136.354 51.7786 136.243 51.3577 136.243 50.8572C136.243 50.4264 136.322 50.0701 136.481 49.7884C136.64 49.5066 136.857 49.2812 137.132 49.1122C137.408 48.9432 137.717 48.8156 138.062 48.7294C138.41 48.6399 138.77 48.5753 139.141 48.5355C139.588 48.4891 139.951 48.4477 140.23 48.4112C140.508 48.3714 140.71 48.3118 140.836 48.2322C140.966 48.1494 141.03 48.0218 141.03 47.8494V47.8196C141.03 47.4451 140.919 47.1551 140.697 46.9496C140.475 46.7441 140.155 46.6413 139.738 46.6413C139.297 46.6413 138.947 46.7375 138.689 46.9297C138.433 47.1219 138.261 47.349 138.172 47.6108L136.491 47.3722C136.624 46.9081 136.842 46.5204 137.147 46.2088C137.452 45.8939 137.825 45.6586 138.266 45.5028C138.707 45.3438 139.194 45.2642 139.728 45.2642C140.096 45.2642 140.462 45.3073 140.826 45.3935C141.191 45.4796 141.524 45.6222 141.826 45.821C142.127 46.0166 142.369 46.2834 142.551 46.6214C142.737 46.9595 142.83 47.3821 142.83 47.8892V53H141.1V51.951H141.04C140.931 52.1631 140.777 52.362 140.578 52.5476C140.382 52.7299 140.135 52.8774 139.837 52.9901C139.542 53.0994 139.196 53.1541 138.798 53.1541ZM139.265 51.8317C139.627 51.8317 139.94 51.7604 140.205 51.6179C140.47 51.4721 140.674 51.2798 140.816 51.0412C140.962 50.8026 141.035 50.5424 141.035 50.2607V49.3608C140.979 49.4072 140.883 49.4503 140.747 49.4901C140.614 49.5298 140.465 49.5646 140.299 49.5945C140.134 49.6243 139.97 49.6508 139.807 49.674C139.645 49.6972 139.504 49.7171 139.385 49.7337C139.116 49.7701 138.876 49.8298 138.664 49.9126C138.452 49.9955 138.284 50.1115 138.162 50.2607C138.039 50.4065 137.978 50.5954 137.978 50.8274C137.978 51.1589 138.099 51.4091 138.341 51.5781C138.583 51.7472 138.891 51.8317 139.265 51.8317ZM147.971 53.1491C147.208 53.1491 146.554 52.9818 146.007 52.647C145.463 52.3123 145.044 51.8499 144.749 51.2599C144.457 50.6667 144.311 49.9839 144.311 49.2116C144.311 48.4361 144.461 47.7517 144.759 47.1584C145.057 46.5618 145.478 46.0978 146.022 45.7663C146.569 45.4316 147.215 45.2642 147.961 45.2642C148.58 45.2642 149.129 45.3786 149.606 45.6072C150.087 45.8326 150.47 46.1525 150.755 46.5668C151.04 46.9777 151.202 47.4583 151.242 48.0085H149.522C149.452 47.6406 149.286 47.334 149.025 47.0888C148.766 46.8402 148.42 46.7159 147.985 46.7159C147.618 46.7159 147.294 46.8153 147.016 47.0142C146.738 47.2098 146.52 47.4915 146.365 47.8594C146.212 48.2273 146.136 48.6681 146.136 49.1818C146.136 49.7022 146.212 50.1496 146.365 50.5241C146.517 50.8954 146.731 51.1821 147.006 51.3842C147.284 51.5831 147.611 51.6825 147.985 51.6825C148.251 51.6825 148.488 51.6328 148.696 51.5334C148.908 51.4306 149.086 51.2831 149.228 51.0909C149.371 50.8987 149.469 50.665 149.522 50.3899H151.242C151.199 50.9302 151.04 51.4091 150.765 51.8267C150.489 52.241 150.115 52.5658 149.641 52.8011C149.167 53.0331 148.61 53.1491 147.971 53.1491ZM154.519 48.5256V53H152.72V42.8182H154.48V46.6612H154.569C154.748 46.2304 155.025 45.8906 155.399 45.642C155.777 45.3902 156.258 45.2642 156.841 45.2642C157.371 45.2642 157.834 45.3752 158.228 45.5973C158.623 45.8194 158.927 46.1442 159.143 46.5717C159.362 46.9993 159.471 47.5213 159.471 48.1378V53H157.671V48.4162C157.671 47.9025 157.539 47.5031 157.274 47.218C157.012 46.9297 156.644 46.7855 156.17 46.7855C155.852 46.7855 155.567 46.8551 155.315 46.9943C155.066 47.1302 154.871 47.3274 154.728 47.5859C154.589 47.8445 154.519 48.1577 154.519 48.5256Z" fill="#C5C7CB"/>
<path d="M28.4545 89H25.0043V78.8182H28.5241C29.535 78.8182 30.4034 79.022 31.1293 79.4297C31.8584 79.834 32.4186 80.4157 32.8097 81.1747C33.2008 81.9337 33.3963 82.8419 33.3963 83.8991C33.3963 84.9598 33.1991 85.8712 32.8047 86.6335C32.4136 87.3958 31.8485 87.9808 31.1094 88.3885C30.3736 88.7962 29.4886 89 28.4545 89ZM26.8487 87.4041H28.3651C29.0743 87.4041 29.666 87.2749 30.1399 87.0163C30.6139 86.7545 30.9702 86.3651 31.2088 85.848C31.4474 85.3277 31.5668 84.678 31.5668 83.8991C31.5668 83.1203 31.4474 82.474 31.2088 81.9602C30.9702 81.4432 30.6172 81.0571 30.1499 80.8018C29.6858 80.5433 29.1091 80.4141 28.4197 80.4141H26.8487V87.4041ZM36.1879 91.8636C35.9426 91.8636 35.7156 91.8438 35.5067 91.804C35.3013 91.7675 35.1372 91.7244 35.0146 91.6747L35.4322 90.2727C35.694 90.349 35.9277 90.3854 36.1332 90.3821C36.3387 90.3788 36.5193 90.3142 36.6751 90.1882C36.8342 90.0656 36.9684 89.8601 37.0778 89.5717L37.2319 89.1591L34.4627 81.3636H36.3718L38.1317 87.1307H38.2113L39.9762 81.3636H41.8903L38.8327 89.9247C38.6902 90.3291 38.5013 90.6754 38.266 90.9638C38.0307 91.2554 37.7423 91.4775 37.4009 91.63C37.0629 91.7857 36.6585 91.8636 36.1879 91.8636ZM44.9354 84.5256V89H43.1357V81.3636H44.8558V82.6612H44.9453C45.121 82.2337 45.401 81.8939 45.7855 81.642C46.1733 81.3902 46.6522 81.2642 47.2223 81.2642C47.7493 81.2642 48.2083 81.3769 48.5994 81.6023C48.9938 81.8277 49.2988 82.1541 49.5142 82.5817C49.733 83.0092 49.8407 83.5279 49.8374 84.1378V89H48.0376V84.4162C48.0376 83.9058 47.9051 83.5064 47.6399 83.218C47.3781 82.9297 47.0152 82.7855 46.5511 82.7855C46.2363 82.7855 45.9562 82.8551 45.7109 82.9943C45.469 83.1302 45.2784 83.3274 45.1392 83.5859C45.0033 83.8445 44.9354 84.1577 44.9354 84.5256ZM53.8643 89.1541C53.3804 89.1541 52.9446 89.0679 52.5568 88.8956C52.1723 88.7199 51.8674 88.4614 51.642 88.12C51.42 87.7786 51.3089 87.3577 51.3089 86.8572C51.3089 86.4264 51.3885 86.0701 51.5476 85.7884C51.7067 85.5066 51.9238 85.2812 52.1989 85.1122C52.474 84.9432 52.7839 84.8156 53.1286 84.7294C53.4766 84.6399 53.8362 84.5753 54.2074 84.5355C54.6548 84.4891 55.0178 84.4477 55.2962 84.4112C55.5746 84.3714 55.7768 84.3118 55.9027 84.2322C56.032 84.1494 56.0966 84.0218 56.0966 83.8494V83.8196C56.0966 83.4451 55.9856 83.1551 55.7635 82.9496C55.5414 82.7441 55.2216 82.6413 54.804 82.6413C54.3632 82.6413 54.0135 82.7375 53.755 82.9297C53.4998 83.1219 53.3274 83.349 53.2379 83.6108L51.5575 83.3722C51.6901 82.9081 51.9089 82.5204 52.2138 82.2088C52.5187 81.8939 52.8916 81.6586 53.3324 81.5028C53.7732 81.3438 54.2604 81.2642 54.794 81.2642C55.1619 81.2642 55.5282 81.3073 55.8928 81.3935C56.2573 81.4796 56.5904 81.6222 56.892 81.821C57.1937 82.0166 57.4356 82.2834 57.6179 82.6214C57.8035 82.9595 57.8963 83.3821 57.8963 83.8892V89H56.1662V87.951H56.1065C55.9972 88.1631 55.843 88.362 55.6442 88.5476C55.4486 88.7299 55.2017 88.8774 54.9034 88.9901C54.6084 89.0994 54.2621 89.1541 53.8643 89.1541ZM54.3317 87.8317C54.6929 87.8317 55.0062 87.7604 55.2713 87.6179C55.5365 87.4721 55.7403 87.2798 55.8828 87.0412C56.0286 86.8026 56.1016 86.5424 56.1016 86.2607V85.3608C56.0452 85.4072 55.9491 85.4503 55.8132 85.4901C55.6806 85.5298 55.5315 85.5646 55.3658 85.5945C55.2 85.6243 55.036 85.6508 54.8736 85.674C54.7112 85.6972 54.5703 85.7171 54.451 85.7337C54.1825 85.7701 53.9422 85.8298 53.7301 85.9126C53.518 85.9955 53.3506 86.1115 53.228 86.2607C53.1054 86.4065 53.044 86.5954 53.044 86.8274C53.044 87.1589 53.165 87.4091 53.407 87.5781C53.6489 87.7472 53.9571 87.8317 54.3317 87.8317ZM59.706 89V81.3636H61.4261V82.6612H61.5156C61.6747 82.2237 61.9382 81.8823 62.3061 81.6371C62.674 81.3885 63.1132 81.2642 63.6236 81.2642C64.1406 81.2642 64.5765 81.3902 64.9311 81.642C65.2891 81.8906 65.541 82.2304 65.6868 82.6612H65.7663C65.9354 82.237 66.2204 81.8989 66.6214 81.647C67.0258 81.3918 67.5047 81.2642 68.0582 81.2642C68.7609 81.2642 69.3343 81.4863 69.7784 81.9304C70.2225 82.3745 70.4446 83.0225 70.4446 83.8743V89H68.6399V84.1527C68.6399 83.6787 68.514 83.3324 68.2621 83.1136C68.0102 82.8916 67.7019 82.7805 67.3374 82.7805C66.9032 82.7805 66.5634 82.9164 66.3182 83.1882C66.0762 83.4567 65.9553 83.8063 65.9553 84.2372V89H64.1903V84.0781C64.1903 83.6837 64.071 83.3688 63.8324 83.1335C63.5971 82.8982 63.2888 82.7805 62.9077 82.7805C62.6491 82.7805 62.4138 82.8468 62.2017 82.9794C61.9896 83.1087 61.8205 83.2926 61.6946 83.5312C61.5687 83.7666 61.5057 84.0417 61.5057 84.3565V89H59.706ZM72.2704 89V81.3636H74.0701V89H72.2704ZM73.1752 80.2798C72.8902 80.2798 72.6449 80.1854 72.4395 79.9964C72.234 79.8042 72.1312 79.5739 72.1312 79.3054C72.1312 79.0336 72.234 78.8033 72.4395 78.6143C72.6449 78.4221 72.8902 78.326 73.1752 78.326C73.4636 78.326 73.7089 78.4221 73.911 78.6143C74.1165 78.8033 74.2193 79.0336 74.2193 79.3054C74.2193 79.5739 74.1165 79.8042 73.911 79.9964C73.7089 80.1854 73.4636 80.2798 73.1752 80.2798ZM79.2518 89.1491C78.4895 89.1491 77.8349 88.9818 77.288 88.647C76.7444 88.3123 76.3252 87.8499 76.0302 87.2599C75.7385 86.6667 75.5927 85.9839 75.5927 85.2116C75.5927 84.4361 75.7418 83.7517 76.0401 83.1584C76.3384 82.5618 76.7594 82.0978 77.3029 81.7663C77.8498 81.4316 78.4961 81.2642 79.2418 81.2642C79.8616 81.2642 80.4102 81.3786 80.8874 81.6072C81.368 81.8326 81.7508 82.1525 82.0359 82.5668C82.3209 82.9777 82.4833 83.4583 82.5231 84.0085H80.8029C80.7333 83.6406 80.5676 83.334 80.3058 83.0888C80.0472 82.8402 79.7009 82.7159 79.2667 82.7159C78.8988 82.7159 78.5756 82.8153 78.2972 83.0142C78.0188 83.2098 77.8017 83.4915 77.646 83.8594C77.4935 84.2273 77.4173 84.6681 77.4173 85.1818C77.4173 85.7022 77.4935 86.1496 77.646 86.5241C77.7984 86.8954 78.0122 87.1821 78.2873 87.3842C78.5657 87.5831 78.8922 87.6825 79.2667 87.6825C79.5318 87.6825 79.7688 87.6328 79.9776 87.5334C80.1897 87.4306 80.3671 87.2831 80.5096 87.0909C80.6521 86.8987 80.7499 86.665 80.8029 86.3899H82.5231C82.48 86.9302 82.3209 87.4091 82.0458 87.8267C81.7707 88.241 81.3962 88.5658 80.9222 88.8011C80.4483 89.0331 79.8915 89.1491 79.2518 89.1491ZM87.4735 89V81.3636H89.2186V82.6364H89.2981C89.4373 82.1955 89.676 81.8558 90.014 81.6172C90.3554 81.3752 90.7449 81.2543 91.1824 81.2543C91.2818 81.2543 91.3928 81.2592 91.5154 81.2692C91.6414 81.2758 91.7458 81.2874 91.8287 81.304V82.9595C91.7524 82.933 91.6315 82.9098 91.4657 82.8899C91.3033 82.8667 91.1459 82.8551 90.9934 82.8551C90.6653 82.8551 90.3703 82.9264 90.1085 83.0689C89.85 83.2081 89.6461 83.402 89.497 83.6506C89.3478 83.8991 89.2733 84.1858 89.2733 84.5107V89H87.4735ZM96.0906 89.1491C95.3249 89.1491 94.6637 88.9901 94.1069 88.6719C93.5534 88.3504 93.1275 87.8963 92.8292 87.3097C92.5309 86.7197 92.3817 86.0253 92.3817 85.2266C92.3817 84.4411 92.5309 83.7517 92.8292 83.1584C93.1308 82.5618 93.5517 82.0978 94.092 81.7663C94.6322 81.4316 95.2669 81.2642 95.9961 81.2642C96.4667 81.2642 96.9109 81.3404 97.3285 81.4929C97.7494 81.642 98.1206 81.8741 98.4421 82.1889C98.7669 82.5038 99.0221 82.9048 99.2077 83.392C99.3933 83.8759 99.4862 84.4527 99.4862 85.1222V85.674H93.2269V84.4609H97.761C97.7577 84.1162 97.6831 83.8097 97.5373 83.5412C97.3915 83.2694 97.1876 83.0556 96.9258 82.8999C96.6673 82.7441 96.3656 82.6662 96.021 82.6662C95.6531 82.6662 95.3299 82.7557 95.0515 82.9347C94.7731 83.1103 94.556 83.3423 94.4002 83.6307C94.2478 83.9157 94.1699 84.2289 94.1665 84.5703V85.6293C94.1665 86.0734 94.2478 86.4545 94.4102 86.7727C94.5726 87.0876 94.7996 87.3295 95.0913 87.4986C95.3829 87.6643 95.7243 87.7472 96.1154 87.7472C96.3772 87.7472 96.6142 87.7107 96.8263 87.6378C97.0385 87.5616 97.2224 87.4505 97.3782 87.3047C97.534 87.1589 97.6516 86.9782 97.7312 86.7628L99.4116 86.9517C99.3055 87.3958 99.1033 87.7836 98.805 88.1151C98.5101 88.4432 98.1322 88.6984 97.6715 88.8807C97.2108 89.0597 96.6838 89.1491 96.0906 89.1491ZM107.044 83.3821L105.404 83.5611C105.357 83.3954 105.276 83.2396 105.16 83.0938C105.047 82.9479 104.895 82.8303 104.703 82.7408C104.51 82.6513 104.275 82.6065 103.997 82.6065C103.622 82.6065 103.307 82.6877 103.052 82.8501C102.8 83.0125 102.676 83.223 102.679 83.4815C102.676 83.7036 102.757 83.8842 102.923 84.0234C103.092 84.1626 103.37 84.277 103.758 84.3665L105.061 84.6449C105.783 84.8007 106.32 85.0476 106.671 85.3857C107.026 85.7237 107.205 86.1662 107.208 86.7131C107.205 87.1937 107.064 87.6179 106.786 87.9858C106.511 88.3504 106.128 88.6354 105.637 88.8409C105.147 89.0464 104.583 89.1491 103.947 89.1491C103.012 89.1491 102.26 88.9536 101.69 88.5625C101.12 88.1681 100.78 87.6196 100.671 86.9169L102.426 86.7479C102.505 87.0926 102.674 87.3527 102.933 87.5284C103.191 87.7041 103.528 87.7919 103.942 87.7919C104.369 87.7919 104.713 87.7041 104.971 87.5284C105.233 87.3527 105.364 87.1357 105.364 86.8771C105.364 86.6584 105.279 86.4777 105.11 86.3352C104.945 86.1927 104.686 86.0833 104.335 86.0071L103.032 85.7337C102.3 85.5812 101.758 85.3243 101.406 84.9631C101.055 84.5985 100.881 84.1378 100.884 83.581C100.881 83.1103 101.009 82.7027 101.267 82.358C101.529 82.0099 101.892 81.7415 102.356 81.5526C102.823 81.3603 103.362 81.2642 103.972 81.2642C104.867 81.2642 105.571 81.4548 106.085 81.8359C106.602 82.2171 106.922 82.7325 107.044 83.3821ZM108.692 91.8636V81.3636H110.462V82.6264H110.567C110.659 82.4408 110.79 82.2436 110.959 82.0348C111.128 81.8227 111.357 81.642 111.645 81.4929C111.934 81.3404 112.302 81.2642 112.749 81.2642C113.339 81.2642 113.871 81.415 114.345 81.7166C114.822 82.0149 115.2 82.4574 115.479 83.044C115.76 83.6274 115.901 84.3433 115.901 85.1918C115.901 86.0303 115.764 86.7429 115.488 87.3295C115.213 87.9162 114.839 88.3636 114.365 88.6719C113.891 88.9801 113.354 89.1342 112.754 89.1342C112.317 89.1342 111.954 89.0613 111.665 88.9155C111.377 88.7696 111.145 88.594 110.969 88.3885C110.797 88.1797 110.663 87.9825 110.567 87.7969H110.492V91.8636H108.692ZM110.457 85.1818C110.457 85.6757 110.527 86.1082 110.666 86.4794C110.809 86.8506 111.012 87.1406 111.278 87.3494C111.546 87.5549 111.871 87.6577 112.252 87.6577C112.65 87.6577 112.983 87.5516 113.251 87.3395C113.52 87.1241 113.722 86.8307 113.858 86.4595C113.997 86.085 114.067 85.6591 114.067 85.1818C114.067 84.7079 113.999 84.2869 113.863 83.919C113.727 83.5511 113.525 83.2628 113.256 83.054C112.988 82.8452 112.653 82.7408 112.252 82.7408C111.867 82.7408 111.541 82.8419 111.273 83.044C111.004 83.2462 110.8 83.5296 110.661 83.8942C110.525 84.2588 110.457 84.688 110.457 85.1818ZM120.773 89.1491C120.028 89.1491 119.381 88.9851 118.834 88.657C118.287 88.3288 117.863 87.8698 117.562 87.2798C117.263 86.6899 117.114 86.0005 117.114 85.2116C117.114 84.4228 117.263 83.7318 117.562 83.1385C117.863 82.5452 118.287 82.0845 118.834 81.7564C119.381 81.4283 120.028 81.2642 120.773 81.2642C121.519 81.2642 122.165 81.4283 122.712 81.7564C123.259 82.0845 123.682 82.5452 123.98 83.1385C124.282 83.7318 124.432 84.4228 124.432 85.2116C124.432 86.0005 124.282 86.6899 123.98 87.2798C123.682 87.8698 123.259 88.3288 122.712 88.657C122.165 88.9851 121.519 89.1491 120.773 89.1491ZM120.783 87.7074C121.188 87.7074 121.526 87.5964 121.797 87.3743C122.069 87.1489 122.271 86.8473 122.404 86.4695C122.54 86.0916 122.608 85.6707 122.608 85.2067C122.608 84.7393 122.54 84.3168 122.404 83.9389C122.271 83.5578 122.069 83.2545 121.797 83.0291C121.526 82.8037 121.188 82.6911 120.783 82.6911C120.369 82.6911 120.024 82.8037 119.749 83.0291C119.477 83.2545 119.273 83.5578 119.138 83.9389C119.005 84.3168 118.939 84.7393 118.939 85.2067C118.939 85.6707 119.005 86.0916 119.138 86.4695C119.273 86.8473 119.477 87.1489 119.749 87.3743C120.024 87.5964 120.369 87.7074 120.783 87.7074ZM127.76 84.5256V89H125.96V81.3636H127.68V82.6612H127.77C127.945 82.2337 128.225 81.8939 128.61 81.642C128.998 81.3902 129.476 81.2642 130.047 81.2642C130.574 81.2642 131.033 81.3769 131.424 81.6023C131.818 81.8277 132.123 82.1541 132.338 82.5817C132.557 83.0092 132.665 83.5279 132.662 84.1378V89H130.862V84.4162C130.862 83.9058 130.729 83.5064 130.464 83.218C130.202 82.9297 129.839 82.7855 129.375 82.7855C129.06 82.7855 128.78 82.8551 128.535 82.9943C128.293 83.1302 128.103 83.3274 127.963 83.5859C127.828 83.8445 127.76 84.1577 127.76 84.5256ZM140.527 83.3821L138.886 83.5611C138.84 83.3954 138.758 83.2396 138.642 83.0938C138.53 82.9479 138.377 82.8303 138.185 82.7408C137.993 82.6513 137.757 82.6065 137.479 82.6065C137.105 82.6065 136.79 82.6877 136.534 82.8501C136.283 83.0125 136.158 83.223 136.162 83.4815C136.158 83.7036 136.239 83.8842 136.405 84.0234C136.574 84.1626 136.853 84.277 137.24 84.3665L138.543 84.6449C139.266 84.8007 139.802 85.0476 140.154 85.3857C140.508 85.7237 140.687 86.1662 140.691 86.7131C140.687 87.1937 140.547 87.6179 140.268 87.9858C139.993 88.3504 139.61 88.6354 139.12 88.8409C138.629 89.0464 138.066 89.1491 137.429 89.1491C136.495 89.1491 135.742 88.9536 135.172 88.5625C134.602 88.1681 134.262 87.6196 134.153 86.9169L135.908 86.7479C135.988 87.0926 136.157 87.3527 136.415 87.5284C136.674 87.7041 137.01 87.7919 137.424 87.7919C137.852 87.7919 138.195 87.7041 138.453 87.5284C138.715 87.3527 138.846 87.1357 138.846 86.8771C138.846 86.6584 138.762 86.4777 138.593 86.3352C138.427 86.1927 138.168 86.0833 137.817 86.0071L136.515 85.7337C135.782 85.5812 135.24 85.3243 134.889 84.9631C134.538 84.5985 134.364 84.1378 134.367 83.581C134.364 83.1103 134.491 82.7027 134.75 82.358C135.011 82.0099 135.374 81.7415 135.838 81.5526C136.306 81.3603 136.844 81.2642 137.454 81.2642C138.349 81.2642 139.053 81.4548 139.567 81.8359C140.084 82.2171 140.404 82.7325 140.527 83.3821ZM145.555 89.1491C144.79 89.1491 144.129 88.9901 143.572 88.6719C143.018 88.3504 142.592 87.8963 142.294 87.3097C141.996 86.7197 141.847 86.0253 141.847 85.2266C141.847 84.4411 141.996 83.7517 142.294 83.1584C142.596 82.5618 143.017 82.0978 143.557 81.7663C144.097 81.4316 144.732 81.2642 145.461 81.2642C145.932 81.2642 146.376 81.3404 146.793 81.4929C147.214 81.642 147.585 81.8741 147.907 82.1889C148.232 82.5038 148.487 82.9048 148.673 83.392C148.858 83.8759 148.951 84.4527 148.951 85.1222V85.674H142.692V84.4609H147.226C147.223 84.1162 147.148 83.8097 147.002 83.5412C146.856 83.2694 146.652 83.0556 146.391 82.8999C146.132 82.7441 145.83 82.6662 145.486 82.6662C145.118 82.6662 144.795 82.7557 144.516 82.9347C144.238 83.1103 144.021 83.3423 143.865 83.6307C143.713 83.9157 143.635 84.2289 143.631 84.5703V85.6293C143.631 86.0734 143.713 86.4545 143.875 86.7727C144.037 87.0876 144.264 87.3295 144.556 87.4986C144.848 87.6643 145.189 87.7472 145.58 87.7472C145.842 87.7472 146.079 87.7107 146.291 87.6378C146.503 87.5616 146.687 87.4505 146.843 87.3047C146.999 87.1589 147.116 86.9782 147.196 86.7628L148.876 86.9517C148.77 87.3958 148.568 87.7836 148.27 88.1151C147.975 88.4432 147.597 88.6984 147.136 88.8807C146.676 89.0597 146.149 89.1491 145.555 89.1491ZM151.582 89.1094C151.281 89.1094 151.022 89.0033 150.807 88.7912C150.591 88.5791 150.485 88.3205 150.488 88.0156C150.485 87.7173 150.591 87.4621 150.807 87.25C151.022 87.0379 151.281 86.9318 151.582 86.9318C151.874 86.9318 152.127 87.0379 152.343 87.25C152.562 87.4621 152.673 87.7173 152.676 88.0156C152.673 88.2178 152.62 88.4018 152.517 88.5675C152.417 88.7332 152.285 88.8658 152.119 88.9652C151.957 89.0613 151.778 89.1094 151.582 89.1094ZM151.582 83.6605C151.281 83.6605 151.022 83.5545 150.807 83.3423C150.591 83.1269 150.485 82.8684 150.488 82.5668C150.485 82.2685 150.591 82.0133 150.807 81.8011C151.022 81.5857 151.281 81.478 151.582 81.478C151.874 81.478 152.127 81.5857 152.343 81.8011C152.562 82.0133 152.673 82.2685 152.676 82.5668C152.673 82.7656 152.62 82.9479 152.517 83.1136C152.417 83.2794 152.285 83.4119 152.119 83.5114C151.957 83.6108 151.778 83.6605 151.582 83.6605Z" fill="#C5C7CB"/>
<path d="M38.066 128.267L44.966 120H39.6326L40.5993 112.433L34.4326 121.333H39.066L38.066 128.267ZM35.9993 124H31.866C31.3326 124 30.9382 123.761 30.6826 123.283C30.4271 122.806 30.4549 122.345 30.766 121.9L40.7326 107.567C40.9549 107.256 41.2438 107.039 41.5993 106.917C41.9549 106.795 42.3215 106.8 42.6993 106.933C43.0771 107.067 43.3549 107.3 43.5326 107.633C43.7104 107.967 43.7771 108.322 43.7326 108.7L42.666 117.333H47.8326C48.4104 117.333 48.816 117.589 49.0493 118.1C49.2826 118.611 49.2104 119.089 48.8326 119.533L37.866 132.667C37.6215 132.956 37.3215 133.145 36.966 133.233C36.6104 133.322 36.266 133.289 35.9326 133.133C35.5993 132.978 35.3382 132.739 35.1493 132.417C34.9604 132.095 34.8882 131.745 34.9326 131.367L35.9993 124Z" fill="url(#paint2_linear_878_4834)"/>
<path d="M62 120H198.75" stroke="url(#paint3_linear_878_4834)" stroke-width="3" stroke-linecap="round"/>
<rect x="204.75" y="104" width="32" height="32" rx="16" fill="url(#paint4_linear_878_4834)"/>
<path d="M215.011 126H213.148L217.335 114.364H219.364L223.551 126H221.688L218.398 116.477H218.307L215.011 126ZM215.324 121.443H221.369V122.92H215.324V121.443ZM227.137 114.364V126H225.382V114.364H227.137Z" fill="#E8E9EA"/>
<path d="M34.5025 163.131C34.1014 163.131 33.7352 163.033 33.4038 162.837C33.0723 162.638 32.8072 162.373 32.6083 162.042C32.4128 161.71 32.315 161.344 32.315 160.943C32.315 160.539 32.4128 160.173 32.6083 159.844C32.8072 159.513 33.0723 159.25 33.4038 159.054C33.7352 158.855 34.1014 158.756 34.5025 158.756C34.9068 158.756 35.2731 158.855 35.6012 159.054C35.9326 159.25 36.1961 159.513 36.3917 159.844C36.5906 160.173 36.69 160.539 36.69 160.943C36.69 161.344 36.5906 161.71 36.3917 162.042C36.1961 162.373 35.9326 162.638 35.6012 162.837C35.2731 163.033 34.9068 163.131 34.5025 163.131ZM54.7195 158.254H52.8601C52.8071 157.949 52.7093 157.679 52.5668 157.443C52.4242 157.205 52.2469 157.002 52.0348 156.837C51.8227 156.671 51.5807 156.547 51.3089 156.464C51.0405 156.378 50.7505 156.335 50.4389 156.335C49.8854 156.335 49.3949 156.474 48.9673 156.752C48.5398 157.027 48.205 157.432 47.9631 157.965C47.7211 158.496 47.6001 159.143 47.6001 159.909C47.6001 160.688 47.7211 161.344 47.9631 161.878C48.2083 162.408 48.5431 162.809 48.9673 163.081C49.3949 163.349 49.8838 163.484 50.4339 163.484C50.7389 163.484 51.0239 163.444 51.2891 163.364C51.5575 163.281 51.7978 163.161 52.0099 163.001C52.2254 162.842 52.406 162.647 52.5518 162.415C52.701 162.183 52.8037 161.918 52.8601 161.619L54.7195 161.629C54.6499 162.113 54.4991 162.567 54.267 162.991C54.0384 163.416 53.7384 163.79 53.3672 164.115C52.996 164.437 52.5618 164.688 52.0646 164.871C51.5675 165.05 51.0156 165.139 50.4091 165.139C49.5142 165.139 48.7154 164.932 48.0128 164.518C47.3101 164.103 46.7566 163.505 46.3523 162.723C45.9479 161.941 45.7457 161.003 45.7457 159.909C45.7457 158.812 45.9496 157.874 46.3572 157.095C46.7649 156.313 47.3201 155.715 48.0227 155.3C48.7254 154.886 49.5208 154.679 50.4091 154.679C50.9759 154.679 51.5028 154.759 51.9901 154.918C52.4773 155.077 52.9115 155.31 53.2926 155.619C53.6738 155.924 53.987 156.298 54.2322 156.742C54.4808 157.183 54.6432 157.687 54.7195 158.254ZM59.66 165.149C58.9142 165.149 58.2679 164.985 57.7211 164.657C57.1742 164.329 56.7499 163.87 56.4483 163.28C56.15 162.69 56.0009 162 56.0009 161.212C56.0009 160.423 56.15 159.732 56.4483 159.138C56.7499 158.545 57.1742 158.085 57.7211 157.756C58.2679 157.428 58.9142 157.264 59.66 157.264C60.4057 157.264 61.052 157.428 61.5989 157.756C62.1458 158.085 62.5684 158.545 62.8667 159.138C63.1683 159.732 63.3191 160.423 63.3191 161.212C63.3191 162 63.1683 162.69 62.8667 163.28C62.5684 163.87 62.1458 164.329 61.5989 164.657C61.052 164.985 60.4057 165.149 59.66 165.149ZM59.6699 163.707C60.0743 163.707 60.4123 163.596 60.6841 163.374C60.9559 163.149 61.1581 162.847 61.2907 162.469C61.4266 162.092 61.4945 161.671 61.4945 161.207C61.4945 160.739 61.4266 160.317 61.2907 159.939C61.1581 159.558 60.9559 159.254 60.6841 159.029C60.4123 158.804 60.0743 158.691 59.6699 158.691C59.2556 158.691 58.9109 158.804 58.6358 159.029C58.3641 159.254 58.1602 159.558 58.0243 159.939C57.8917 160.317 57.8255 160.739 57.8255 161.207C57.8255 161.671 57.8917 162.092 58.0243 162.469C58.1602 162.847 58.3641 163.149 58.6358 163.374C58.9109 163.596 59.2556 163.707 59.6699 163.707ZM66.6463 160.526V165H64.8466V157.364H66.5668V158.661H66.6562C66.8319 158.234 67.112 157.894 67.4964 157.642C67.8842 157.39 68.3632 157.264 68.9332 157.264C69.4602 157.264 69.9193 157.377 70.3104 157.602C70.7048 157.828 71.0097 158.154 71.2251 158.582C71.4439 159.009 71.5516 159.528 71.5483 160.138V165H69.7486V160.416C69.7486 159.906 69.616 159.506 69.3509 159.218C69.089 158.93 68.7261 158.786 68.2621 158.786C67.9472 158.786 67.6671 158.855 67.4219 158.994C67.1799 159.13 66.9893 159.327 66.8501 159.586C66.7143 159.844 66.6463 160.158 66.6463 160.526ZM77.1911 157.364V158.756H72.8011V157.364H77.1911ZM73.8849 155.534H75.6847V162.703C75.6847 162.945 75.7211 163.131 75.794 163.26C75.8703 163.386 75.9697 163.472 76.0923 163.518C76.215 163.565 76.3509 163.588 76.5 163.588C76.6127 163.588 76.7154 163.58 76.8082 163.563C76.9044 163.547 76.9773 163.532 77.027 163.518L77.3303 164.925C77.2341 164.959 77.0966 164.995 76.9176 165.035C76.742 165.075 76.5265 165.098 76.2713 165.104C75.8205 165.118 75.4145 165.05 75.0533 164.901C74.692 164.748 74.4053 164.513 74.1932 164.195C73.9844 163.876 73.8816 163.479 73.8849 163.001V155.534ZM81.9949 165.149C81.2292 165.149 80.568 164.99 80.0112 164.672C79.4577 164.35 79.0318 163.896 78.7335 163.31C78.4352 162.72 78.286 162.025 78.286 161.227C78.286 160.441 78.4352 159.752 78.7335 159.158C79.0351 158.562 79.456 158.098 79.9963 157.766C80.5365 157.432 81.1712 157.264 81.9004 157.264C82.371 157.264 82.8152 157.34 83.2328 157.493C83.6537 157.642 84.0249 157.874 84.3464 158.189C84.6712 158.504 84.9264 158.905 85.112 159.392C85.2976 159.876 85.3904 160.453 85.3904 161.122V161.674H79.1312V160.461H83.6653C83.662 160.116 83.5874 159.81 83.4416 159.541C83.2958 159.269 83.0919 159.056 82.8301 158.9C82.5716 158.744 82.2699 158.666 81.9252 158.666C81.5574 158.666 81.2342 158.756 80.9558 158.935C80.6774 159.11 80.4603 159.342 80.3045 159.631C80.152 159.916 80.0742 160.229 80.0708 160.57V161.629C80.0708 162.073 80.152 162.455 80.3145 162.773C80.4769 163.088 80.7039 163.33 80.9956 163.499C81.2872 163.664 81.6286 163.747 82.0197 163.747C82.2815 163.747 82.5185 163.711 82.7306 163.638C82.9428 163.562 83.1267 163.451 83.2825 163.305C83.4383 163.159 83.5559 162.978 83.6355 162.763L85.3159 162.952C85.2098 163.396 85.0076 163.784 84.7093 164.115C84.4144 164.443 84.0365 164.698 83.5758 164.881C83.1151 165.06 82.5881 165.149 81.9949 165.149ZM88.2205 157.364L89.7617 160.183L91.3278 157.364H93.2319L90.93 161.182L93.2717 165H91.3775L89.7617 162.251L88.1609 165H86.2518L88.5785 161.182L86.3114 157.364H88.2205ZM98.4371 157.364V158.756H94.0472V157.364H98.4371ZM95.131 155.534H96.9308V162.703C96.9308 162.945 96.9672 163.131 97.0401 163.26C97.1164 163.386 97.2158 163.472 97.3384 163.518C97.4611 163.565 97.5969 163.588 97.7461 163.588C97.8588 163.588 97.9615 163.58 98.0543 163.563C98.1504 163.547 98.2234 163.532 98.2731 163.518L98.5763 164.925C98.4802 164.959 98.3427 164.995 98.1637 165.035C97.988 165.075 97.7726 165.098 97.5174 165.104C97.0666 165.118 96.6606 165.05 96.2994 164.901C95.9381 164.748 95.6514 164.513 95.4393 164.195C95.2305 163.876 95.1277 163.479 95.131 163.001V155.534ZM104.325 160.018V161.5H99.7409V160.018H104.325ZM108.415 165.154C107.931 165.154 107.495 165.068 107.108 164.896C106.723 164.72 106.418 164.461 106.193 164.12C105.971 163.779 105.86 163.358 105.86 162.857C105.86 162.426 105.939 162.07 106.098 161.788C106.257 161.507 106.475 161.281 106.75 161.112C107.025 160.943 107.335 160.816 107.679 160.729C108.027 160.64 108.387 160.575 108.758 160.536C109.206 160.489 109.569 160.448 109.847 160.411C110.125 160.371 110.328 160.312 110.453 160.232C110.583 160.149 110.647 160.022 110.647 159.849V159.82C110.647 159.445 110.536 159.155 110.314 158.95C110.092 158.744 109.772 158.641 109.355 158.641C108.914 158.641 108.564 158.737 108.306 158.93C108.051 159.122 107.878 159.349 107.789 159.611L106.108 159.372C106.241 158.908 106.46 158.52 106.765 158.209C107.069 157.894 107.442 157.659 107.883 157.503C108.324 157.344 108.811 157.264 109.345 157.264C109.713 157.264 110.079 157.307 110.444 157.393C110.808 157.48 111.141 157.622 111.443 157.821C111.744 158.017 111.986 158.283 112.169 158.621C112.354 158.96 112.447 159.382 112.447 159.889V165H110.717V163.951H110.657C110.548 164.163 110.394 164.362 110.195 164.548C109.999 164.73 109.752 164.877 109.454 164.99C109.159 165.099 108.813 165.154 108.415 165.154ZM108.882 163.832C109.244 163.832 109.557 163.76 109.822 163.618C110.087 163.472 110.291 163.28 110.434 163.041C110.579 162.803 110.652 162.542 110.652 162.261V161.361C110.596 161.407 110.5 161.45 110.364 161.49C110.231 161.53 110.082 161.565 109.917 161.594C109.751 161.624 109.587 161.651 109.424 161.674C109.262 161.697 109.121 161.717 109.002 161.734C108.733 161.77 108.493 161.83 108.281 161.913C108.069 161.996 107.901 162.112 107.779 162.261C107.656 162.406 107.595 162.595 107.595 162.827C107.595 163.159 107.716 163.409 107.958 163.578C108.2 163.747 108.508 163.832 108.882 163.832ZM115.833 165L113.675 157.364H115.51L116.852 162.733H116.922L118.294 157.364H120.108L121.48 162.703H121.555L122.877 157.364H124.717L122.554 165H120.68L119.248 159.839H119.144L117.712 165H115.833ZM128.171 165.154C127.687 165.154 127.251 165.068 126.863 164.896C126.479 164.72 126.174 164.461 125.949 164.12C125.727 163.779 125.616 163.358 125.616 162.857C125.616 162.426 125.695 162.07 125.854 161.788C126.013 161.507 126.23 161.281 126.506 161.112C126.781 160.943 127.09 160.816 127.435 160.729C127.783 160.64 128.143 160.575 128.514 160.536C128.961 160.489 129.324 160.448 129.603 160.411C129.881 160.371 130.083 160.312 130.209 160.232C130.339 160.149 130.403 160.022 130.403 159.849V159.82C130.403 159.445 130.292 159.155 130.07 158.95C129.848 158.744 129.528 158.641 129.111 158.641C128.67 158.641 128.32 158.737 128.062 158.93C127.806 159.122 127.634 159.349 127.545 159.611L125.864 159.372C125.997 158.908 126.215 158.52 126.52 158.209C126.825 157.894 127.198 157.659 127.639 157.503C128.08 157.344 128.567 157.264 129.101 157.264C129.469 157.264 129.835 157.307 130.199 157.393C130.564 157.48 130.897 157.622 131.199 157.821C131.5 158.017 131.742 158.283 131.925 158.621C132.11 158.96 132.203 159.382 132.203 159.889V165H130.473V163.951H130.413C130.304 164.163 130.15 164.362 129.951 164.548C129.755 164.73 129.508 164.877 129.21 164.99C128.915 165.099 128.569 165.154 128.171 165.154ZM128.638 163.832C129 163.832 129.313 163.76 129.578 163.618C129.843 163.472 130.047 163.28 130.189 163.041C130.335 162.803 130.408 162.542 130.408 162.261V161.361C130.352 161.407 130.256 161.45 130.12 161.49C129.987 161.53 129.838 161.565 129.672 161.594C129.507 161.624 129.343 161.651 129.18 161.674C129.018 161.697 128.877 161.717 128.758 161.734C128.489 161.77 128.249 161.83 128.037 161.913C127.825 161.996 127.657 162.112 127.535 162.261C127.412 162.406 127.351 162.595 127.351 162.827C127.351 163.159 127.472 163.409 127.714 163.578C127.956 163.747 128.264 163.832 128.638 163.832ZM134.013 165V157.364H135.758V158.636H135.837C135.976 158.196 136.215 157.856 136.553 157.617C136.894 157.375 137.284 157.254 137.721 157.254C137.821 157.254 137.932 157.259 138.055 157.269C138.18 157.276 138.285 157.287 138.368 157.304V158.96C138.291 158.933 138.171 158.91 138.005 158.89C137.842 158.867 137.685 158.855 137.532 158.855C137.204 158.855 136.909 158.926 136.648 159.069C136.389 159.208 136.185 159.402 136.036 159.651C135.887 159.899 135.812 160.186 135.812 160.511V165H134.013ZM142.63 165.149C141.864 165.149 141.203 164.99 140.646 164.672C140.092 164.35 139.667 163.896 139.368 163.31C139.07 162.72 138.921 162.025 138.921 161.227C138.921 160.441 139.07 159.752 139.368 159.158C139.67 158.562 140.091 158.098 140.631 157.766C141.171 157.432 141.806 157.264 142.535 157.264C143.006 157.264 143.45 157.34 143.868 157.493C144.288 157.642 144.66 157.874 144.981 158.189C145.306 158.504 145.561 158.905 145.747 159.392C145.932 159.876 146.025 160.453 146.025 161.122V161.674H139.766V160.461H144.3C144.297 160.116 144.222 159.81 144.076 159.541C143.931 159.269 143.727 159.056 143.465 158.9C143.206 158.744 142.905 158.666 142.56 158.666C142.192 158.666 141.869 158.756 141.591 158.935C141.312 159.11 141.095 159.342 140.939 159.631C140.787 159.916 140.709 160.229 140.706 160.57V161.629C140.706 162.073 140.787 162.455 140.949 162.773C141.112 163.088 141.339 163.33 141.63 163.499C141.922 163.664 142.263 163.747 142.654 163.747C142.916 163.747 143.153 163.711 143.365 163.638C143.578 163.562 143.761 163.451 143.917 163.305C144.073 163.159 144.191 162.978 144.27 162.763L145.951 162.952C145.845 163.396 145.642 163.784 145.344 164.115C145.049 164.443 144.671 164.698 144.211 164.881C143.75 165.06 143.223 165.149 142.63 165.149ZM34.5025 187.131C34.1014 187.131 33.7352 187.033 33.4038 186.837C33.0723 186.638 32.8072 186.373 32.6083 186.042C32.4128 185.71 32.315 185.344 32.315 184.943C32.315 184.539 32.4128 184.173 32.6083 183.844C32.8072 183.513 33.0723 183.25 33.4038 183.054C33.7352 182.855 34.1014 182.756 34.5025 182.756C34.9068 182.756 35.2731 182.855 35.6012 183.054C35.9326 183.25 36.1961 183.513 36.3917 183.844C36.5906 184.173 36.69 184.539 36.69 184.943C36.69 185.344 36.5906 185.71 36.3917 186.042C36.1961 186.373 35.9326 186.638 35.6012 186.837C35.2731 187.033 34.9068 187.131 34.5025 187.131ZM45.9247 189V181.364H47.7244V189H45.9247ZM46.8295 180.28C46.5445 180.28 46.2992 180.185 46.0938 179.996C45.8883 179.804 45.7855 179.574 45.7855 179.305C45.7855 179.034 45.8883 178.803 46.0938 178.614C46.2992 178.422 46.5445 178.326 46.8295 178.326C47.1179 178.326 47.3632 178.422 47.5653 178.614C47.7708 178.803 47.8736 179.034 47.8736 179.305C47.8736 179.574 47.7708 179.804 47.5653 179.996C47.3632 180.185 47.1179 180.28 46.8295 180.28ZM49.5751 189V181.364H51.2953V182.661H51.3848C51.5439 182.224 51.8074 181.882 52.1752 181.637C52.5431 181.388 52.9823 181.264 53.4927 181.264C54.0098 181.264 54.4456 181.39 54.8002 181.642C55.1582 181.891 55.4101 182.23 55.5559 182.661H55.6355C55.8045 182.237 56.0895 181.899 56.4906 181.647C56.8949 181.392 57.3739 181.264 57.9274 181.264C58.63 181.264 59.2034 181.486 59.6475 181.93C60.0917 182.375 60.3137 183.022 60.3137 183.874V189H58.5091V184.153C58.5091 183.679 58.3831 183.332 58.1312 183.114C57.8793 182.892 57.5711 182.781 57.2065 182.781C56.7723 182.781 56.4326 182.916 56.1873 183.188C55.9454 183.457 55.8244 183.806 55.8244 184.237V189H54.0595V184.078C54.0595 183.684 53.9402 183.369 53.7015 183.134C53.4662 182.898 53.158 182.781 52.7768 182.781C52.5183 182.781 52.283 182.847 52.0708 182.979C51.8587 183.109 51.6897 183.293 51.5637 183.531C51.4378 183.767 51.3748 184.042 51.3748 184.357V189H49.5751ZM62.1396 191.864V181.364H63.9094V182.626H64.0138C64.1067 182.441 64.2376 182.244 64.4066 182.035C64.5756 181.823 64.8043 181.642 65.0927 181.493C65.381 181.34 65.7489 181.264 66.1964 181.264C66.7863 181.264 67.3183 181.415 67.7923 181.717C68.2695 182.015 68.6474 182.457 68.9258 183.044C69.2075 183.627 69.3484 184.343 69.3484 185.192C69.3484 186.03 69.2108 186.743 68.9357 187.33C68.6606 187.916 68.2861 188.364 67.8121 188.672C67.3382 188.98 66.8013 189.134 66.2013 189.134C65.7638 189.134 65.4009 189.061 65.1126 188.915C64.8242 188.77 64.5922 188.594 64.4165 188.388C64.2442 188.18 64.11 187.982 64.0138 187.797H63.9393V191.864H62.1396ZM63.9045 185.182C63.9045 185.676 63.9741 186.108 64.1133 186.479C64.2558 186.851 64.4596 187.141 64.7248 187.349C64.9933 187.555 65.3181 187.658 65.6992 187.658C66.0969 187.658 66.43 187.552 66.6985 187.339C66.967 187.124 67.1692 186.831 67.305 186.46C67.4442 186.085 67.5138 185.659 67.5138 185.182C67.5138 184.708 67.4459 184.287 67.31 183.919C67.1741 183.551 66.9719 183.263 66.7035 183.054C66.435 182.845 66.1003 182.741 65.6992 182.741C65.3147 182.741 64.9883 182.842 64.7198 183.044C64.4513 183.246 64.2475 183.53 64.1083 183.894C63.9724 184.259 63.9045 184.688 63.9045 185.182ZM70.8896 189V181.364H72.6346V182.636H72.7141C72.8533 182.196 73.092 181.856 73.43 181.617C73.7714 181.375 74.1609 181.254 74.5984 181.254C74.6978 181.254 74.8088 181.259 74.9315 181.269C75.0574 181.276 75.1618 181.287 75.2447 181.304V182.96C75.1684 182.933 75.0475 182.91 74.8817 182.89C74.7193 182.867 74.5619 182.855 74.4094 182.855C74.0813 182.855 73.7863 182.926 73.5245 183.069C73.266 183.208 73.0621 183.402 72.913 183.651C72.7638 183.899 72.6893 184.186 72.6893 184.511V189H70.8896ZM79.4569 189.149C78.7111 189.149 78.0648 188.985 77.5179 188.657C76.9711 188.329 76.5468 187.87 76.2452 187.28C75.9469 186.69 75.7978 186 75.7978 185.212C75.7978 184.423 75.9469 183.732 76.2452 183.138C76.5468 182.545 76.9711 182.085 77.5179 181.756C78.0648 181.428 78.7111 181.264 79.4569 181.264C80.2026 181.264 80.8489 181.428 81.3958 181.756C81.9426 182.085 82.3652 182.545 82.6635 183.138C82.9651 183.732 83.1159 184.423 83.1159 185.212C83.1159 186 82.9651 186.69 82.6635 187.28C82.3652 187.87 81.9426 188.329 81.3958 188.657C80.8489 188.985 80.2026 189.149 79.4569 189.149ZM79.4668 187.707C79.8712 187.707 80.2092 187.596 80.481 187.374C80.7528 187.149 80.955 186.847 81.0875 186.469C81.2234 186.092 81.2914 185.671 81.2914 185.207C81.2914 184.739 81.2234 184.317 81.0875 183.939C80.955 183.558 80.7528 183.254 80.481 183.029C80.2092 182.804 79.8712 182.691 79.4668 182.691C79.0525 182.691 78.7078 182.804 78.4327 183.029C78.1609 183.254 77.9571 183.558 77.8212 183.939C77.6886 184.317 77.6223 184.739 77.6223 185.207C77.6223 185.671 77.6886 186.092 77.8212 186.469C77.9571 186.847 78.1609 187.149 78.4327 187.374C78.7078 187.596 79.0525 187.707 79.4668 187.707ZM91.2047 181.364L88.4853 189H86.4966L83.7772 181.364H85.6962L87.4512 187.036H87.5307L89.2907 181.364H91.2047ZM92.4501 189V181.364H94.2498V189H92.4501ZM93.3549 180.28C93.0699 180.28 92.8246 180.185 92.6191 179.996C92.4136 179.804 92.3109 179.574 92.3109 179.305C92.3109 179.034 92.4136 178.803 92.6191 178.614C92.8246 178.422 93.0699 178.326 93.3549 178.326C93.6433 178.326 93.8886 178.422 94.0907 178.614C94.2962 178.803 94.399 179.034 94.399 179.305C94.399 179.574 94.2962 179.804 94.0907 179.996C93.8886 180.185 93.6433 180.28 93.3549 180.28ZM102.136 183.382L100.495 183.561C100.449 183.395 100.368 183.24 100.252 183.094C100.139 182.948 99.9866 182.83 99.7944 182.741C99.6022 182.651 99.3668 182.607 99.0884 182.607C98.7139 182.607 98.399 182.688 98.1438 182.85C97.8919 183.013 97.7676 183.223 97.771 183.482C97.7676 183.704 97.8488 183.884 98.0146 184.023C98.1836 184.163 98.462 184.277 98.8498 184.366L100.152 184.645C100.875 184.801 101.412 185.048 101.763 185.386C102.118 185.724 102.297 186.166 102.3 186.713C102.297 187.194 102.156 187.618 101.877 187.986C101.602 188.35 101.22 188.635 100.729 188.841C100.239 189.046 99.6751 189.149 99.0387 189.149C98.104 189.149 97.3517 188.954 96.7816 188.562C96.2115 188.168 95.8718 187.62 95.7624 186.917L97.5174 186.748C97.5969 187.093 97.766 187.353 98.0245 187.528C98.283 187.704 98.6194 187.792 99.0337 187.792C99.4613 187.792 99.8043 187.704 100.063 187.528C100.325 187.353 100.456 187.136 100.456 186.877C100.456 186.658 100.371 186.478 100.202 186.335C100.036 186.193 99.7778 186.083 99.4265 186.007L98.1239 185.734C97.3915 185.581 96.8496 185.324 96.4982 184.963C96.1469 184.598 95.9729 184.138 95.9762 183.581C95.9729 183.11 96.1005 182.703 96.359 182.358C96.6209 182.01 96.9838 181.741 97.4478 181.553C97.9151 181.36 98.4537 181.264 99.0636 181.264C99.9585 181.264 100.663 181.455 101.176 181.836C101.694 182.217 102.013 182.732 102.136 183.382ZM107.165 189.149C106.399 189.149 105.738 188.99 105.181 188.672C104.628 188.35 104.202 187.896 103.903 187.31C103.605 186.72 103.456 186.025 103.456 185.227C103.456 184.441 103.605 183.752 103.903 183.158C104.205 182.562 104.626 182.098 105.166 181.766C105.706 181.432 106.341 181.264 107.07 181.264C107.541 181.264 107.985 181.34 108.403 181.493C108.824 181.642 109.195 181.874 109.516 182.189C109.841 182.504 110.096 182.905 110.282 183.392C110.468 183.876 110.56 184.453 110.56 185.122V185.674H104.301V184.461H108.835C108.832 184.116 108.757 183.81 108.612 183.541C108.466 183.269 108.262 183.056 108 182.9C107.741 182.744 107.44 182.666 107.095 182.666C106.727 182.666 106.404 182.756 106.126 182.935C105.847 183.11 105.63 183.342 105.474 183.631C105.322 183.916 105.244 184.229 105.241 184.57V185.629C105.241 186.073 105.322 186.455 105.484 186.773C105.647 187.088 105.874 187.33 106.165 187.499C106.457 187.664 106.799 187.747 107.19 187.747C107.451 187.747 107.688 187.711 107.901 187.638C108.113 187.562 108.297 187.451 108.452 187.305C108.608 187.159 108.726 186.978 108.805 186.763L110.486 186.952C110.38 187.396 110.178 187.784 109.879 188.115C109.584 188.443 109.206 188.698 108.746 188.881C108.285 189.06 107.758 189.149 107.165 189.149ZM118.118 183.382L116.478 183.561C116.431 183.395 116.35 183.24 116.234 183.094C116.122 182.948 115.969 182.83 115.777 182.741C115.585 182.651 115.349 182.607 115.071 182.607C114.696 182.607 114.381 182.688 114.126 182.85C113.874 183.013 113.75 183.223 113.753 183.482C113.75 183.704 113.831 183.884 113.997 184.023C114.166 184.163 114.444 184.277 114.832 184.366L116.135 184.645C116.857 184.801 117.394 185.048 117.746 185.386C118.1 185.724 118.279 186.166 118.282 186.713C118.279 187.194 118.138 187.618 117.86 187.986C117.585 188.35 117.202 188.635 116.711 188.841C116.221 189.046 115.657 189.149 115.021 189.149C114.086 189.149 113.334 188.954 112.764 188.562C112.194 188.168 111.854 187.62 111.745 186.917L113.5 186.748C113.579 187.093 113.748 187.353 114.007 187.528C114.265 187.704 114.602 187.792 115.016 187.792C115.444 187.792 115.787 187.704 116.045 187.528C116.307 187.353 116.438 187.136 116.438 186.877C116.438 186.658 116.354 186.478 116.184 186.335C116.019 186.193 115.76 186.083 115.409 186.007L114.106 185.734C113.374 185.581 112.832 185.324 112.481 184.963C112.129 184.598 111.955 184.138 111.959 183.581C111.955 183.11 112.083 182.703 112.341 182.358C112.603 182.01 112.966 181.741 113.43 181.553C113.898 181.36 114.436 181.264 115.046 181.264C115.941 181.264 116.645 181.455 117.159 181.836C117.676 182.217 117.996 182.732 118.118 183.382ZM126.073 189.134C125.473 189.134 124.936 188.98 124.462 188.672C123.988 188.364 123.614 187.916 123.339 187.33C123.064 186.743 122.926 186.03 122.926 185.192C122.926 184.343 123.065 183.627 123.344 183.044C123.625 182.457 124.005 182.015 124.482 181.717C124.959 181.415 125.491 181.264 126.078 181.264C126.525 181.264 126.893 181.34 127.182 181.493C127.47 181.642 127.699 181.823 127.868 182.035C128.037 182.244 128.168 182.441 128.26 182.626H128.335V178.818H130.14V189H128.37V187.797H128.26C128.168 187.982 128.033 188.18 127.858 188.388C127.682 188.594 127.45 188.77 127.162 188.915C126.873 189.061 126.51 189.134 126.073 189.134ZM126.575 187.658C126.956 187.658 127.281 187.555 127.55 187.349C127.818 187.141 128.022 186.851 128.161 186.479C128.3 186.108 128.37 185.676 128.37 185.182C128.37 184.688 128.3 184.259 128.161 183.894C128.025 183.53 127.823 183.246 127.555 183.044C127.289 182.842 126.963 182.741 126.575 182.741C126.174 182.741 125.839 182.845 125.571 183.054C125.302 183.263 125.1 183.551 124.964 183.919C124.828 184.287 124.76 184.708 124.76 185.182C124.76 185.659 124.828 186.085 124.964 186.46C125.104 186.831 125.307 187.124 125.576 187.339C125.848 187.552 126.181 187.658 126.575 187.658ZM133.176 191.864C132.931 191.864 132.704 191.844 132.495 191.804C132.29 191.768 132.125 191.724 132.003 191.675L132.42 190.273C132.682 190.349 132.916 190.385 133.121 190.382C133.327 190.379 133.508 190.314 133.663 190.188C133.822 190.066 133.957 189.86 134.066 189.572L134.22 189.159L131.451 181.364H133.36L135.12 187.131H135.2L136.964 181.364H138.879L135.821 189.925C135.679 190.329 135.49 190.675 135.254 190.964C135.019 191.255 134.731 191.478 134.389 191.63C134.051 191.786 133.647 191.864 133.176 191.864ZM141.924 184.526V189H140.124V181.364H141.844V182.661H141.934C142.109 182.234 142.389 181.894 142.774 181.642C143.162 181.39 143.641 181.264 144.211 181.264C144.738 181.264 145.197 181.377 145.588 181.602C145.982 181.828 146.287 182.154 146.502 182.582C146.721 183.009 146.829 183.528 146.826 184.138V189H145.026V184.416C145.026 183.906 144.893 183.506 144.628 183.218C144.366 182.93 144.003 182.786 143.539 182.786C143.225 182.786 142.944 182.855 142.699 182.994C142.457 183.13 142.267 183.327 142.127 183.586C141.992 183.844 141.924 184.158 141.924 184.526ZM150.853 189.154C150.369 189.154 149.933 189.068 149.545 188.896C149.161 188.72 148.856 188.461 148.63 188.12C148.408 187.779 148.297 187.358 148.297 186.857C148.297 186.426 148.377 186.07 148.536 185.788C148.695 185.507 148.912 185.281 149.187 185.112C149.462 184.943 149.772 184.816 150.117 184.729C150.465 184.64 150.824 184.575 151.196 184.536C151.643 184.489 152.006 184.448 152.284 184.411C152.563 184.371 152.765 184.312 152.891 184.232C153.02 184.149 153.085 184.022 153.085 183.849V183.82C153.085 183.445 152.974 183.155 152.752 182.95C152.53 182.744 152.21 182.641 151.792 182.641C151.351 182.641 151.002 182.737 150.743 182.93C150.488 183.122 150.316 183.349 150.226 183.611L148.546 183.372C148.678 182.908 148.897 182.52 149.202 182.209C149.507 181.894 149.88 181.659 150.321 181.503C150.761 181.344 151.249 181.264 151.782 181.264C152.15 181.264 152.516 181.307 152.881 181.393C153.246 181.48 153.579 181.622 153.88 181.821C154.182 182.017 154.424 182.283 154.606 182.621C154.792 182.96 154.885 183.382 154.885 183.889V189H153.154V187.951H153.095C152.985 188.163 152.831 188.362 152.632 188.548C152.437 188.73 152.19 188.877 151.892 188.99C151.597 189.099 151.25 189.154 150.853 189.154ZM151.32 187.832C151.681 187.832 151.994 187.76 152.26 187.618C152.525 187.472 152.729 187.28 152.871 187.041C153.017 186.803 153.09 186.542 153.09 186.261V185.361C153.033 185.407 152.937 185.45 152.801 185.49C152.669 185.53 152.52 185.565 152.354 185.594C152.188 185.624 152.024 185.651 151.862 185.674C151.699 185.697 151.559 185.717 151.439 185.734C151.171 185.77 150.931 185.83 150.718 185.913C150.506 185.996 150.339 186.112 150.216 186.261C150.094 186.406 150.032 186.595 150.032 186.827C150.032 187.159 150.153 187.409 150.395 187.578C150.637 187.747 150.945 187.832 151.32 187.832ZM156.694 189V181.364H158.414V182.661H158.504C158.663 182.224 158.926 181.882 159.294 181.637C159.662 181.388 160.101 181.264 160.612 181.264C161.129 181.264 161.565 181.39 161.919 181.642C162.277 181.891 162.529 182.23 162.675 182.661H162.755C162.924 182.237 163.209 181.899 163.61 181.647C164.014 181.392 164.493 181.264 165.047 181.264C165.749 181.264 166.323 181.486 166.767 181.93C167.211 182.375 167.433 183.022 167.433 183.874V189H165.628V184.153C165.628 183.679 165.502 183.332 165.25 183.114C164.998 182.892 164.69 182.781 164.326 182.781C163.891 182.781 163.552 182.916 163.306 183.188C163.065 183.457 162.944 183.806 162.944 184.237V189H161.179V184.078C161.179 183.684 161.059 183.369 160.821 183.134C160.585 182.898 160.277 182.781 159.896 182.781C159.637 182.781 159.402 182.847 159.19 182.979C158.978 183.109 158.809 183.293 158.683 183.531C158.557 183.767 158.494 184.042 158.494 184.357V189H156.694ZM169.259 189V181.364H171.058V189H169.259ZM170.164 180.28C169.878 180.28 169.633 180.185 169.428 179.996C169.222 179.804 169.119 179.574 169.119 179.305C169.119 179.034 169.222 178.803 169.428 178.614C169.633 178.422 169.878 178.326 170.164 178.326C170.452 178.326 170.697 178.422 170.899 178.614C171.105 178.803 171.208 179.034 171.208 179.305C171.208 179.574 171.105 179.804 170.899 179.996C170.697 180.185 170.452 180.28 170.164 180.28ZM176.24 189.149C175.478 189.149 174.823 188.982 174.276 188.647C173.733 188.312 173.313 187.85 173.018 187.26C172.727 186.667 172.581 185.984 172.581 185.212C172.581 184.436 172.73 183.752 173.028 183.158C173.327 182.562 173.748 182.098 174.291 181.766C174.838 181.432 175.484 181.264 176.23 181.264C176.85 181.264 177.398 181.379 177.876 181.607C178.356 181.833 178.739 182.152 179.024 182.567C179.309 182.978 179.472 183.458 179.511 184.009H177.791C177.722 183.641 177.556 183.334 177.294 183.089C177.036 182.84 176.689 182.716 176.255 182.716C175.887 182.716 175.564 182.815 175.286 183.014C175.007 183.21 174.79 183.491 174.634 183.859C174.482 184.227 174.406 184.668 174.406 185.182C174.406 185.702 174.482 186.15 174.634 186.524C174.787 186.895 175 187.182 175.276 187.384C175.554 187.583 175.88 187.683 176.255 187.683C176.52 187.683 176.757 187.633 176.966 187.533C177.178 187.431 177.355 187.283 177.498 187.091C177.64 186.899 177.738 186.665 177.791 186.39H179.511C179.468 186.93 179.309 187.409 179.034 187.827C178.759 188.241 178.384 188.566 177.911 188.801C177.437 189.033 176.88 189.149 176.24 189.149ZM183.187 189.154C182.703 189.154 182.267 189.068 181.879 188.896C181.495 188.72 181.19 188.461 180.964 188.12C180.742 187.779 180.631 187.358 180.631 186.857C180.631 186.426 180.711 186.07 180.87 185.788C181.029 185.507 181.246 185.281 181.521 185.112C181.796 184.943 182.106 184.816 182.451 184.729C182.799 184.64 183.158 184.575 183.53 184.536C183.977 184.489 184.34 184.448 184.618 184.411C184.897 184.371 185.099 184.312 185.225 184.232C185.354 184.149 185.419 184.022 185.419 183.849V183.82C185.419 183.445 185.308 183.155 185.086 182.95C184.864 182.744 184.544 182.641 184.126 182.641C183.685 182.641 183.336 182.737 183.077 182.93C182.822 183.122 182.65 183.349 182.56 183.611L180.88 183.372C181.012 182.908 181.231 182.52 181.536 182.209C181.841 181.894 182.214 181.659 182.655 181.503C183.095 181.344 183.583 181.264 184.116 181.264C184.484 181.264 184.85 181.307 185.215 181.393C185.58 181.48 185.913 181.622 186.214 181.821C186.516 182.017 186.758 182.283 186.94 182.621C187.126 182.96 187.219 183.382 187.219 183.889V189H185.488V187.951H185.429C185.319 188.163 185.165 188.362 184.966 188.548C184.771 188.73 184.524 188.877 184.226 188.99C183.931 189.099 183.584 189.154 183.187 189.154ZM183.654 187.832C184.015 187.832 184.328 187.76 184.594 187.618C184.859 187.472 185.063 187.28 185.205 187.041C185.351 186.803 185.424 186.542 185.424 186.261V185.361C185.367 185.407 185.271 185.45 185.135 185.49C185.003 185.53 184.854 185.565 184.688 185.594C184.522 185.624 184.358 185.651 184.196 185.674C184.033 185.697 183.893 185.717 183.773 185.734C183.505 185.77 183.265 185.83 183.052 185.913C182.84 185.996 182.673 186.112 182.55 186.261C182.428 186.406 182.366 186.595 182.366 186.827C182.366 187.159 182.487 187.409 182.729 187.578C182.971 187.747 183.279 187.832 183.654 187.832ZM190.828 178.818V189H189.028V178.818H190.828ZM194.478 178.818V189H192.679V178.818H194.478ZM197.448 191.864C197.202 191.864 196.975 191.844 196.767 191.804C196.561 191.768 196.397 191.724 196.274 191.675L196.692 190.273C196.954 190.349 197.187 190.385 197.393 190.382C197.598 190.379 197.779 190.314 197.935 190.188C198.094 190.066 198.228 189.86 198.338 189.572L198.492 189.159L195.722 181.364H197.632L199.392 187.131H199.471L201.236 181.364H203.15L200.093 189.925C199.95 190.329 199.761 190.675 199.526 190.964C199.29 191.255 199.002 191.478 198.661 191.63C198.323 191.786 197.918 191.864 197.448 191.864ZM34.5025 211.131C34.1014 211.131 33.7352 211.033 33.4038 210.837C33.0723 210.638 32.8072 210.373 32.6083 210.042C32.4128 209.71 32.315 209.344 32.315 208.943C32.315 208.539 32.4128 208.173 32.6083 207.844C32.8072 207.513 33.0723 207.25 33.4038 207.054C33.7352 206.855 34.1014 206.756 34.5025 206.756C34.9068 206.756 35.2731 206.855 35.6012 207.054C35.9326 207.25 36.1961 207.513 36.3917 207.844C36.5906 208.173 36.69 208.539 36.69 208.943C36.69 209.344 36.5906 209.71 36.3917 210.042C36.1961 210.373 35.9326 210.638 35.6012 210.837C35.2731 211.033 34.9068 211.131 34.5025 211.131ZM46.0043 213V202.818H49.8224C50.6046 202.818 51.2609 202.954 51.7912 203.226C52.3248 203.498 52.7275 203.879 52.9993 204.369C53.2744 204.857 53.4119 205.425 53.4119 206.075C53.4119 206.728 53.2727 207.294 52.9943 207.775C52.7192 208.252 52.3132 208.622 51.7763 208.884C51.2393 209.142 50.5798 209.271 49.7976 209.271H47.0781V207.74H49.549C50.0064 207.74 50.3809 207.677 50.6726 207.551C50.9643 207.422 51.1797 207.235 51.3189 206.989C51.4614 206.741 51.5327 206.436 51.5327 206.075C51.5327 205.713 51.4614 205.405 51.3189 205.15C51.1764 204.891 50.9593 204.696 50.6676 204.563C50.3759 204.427 49.9998 204.359 49.5391 204.359H47.8487V213H46.0043ZM51.2642 208.386L53.7848 213H51.7266L49.2507 208.386H51.2642ZM58.3015 213.149C57.5359 213.149 56.8746 212.99 56.3178 212.672C55.7643 212.35 55.3384 211.896 55.0401 211.31C54.7418 210.72 54.5927 210.025 54.5927 209.227C54.5927 208.441 54.7418 207.752 55.0401 207.158C55.3417 206.562 55.7627 206.098 56.3029 205.766C56.8432 205.432 57.4779 205.264 58.207 205.264C58.6777 205.264 59.1218 205.34 59.5394 205.493C59.9603 205.642 60.3316 205.874 60.6531 206.189C60.9779 206.504 61.2331 206.905 61.4187 207.392C61.6043 207.876 61.6971 208.453 61.6971 209.122V209.674H55.4379V208.461H59.9719C59.9686 208.116 59.8941 207.81 59.7482 207.541C59.6024 207.269 59.3986 207.056 59.1367 206.9C58.8782 206.744 58.5766 206.666 58.2319 206.666C57.864 206.666 57.5408 206.756 57.2624 206.935C56.984 207.11 56.7669 207.342 56.6112 207.631C56.4587 207.916 56.3808 208.229 56.3775 208.57V209.629C56.3775 210.073 56.4587 210.455 56.6211 210.773C56.7835 211.088 57.0105 211.33 57.3022 211.499C57.5939 211.664 57.9353 211.747 58.3263 211.747C58.5882 211.747 58.8252 211.711 59.0373 211.638C59.2494 211.562 59.4334 211.451 59.5891 211.305C59.7449 211.159 59.8626 210.978 59.9421 210.763L61.6225 210.952C61.5165 211.396 61.3143 211.784 61.016 212.115C60.721 212.443 60.3432 212.698 59.8825 212.881C59.4218 213.06 58.8948 213.149 58.3015 213.149ZM65.4171 213.154C64.9332 213.154 64.4973 213.068 64.1096 212.896C63.7251 212.72 63.4202 212.461 63.1948 212.12C62.9727 211.779 62.8617 211.358 62.8617 210.857C62.8617 210.426 62.9412 210.07 63.1003 209.788C63.2594 209.507 63.4765 209.281 63.7516 209.112C64.0267 208.943 64.3366 208.816 64.6813 208.729C65.0293 208.64 65.3889 208.575 65.7601 208.536C66.2076 208.489 66.5705 208.448 66.8489 208.411C67.1273 208.371 67.3295 208.312 67.4554 208.232C67.5847 208.149 67.6493 208.022 67.6493 207.849V207.82C67.6493 207.445 67.5383 207.155 67.3162 206.95C67.0942 206.744 66.7743 206.641 66.3567 206.641C65.9159 206.641 65.5662 206.737 65.3077 206.93C65.0525 207.122 64.8801 207.349 64.7907 207.611L63.1103 207.372C63.2428 206.908 63.4616 206.52 63.7665 206.209C64.0714 205.894 64.4443 205.659 64.8851 205.503C65.3259 205.344 65.8132 205.264 66.3468 205.264C66.7147 205.264 67.0809 205.307 67.4455 205.393C67.8101 205.48 68.1432 205.622 68.4448 205.821C68.7464 206.017 68.9883 206.283 69.1706 206.621C69.3562 206.96 69.449 207.382 69.449 207.889V213H67.7189V211.951H67.6593C67.5499 212.163 67.3958 212.362 67.1969 212.548C67.0014 212.73 66.7544 212.877 66.4561 212.99C66.1612 213.099 65.8148 213.154 65.4171 213.154ZM65.8844 211.832C66.2457 211.832 66.5589 211.76 66.824 211.618C67.0892 211.472 67.293 211.28 67.4355 211.041C67.5814 210.803 67.6543 210.542 67.6543 210.261V209.361C67.598 209.407 67.5018 209.45 67.3659 209.49C67.2334 209.53 67.0842 209.565 66.9185 209.594C66.7528 209.624 66.5887 209.651 66.4263 209.674C66.2639 209.697 66.123 209.717 66.0037 209.734C65.7353 209.77 65.495 209.83 65.2828 209.913C65.0707 209.996 64.9034 210.112 64.7807 210.261C64.6581 210.406 64.5968 210.595 64.5968 210.827C64.5968 211.159 64.7177 211.409 64.9597 211.578C65.2016 211.747 65.5099 211.832 65.8844 211.832ZM73.0584 202.818V213H71.2587V202.818H73.0584ZM79.5376 208.018V209.5H74.9538V208.018H79.5376ZM85.2438 205.364V206.756H80.8539V205.364H85.2438ZM81.9377 203.534H83.7374V210.703C83.7374 210.945 83.7739 211.131 83.8468 211.26C83.923 211.386 84.0224 211.472 84.1451 211.518C84.2677 211.565 84.4036 211.588 84.5527 211.588C84.6654 211.588 84.7682 211.58 84.861 211.563C84.9571 211.547 85.03 211.532 85.0797 211.518L85.383 212.925C85.2869 212.959 85.1493 212.995 84.9703 213.035C84.7947 213.075 84.5792 213.098 84.324 213.104C83.8733 213.118 83.4673 213.05 83.106 212.901C82.7447 212.748 82.458 212.513 82.2459 212.195C82.0371 211.876 81.9344 211.479 81.9377 211.001V203.534ZM86.7489 213V205.364H88.5487V213H86.7489ZM87.6538 204.28C87.3687 204.28 87.1235 204.185 86.918 203.996C86.7125 203.804 86.6097 203.574 86.6097 203.305C86.6097 203.034 86.7125 202.803 86.918 202.614C87.1235 202.422 87.3687 202.326 87.6538 202.326C87.9421 202.326 88.1874 202.422 88.3896 202.614C88.5951 202.803 88.6978 203.034 88.6978 203.305C88.6978 203.574 88.5951 203.804 88.3896 203.996C88.1874 204.185 87.9421 204.28 87.6538 204.28ZM93.78 213.149C93.0144 213.149 92.3532 212.99 91.7963 212.672C91.2428 212.35 90.8169 211.896 90.5186 211.31C90.2203 210.72 90.0712 210.025 90.0712 209.227C90.0712 208.441 90.2203 207.752 90.5186 207.158C90.8203 206.562 91.2412 206.098 91.7814 205.766C92.3217 205.432 92.9564 205.264 93.6855 205.264C94.1562 205.264 94.6003 205.34 95.0179 205.493C95.4389 205.642 95.8101 205.874 96.1316 206.189C96.4564 206.504 96.7116 206.905 96.8972 207.392C97.0828 207.876 97.1756 208.453 97.1756 209.122V209.674H90.9164V208.461H95.4505C95.4471 208.116 95.3726 207.81 95.2267 207.541C95.0809 207.269 94.8771 207.056 94.6152 206.9C94.3567 206.744 94.0551 206.666 93.7104 206.666C93.3425 206.666 93.0194 206.756 92.7409 206.935C92.4625 207.11 92.2454 207.342 92.0897 207.631C91.9372 207.916 91.8593 208.229 91.856 208.57V209.629C91.856 210.073 91.9372 210.455 92.0996 210.773C92.262 211.088 92.4891 211.33 92.7807 211.499C93.0724 211.664 93.4138 211.747 93.8049 211.747C94.0667 211.747 94.3037 211.711 94.5158 211.638C94.7279 211.562 94.9119 211.451 95.0676 211.305C95.2234 211.159 95.3411 210.978 95.4206 210.763L97.101 210.952C96.995 211.396 96.7928 211.784 96.4945 212.115C96.1995 212.443 95.8217 212.698 95.361 212.881C94.9003 213.06 94.3733 213.149 93.78 213.149ZM104.368 213.154C103.884 213.154 103.449 213.068 103.061 212.896C102.676 212.72 102.371 212.461 102.146 212.12C101.924 211.779 101.813 211.358 101.813 210.857C101.813 210.426 101.892 210.07 102.051 209.788C102.211 209.507 102.428 209.281 102.703 209.112C102.978 208.943 103.288 208.816 103.632 208.729C103.98 208.64 104.34 208.575 104.711 208.536C105.159 208.489 105.522 208.448 105.8 208.411C106.078 208.371 106.281 208.312 106.407 208.232C106.536 208.149 106.6 208.022 106.6 207.849V207.82C106.6 207.445 106.489 207.155 106.267 206.95C106.045 206.744 105.725 206.641 105.308 206.641C104.867 206.641 104.517 206.737 104.259 206.93C104.004 207.122 103.831 207.349 103.742 207.611L102.061 207.372C102.194 206.908 102.413 206.52 102.718 206.209C103.023 205.894 103.395 205.659 103.836 205.503C104.277 205.344 104.764 205.264 105.298 205.264C105.666 205.264 106.032 205.307 106.397 205.393C106.761 205.48 107.094 205.622 107.396 205.821C107.698 206.017 107.94 206.283 108.122 206.621C108.307 206.96 108.4 207.382 108.4 207.889V213H106.67V211.951H106.61C106.501 212.163 106.347 212.362 106.148 212.548C105.953 212.73 105.706 212.877 105.407 212.99C105.112 213.099 104.766 213.154 104.368 213.154ZM104.836 211.832C105.197 211.832 105.51 211.76 105.775 211.618C106.04 211.472 106.244 211.28 106.387 211.041C106.533 210.803 106.605 210.542 106.605 210.261V209.361C106.549 209.407 106.453 209.45 106.317 209.49C106.185 209.53 106.035 209.565 105.87 209.594C105.704 209.624 105.54 209.651 105.377 209.674C105.215 209.697 105.074 209.717 104.955 209.734C104.686 209.77 104.446 209.83 104.234 209.913C104.022 209.996 103.855 210.112 103.732 210.261C103.609 210.406 103.548 210.595 103.548 210.827C103.548 211.159 103.669 211.409 103.911 211.578C104.153 211.747 104.461 211.832 104.836 211.832ZM113.044 213.134C112.444 213.134 111.907 212.98 111.433 212.672C110.959 212.364 110.584 211.916 110.309 211.33C110.034 210.743 109.897 210.03 109.897 209.192C109.897 208.343 110.036 207.627 110.314 207.044C110.596 206.457 110.975 206.015 111.453 205.717C111.93 205.415 112.462 205.264 113.049 205.264C113.496 205.264 113.864 205.34 114.152 205.493C114.441 205.642 114.669 205.823 114.838 206.035C115.007 206.244 115.138 206.441 115.231 206.626H115.306V202.818H117.11V213H115.341V211.797H115.231C115.138 211.982 115.004 212.18 114.828 212.388C114.653 212.594 114.421 212.77 114.132 212.915C113.844 213.061 113.481 213.134 113.044 213.134ZM113.546 211.658C113.927 211.658 114.252 211.555 114.52 211.349C114.789 211.141 114.993 210.851 115.132 210.479C115.271 210.108 115.341 209.676 115.341 209.182C115.341 208.688 115.271 208.259 115.132 207.894C114.996 207.53 114.794 207.246 114.525 207.044C114.26 206.842 113.934 206.741 113.546 206.741C113.145 206.741 112.81 206.845 112.542 207.054C112.273 207.263 112.071 207.551 111.935 207.919C111.799 208.287 111.731 208.708 111.731 209.182C111.731 209.659 111.799 210.085 111.935 210.46C112.074 210.831 112.278 211.124 112.547 211.339C112.818 211.552 113.151 211.658 113.546 211.658ZM121.226 213.154C120.742 213.154 120.306 213.068 119.918 212.896C119.534 212.72 119.229 212.461 119.003 212.12C118.781 211.779 118.67 211.358 118.67 210.857C118.67 210.426 118.75 210.07 118.909 209.788C119.068 209.507 119.285 209.281 119.56 209.112C119.835 208.943 120.145 208.816 120.49 208.729C120.838 208.64 121.198 208.575 121.569 208.536C122.016 208.489 122.379 208.448 122.657 208.411C122.936 208.371 123.138 208.312 123.264 208.232C123.393 208.149 123.458 208.022 123.458 207.849V207.82C123.458 207.445 123.347 207.155 123.125 206.95C122.903 206.744 122.583 206.641 122.165 206.641C121.724 206.641 121.375 206.737 121.116 206.93C120.861 207.122 120.689 207.349 120.599 207.611L118.919 207.372C119.051 206.908 119.27 206.52 119.575 206.209C119.88 205.894 120.253 205.659 120.694 205.503C121.135 205.344 121.622 205.264 122.155 205.264C122.523 205.264 122.89 205.307 123.254 205.393C123.619 205.48 123.952 205.622 124.253 205.821C124.555 206.017 124.797 206.283 124.979 206.621C125.165 206.96 125.258 207.382 125.258 207.889V213H123.528V211.951H123.468C123.358 212.163 123.204 212.362 123.006 212.548C122.81 212.73 122.563 212.877 122.265 212.99C121.97 213.099 121.623 213.154 121.226 213.154ZM121.693 211.832C122.054 211.832 122.367 211.76 122.633 211.618C122.898 211.472 123.102 211.28 123.244 211.041C123.39 210.803 123.463 210.542 123.463 210.261V209.361C123.407 209.407 123.31 209.45 123.175 209.49C123.042 209.53 122.893 209.565 122.727 209.594C122.561 209.624 122.397 209.651 122.235 209.674C122.073 209.697 121.932 209.717 121.812 209.734C121.544 209.77 121.304 209.83 121.091 209.913C120.879 209.996 120.712 210.112 120.589 210.261C120.467 210.406 120.405 210.595 120.405 210.827C120.405 211.159 120.526 211.409 120.768 211.578C121.01 211.747 121.318 211.832 121.693 211.832ZM127.067 215.864V205.364H128.837V206.626H128.942C129.034 206.441 129.165 206.244 129.334 206.035C129.503 205.823 129.732 205.642 130.02 205.493C130.309 205.34 130.677 205.264 131.124 205.264C131.714 205.264 132.246 205.415 132.72 205.717C133.197 206.015 133.575 206.457 133.854 207.044C134.135 207.627 134.276 208.343 134.276 209.192C134.276 210.03 134.139 210.743 133.863 211.33C133.588 211.916 133.214 212.364 132.74 212.672C132.266 212.98 131.729 213.134 131.129 213.134C130.692 213.134 130.329 213.061 130.04 212.915C129.752 212.77 129.52 212.594 129.344 212.388C129.172 212.18 129.038 211.982 128.942 211.797H128.867V215.864H127.067ZM128.832 209.182C128.832 209.676 128.902 210.108 129.041 210.479C129.184 210.851 129.387 211.141 129.653 211.349C129.921 211.555 130.246 211.658 130.627 211.658C131.025 211.658 131.358 211.552 131.626 211.339C131.895 211.124 132.097 210.831 132.233 210.46C132.372 210.085 132.442 209.659 132.442 209.182C132.442 208.708 132.374 208.287 132.238 207.919C132.102 207.551 131.9 207.263 131.631 207.054C131.363 206.845 131.028 206.741 130.627 206.741C130.242 206.741 129.916 206.842 129.648 207.044C129.379 207.246 129.175 207.53 129.036 207.894C128.9 208.259 128.832 208.688 128.832 209.182ZM139.631 205.364V206.756H135.241V205.364H139.631ZM136.324 203.534H138.124V210.703C138.124 210.945 138.161 211.131 138.233 211.26C138.31 211.386 138.409 211.472 138.532 211.518C138.654 211.565 138.79 211.588 138.939 211.588C139.052 211.588 139.155 211.58 139.248 211.563C139.344 211.547 139.417 211.532 139.466 211.518L139.77 212.925C139.674 212.959 139.536 212.995 139.357 213.035C139.181 213.075 138.966 213.098 138.711 213.104C138.26 213.118 137.854 213.05 137.493 212.901C137.131 212.748 136.845 212.513 136.633 212.195C136.424 211.876 136.321 211.479 136.324 211.001V203.534ZM143.333 213.154C142.849 213.154 142.413 213.068 142.026 212.896C141.641 212.72 141.336 212.461 141.111 212.12C140.889 211.779 140.778 211.358 140.778 210.857C140.778 210.426 140.857 210.07 141.016 209.788C141.175 209.507 141.393 209.281 141.668 209.112C141.943 208.943 142.253 208.816 142.597 208.729C142.945 208.64 143.305 208.575 143.676 208.536C144.124 208.489 144.487 208.448 144.765 208.411C145.043 208.371 145.246 208.312 145.371 208.232C145.501 208.149 145.565 208.022 145.565 207.849V207.82C145.565 207.445 145.454 207.155 145.232 206.95C145.01 206.744 144.69 206.641 144.273 206.641C143.832 206.641 143.482 206.737 143.224 206.93C142.969 207.122 142.796 207.349 142.707 207.611L141.026 207.372C141.159 206.908 141.378 206.52 141.683 206.209C141.987 205.894 142.36 205.659 142.801 205.503C143.242 205.344 143.729 205.264 144.263 205.264C144.631 205.264 144.997 205.307 145.362 205.393C145.726 205.48 146.059 205.622 146.361 205.821C146.662 206.017 146.904 206.283 147.087 206.621C147.272 206.96 147.365 207.382 147.365 207.889V213H145.635V211.951H145.575C145.466 212.163 145.312 212.362 145.113 212.548C144.917 212.73 144.67 212.877 144.372 212.99C144.077 213.099 143.731 213.154 143.333 213.154ZM143.8 211.832C144.162 211.832 144.475 211.76 144.74 211.618C145.005 211.472 145.209 211.28 145.352 211.041C145.497 210.803 145.57 210.542 145.57 210.261V209.361C145.514 209.407 145.418 209.45 145.282 209.49C145.149 209.53 145 209.565 144.835 209.594C144.669 209.624 144.505 209.651 144.342 209.674C144.18 209.697 144.039 209.717 143.92 209.734C143.651 209.77 143.411 209.83 143.199 209.913C142.987 209.996 142.819 210.112 142.697 210.261C142.574 210.406 142.513 210.595 142.513 210.827C142.513 211.159 142.634 211.409 142.876 211.578C143.118 211.747 143.426 211.832 143.8 211.832ZM152.988 205.364V206.756H148.598V205.364H152.988ZM149.682 203.534H151.482V210.703C151.482 210.945 151.518 211.131 151.591 211.26C151.667 211.386 151.767 211.472 151.889 211.518C152.012 211.565 152.148 211.588 152.297 211.588C152.41 211.588 152.512 211.58 152.605 211.563C152.701 211.547 152.774 211.532 152.824 211.518L153.127 212.925C153.031 212.959 152.893 212.995 152.714 213.035C152.539 213.075 152.323 213.098 152.068 213.104C151.617 213.118 151.211 213.05 150.85 212.901C150.489 212.748 150.202 212.513 149.99 212.195C149.781 211.876 149.679 211.479 149.682 211.001V203.534ZM154.493 213V205.364H156.293V213H154.493ZM155.398 204.28C155.113 204.28 154.868 204.185 154.662 203.996C154.457 203.804 154.354 203.574 154.354 203.305C154.354 203.034 154.457 202.803 154.662 202.614C154.868 202.422 155.113 202.326 155.398 202.326C155.686 202.326 155.932 202.422 156.134 202.614C156.339 202.803 156.442 203.034 156.442 203.305C156.442 203.574 156.339 203.804 156.134 203.996C155.932 204.185 155.686 204.28 155.398 204.28ZM161.474 213.149C160.729 213.149 160.082 212.985 159.536 212.657C158.989 212.329 158.564 211.87 158.263 211.28C157.964 210.69 157.815 210 157.815 209.212C157.815 208.423 157.964 207.732 158.263 207.138C158.564 206.545 158.989 206.085 159.536 205.756C160.082 205.428 160.729 205.264 161.474 205.264C162.22 205.264 162.866 205.428 163.413 205.756C163.96 206.085 164.383 206.545 164.681 207.138C164.983 207.732 165.134 208.423 165.134 209.212C165.134 210 164.983 210.69 164.681 211.28C164.383 211.87 163.96 212.329 163.413 212.657C162.866 212.985 162.22 213.149 161.474 213.149ZM161.484 211.707C161.889 211.707 162.227 211.596 162.499 211.374C162.77 211.149 162.973 210.847 163.105 210.469C163.241 210.092 163.309 209.671 163.309 209.207C163.309 208.739 163.241 208.317 163.105 207.939C162.973 207.558 162.77 207.254 162.499 207.029C162.227 206.804 161.889 206.691 161.484 206.691C161.07 206.691 160.725 206.804 160.45 207.029C160.179 207.254 159.975 207.558 159.839 207.939C159.706 208.317 159.64 208.739 159.64 209.207C159.64 209.671 159.706 210.092 159.839 210.469C159.975 210.847 160.179 211.149 160.45 211.374C160.725 211.596 161.07 211.707 161.484 211.707ZM168.461 208.526V213H166.661V205.364H168.381V206.661H168.471C168.646 206.234 168.926 205.894 169.311 205.642C169.699 205.39 170.178 205.264 170.748 205.264C171.275 205.264 171.734 205.377 172.125 205.602C172.519 205.828 172.824 206.154 173.04 206.582C173.258 207.009 173.366 207.528 173.363 208.138V213H171.563V208.416C171.563 207.906 171.43 207.506 171.165 207.218C170.903 206.93 170.541 206.786 170.077 206.786C169.762 206.786 169.482 206.855 169.236 206.994C168.994 207.13 168.804 207.327 168.665 207.586C168.529 207.844 168.461 208.158 168.461 208.526Z" fill="#C5C7CB"/>
</g>
<defs>
<clipPath id="bgblur_0_878_4834_clip_path" transform="translate(65.9276 65.9276)"><path d="M0 12C0 5.37258 5.37258 0 12 0H248.75C255.377 0 260.75 5.37258 260.75 12V220C260.75 226.627 255.377 232 248.75 232H12C5.37259 232 0 226.627 0 220V12Z"/>
</clipPath><linearGradient id="paint0_linear_878_4834" x1="130.375" y1="0" x2="283.078" y2="152.557" gradientUnits="userSpaceOnUse">
<stop stop-color="#D2C2FF"/>
<stop offset="1" stop-color="white" stop-opacity="0"/>
</linearGradient>
<linearGradient id="paint1_linear_878_4834" x1="50.1129" y1="1.62634e-05" x2="236.966" y2="119.154" gradientUnits="userSpaceOnUse">
<stop offset="0.5" stop-color="#4D6380" stop-opacity="0.21"/>
<stop offset="1" stop-color="#A79263" stop-opacity="0.41"/>
</linearGradient>
<linearGradient id="paint2_linear_878_4834" x1="33.0903" y1="108.668" x2="44.954" y2="111.443" gradientUnits="userSpaceOnUse">
<stop stop-color="#4D1A70"/>
<stop offset="1" stop-color="#973490"/>
</linearGradient>
<linearGradient id="paint3_linear_878_4834" x1="80.8983" y1="120.07" x2="80.9429" y2="122.091" gradientUnits="userSpaceOnUse">
<stop stop-color="#4D1A70"/>
<stop offset="1" stop-color="#973490"/>
</linearGradient>
<linearGradient id="paint4_linear_878_4834" x1="209.172" y1="106.225" x2="228.494" y2="112.626" gradientUnits="userSpaceOnUse">
<stop stop-color="#4D1A70"/>
<stop offset="1" stop-color="#973490"/>
</linearGradient>
</defs>
</svg>
