<svg xmlns="http://www.w3.org/2000/svg" width="1147" height="420" viewBox="0 0 1147 420" fill="none" role="img">
  <title>Scope and Boundaries</title>
<defs>
    <linearGradient id="sbL_frameFill" x1="0" y1="0" x2="1147" y2="420" gradientUnits="userSpaceOnUse">
      <stop stop-color="#EDE8FF"/>
      <stop offset="1" stop-color="#E4EEFF"/>
</linearGradient>
    <linearGradient id="sbL_frameStroke" x1="1147" y1="0" x2="0" y2="420" gradientUnits="userSpaceOnUse">
      <stop stop-color="#C9D6F3"/>
      <stop offset="1" stop-color="#7E92B8"/>
</linearGradient>
    <linearGradient id="sbL_tabActive" x1="0" y1="0" x2="140" y2="40" gradientUnits="userSpaceOnUse">
      <stop stop-color="#00BCEB"/>
      <stop offset="1" stop-color="#187ADC"/>
</linearGradient>
    <filter id="sbL_soft" x="-20%" y="-20%" width="140%" height="140%">
      <feDropShadow dx="0" dy="10" stdDeviation="14" flood-color="#2264BE" flood-opacity="0.07"/>
    </filter>
</defs>
  <rect x="0.66" y="0.66" width="1145.68" height="418.68" rx="12" fill="url(#sbL_frameFill)" stroke="url(#sbL_frameStroke)" stroke-width="1.32"/>

  <g filter="url(#sbL_soft)">
    <rect x="56" y="44" width="1035" height="76" rx="12" fill="#FFFFFF" fill-opacity="0.92" stroke="#4F628D" stroke-opacity="0.28"/>
  </g>
  <text x="80" y="88" fill="#1B2745" font-family="Inter, system-ui, -apple-system, sans-serif" font-size="15" font-weight="600">Instructions via</text>
  <g font-family="Inter, system-ui, -apple-system, sans-serif" font-size="13" font-weight="600">
    <rect x="248" y="58" width="86" height="36" rx="8" fill="url(#sbL_tabActive)"/>
    <text x="291" y="81" fill="#FFFFFF" text-anchor="middle">Settings</text>
    <rect x="342" y="58" width="72" height="36" rx="8" fill="none" stroke="#4F628D" stroke-opacity="0.35"/>
    <text x="378" y="81" fill="#4A5870" text-anchor="middle">Chat</text>
    <rect x="422" y="58" width="64" height="36" rx="8" fill="none" stroke="#4F628D" stroke-opacity="0.35"/>
    <text x="454" y="81" fill="#4A5870" text-anchor="middle">File</text>
    <rect x="496" y="58" width="64" height="36" rx="8" fill="none" stroke="#4F628D" stroke-opacity="0.35"/>
    <text x="528" y="81" fill="#4A5870" text-anchor="middle">Q&amp;A</text>
  </g>
  <g transform="translate(808 66)" font-family="Inter, system-ui, -apple-system, sans-serif" font-size="13" font-weight="600">
    <circle cx="10" cy="10" r="8.5" stroke="#187ADC" stroke-width="1.35" fill="none"/>
    <path d="M14.2 5.2a6.2 6.2 0 0 0-9.8 5.6" stroke="#187ADC" stroke-width="1.35" fill="none" stroke-linecap="round"/>
    <path d="M15 3.5v4.2h-4" stroke="#187ADC" stroke-width="1.35" fill="none" stroke-linecap="round" stroke-linejoin="round"/>
    <text x="26" y="14" fill="#187ADC">Reset basic configuration</text>
  </g>

  <g filter="url(#sbL_soft)">
    <rect x="56" y="124" width="1035" height="280" rx="12" fill="#FFFFFF" fill-opacity="0.92" stroke="#4F628D" stroke-opacity="0.28"/>
  </g>

  <!-- Section 1 -->
  <g transform="translate(80 148)">
    <rect width="20" height="20" rx="5" fill="url(#sbL_tabActive)"/>
    <path d="M5.5 10.2 8.4 13 14.5 6.8" stroke="#FFFFFF" stroke-width="2" stroke-linecap="round" stroke-linejoin="round" fill="none"/>
    <text x="32" y="15" fill="#1B2745" font-family="Inter, system-ui, -apple-system, sans-serif" font-size="15" font-weight="700">1 of 3 Scope &amp; Boundaries</text>
    <path d="M1005 4l8 6-8 6z" fill="#4A5870"/>
  </g>
  <rect x="96" y="180" width="955" height="44" rx="10" fill="#F7F9FF" stroke="#4F628D" stroke-opacity="0.22"/>
  <rect x="96" y="230" width="955" height="44" rx="10" fill="#F7F9FF" stroke="#4F628D" stroke-opacity="0.22"/>
  <g transform="translate(116 202)">
    <rect width="18" height="18" rx="4" fill="url(#sbL_tabActive)"/>
    <path d="M4.5 9.2 7.2 11.8 12.5 5.8" stroke="#FFFFFF" stroke-width="1.6" stroke-linecap="round" stroke-linejoin="round" fill="none"/>
    <text x="28" y="13" fill="#293247" font-family="Inter, system-ui, -apple-system, sans-serif" font-size="13" font-weight="500">Update the item label if it doesn&apos;t match the defined scope</text>
  </g>
  <g transform="translate(116 252)">
    <rect width="18" height="18" rx="4" fill="url(#sbL_tabActive)"/>
    <path d="M4.5 9.2 7.2 11.8 12.5 5.8" stroke="#FFFFFF" stroke-width="1.6" stroke-linecap="round" stroke-linejoin="round" fill="none"/>
    <text x="28" y="13" fill="#293247" font-family="Inter, system-ui, -apple-system, sans-serif" font-size="13" font-weight="500">Extend the description to clarify boundaries without altering intent</text>
  </g>

  <!-- Section 2 -->
  <g transform="translate(80 290)">
    <rect width="20" height="20" rx="5" fill="none" stroke="#4F628D" stroke-opacity="0.45" stroke-width="1.5"/>
    <text x="32" y="15" fill="#4A5870" font-family="Inter, system-ui, -apple-system, sans-serif" font-size="15" font-weight="700">2 of 3 Another setting</text>
    <path d="M1005 4l8 6-8 6z" fill="#4A5870"/>
  </g>
  <rect x="96" y="318" width="955" height="40" rx="10" fill="#FAFBFF" stroke="#4F628D" stroke-opacity="0.18"/>
  <rect x="96" y="364" width="955" height="40" rx="10" fill="#FAFBFF" stroke="#4F628D" stroke-opacity="0.18"/>
  <g transform="translate(116 336)">
    <rect width="18" height="18" rx="4" fill="none" stroke="#4F628D" stroke-opacity="0.45" stroke-width="1.5"/>
    <text x="28" y="13" fill="#6B7A93" font-family="Inter, system-ui, -apple-system, sans-serif" font-size="13" font-weight="500">Optional refinement (off)</text>
  </g>
  <g transform="translate(116 382)">
    <rect width="18" height="18" rx="4" fill="none" stroke="#4F628D" stroke-opacity="0.45" stroke-width="1.5"/>
    <text x="28" y="13" fill="#6B7A93" font-family="Inter, system-ui, -apple-system, sans-serif" font-size="13" font-weight="500">Optional refinement (off)</text>
  </g>
</svg>
