<svg xmlns="http://www.w3.org/2000/svg" width="1147" height="420" viewBox="0 0 1147 420" fill="none" role="img">
  <title>Scope and Boundaries</title>
<defs>
    <linearGradient id="sbD_frameFill" x1="0" y1="0" x2="1147" y2="420" gradientUnits="userSpaceOnUse">
      <stop stop-color="#121A28"/>
      <stop offset="1" stop-color="#0B1018"/>
</linearGradient>
    <linearGradient id="sbD_frameStroke" x1="0" y1="0" x2="1147" y2="420" gradientUnits="userSpaceOnUse">
      <stop stop-color="#3A4A6E" stop-opacity="0.55"/>
      <stop offset="1" stop-color="#1BCDFF" stop-opacity="0.25"/>
</linearGradient>
    <linearGradient id="sbD_tabActive" x1="0" y1="0" x2="140" y2="40" gradientUnits="userSpaceOnUse">
      <stop stop-color="#1BCDFF"/>
      <stop offset="1" stop-color="#187ADC"/>
</linearGradient>
    <filter id="sbD_soft" x="-20%" y="-20%" width="140%" height="140%">
      <feDropShadow dx="0" dy="12" stdDeviation="18" flood-color="#1BCDFF" flood-opacity="0.06"/>
    </filter>
</defs>
  <rect x="0.66" y="0.66" width="1145.68" height="418.68" rx="12" fill="url(#sbD_frameFill)" stroke="url(#sbD_frameStroke)" stroke-width="1.32"/>

  <g filter="url(#sbD_soft)">
    <rect x="56" y="44" width="1035" height="76" rx="12" fill="#151C2A" fill-opacity="0.95" stroke="#FFFFFF" stroke-opacity="0.08"/>
  </g>
  <text x="80" y="88" fill="#E8ECF4" font-family="Inter, system-ui, -apple-system, sans-serif" font-size="15" font-weight="600">Instructions via</text>
  <g font-family="Inter, system-ui, -apple-system, sans-serif" font-size="13" font-weight="600">
    <rect x="248" y="58" width="86" height="36" rx="8" fill="url(#sbD_tabActive)"/>
    <text x="291" y="81" fill="#061018" text-anchor="middle">Settings</text>
    <rect x="342" y="58" width="72" height="36" rx="8" fill="none" stroke="#FFFFFF" stroke-opacity="0.14"/>
    <text x="378" y="81" fill="#9AA7BD" text-anchor="middle">Chat</text>
    <rect x="422" y="58" width="64" height="36" rx="8" fill="none" stroke="#FFFFFF" stroke-opacity="0.14"/>
    <text x="454" y="81" fill="#9AA7BD" text-anchor="middle">File</text>
    <rect x="496" y="58" width="64" height="36" rx="8" fill="none" stroke="#FFFFFF" stroke-opacity="0.14"/>
    <text x="528" y="81" fill="#9AA7BD" text-anchor="middle">Q&amp;A</text>
  </g>
  <g transform="translate(808 66)" font-family="Inter, system-ui, -apple-system, sans-serif" font-size="13" font-weight="600">
    <circle cx="10" cy="10" r="8.5" stroke="#3FC6EE" stroke-width="1.35" fill="none"/>
    <path d="M14.2 5.2a6.2 6.2 0 0 0-9.8 5.6" stroke="#3FC6EE" stroke-width="1.35" fill="none" stroke-linecap="round"/>
    <path d="M15 3.5v4.2h-4" stroke="#3FC6EE" stroke-width="1.35" fill="none" stroke-linecap="round" stroke-linejoin="round"/>
    <text x="26" y="14" fill="#3FC6EE">Reset basic configuration</text>
  </g>

  <g filter="url(#sbD_soft)">
    <rect x="56" y="124" width="1035" height="280" rx="12" fill="#151C2A" fill-opacity="0.95" stroke="#FFFFFF" stroke-opacity="0.08"/>
  </g>

  <g transform="translate(80 148)">
    <rect width="20" height="20" rx="5" fill="url(#sbD_tabActive)"/>
    <path d="M5.5 10.2 8.4 13 14.5 6.8" stroke="#061018" stroke-width="2" stroke-linecap="round" stroke-linejoin="round" fill="none"/>
    <text x="32" y="15" fill="#F2F5FB" font-family="Inter, system-ui, -apple-system, sans-serif" font-size="15" font-weight="700">1 of 3 Scope &amp; Boundaries</text>
    <path d="M1005 4l8 6-8 6z" fill="#9AA7BD"/>
  </g>
  <rect x="96" y="180" width="955" height="44" rx="10" fill="#0F1522" stroke="#FFFFFF" stroke-opacity="0.08"/>
  <rect x="96" y="230" width="955" height="44" rx="10" fill="#0F1522" stroke="#FFFFFF" stroke-opacity="0.08"/>
  <g transform="translate(116 202)">
    <rect width="18" height="18" rx="4" fill="url(#sbD_tabActive)"/>
    <path d="M4.5 9.2 7.2 11.8 12.5 5.8" stroke="#061018" stroke-width="1.6" stroke-linecap="round" stroke-linejoin="round" fill="none"/>
    <text x="28" y="13" fill="#D5DDE8" font-family="Inter, system-ui, -apple-system, sans-serif" font-size="13" font-weight="500">Update the item label if it doesn&apos;t match the defined scope</text>
  </g>
  <g transform="translate(116 252)">
    <rect width="18" height="18" rx="4" fill="url(#sbD_tabActive)"/>
    <path d="M4.5 9.2 7.2 11.8 12.5 5.8" stroke="#061018" stroke-width="1.6" stroke-linecap="round" stroke-linejoin="round" fill="none"/>
    <text x="28" y="13" fill="#D5DDE8" font-family="Inter, system-ui, -apple-system, sans-serif" font-size="13" font-weight="500">Extend the description to clarify boundaries without altering intent</text>
  </g>

  <g transform="translate(80 290)">
    <rect width="20" height="20" rx="5" fill="none" stroke="#FFFFFF" stroke-opacity="0.22" stroke-width="1.5"/>
    <text x="32" y="15" fill="#9AA7BD" font-family="Inter, system-ui, -apple-system, sans-serif" font-size="15" font-weight="700">2 of 3 Another setting</text>
    <path d="M1005 4l8 6-8 6z" fill="#9AA7BD"/>
  </g>
  <rect x="96" y="318" width="955" height="40" rx="10" fill="#0F1522" stroke="#FFFFFF" stroke-opacity="0.06"/>
  <rect x="96" y="364" width="955" height="40" rx="10" fill="#0F1522" stroke="#FFFFFF" stroke-opacity="0.06"/>
  <g transform="translate(116 336)">
    <rect width="18" height="18" rx="4" fill="none" stroke="#FFFFFF" stroke-opacity="0.22" stroke-width="1.5"/>
    <text x="28" y="13" fill="#7C8AA1" font-family="Inter, system-ui, -apple-system, sans-serif" font-size="13" font-weight="500">Optional refinement (off)</text>
  </g>
  <g transform="translate(116 382)">
    <rect width="18" height="18" rx="4" fill="none" stroke="#FFFFFF" stroke-opacity="0.22" stroke-width="1.5"/>
    <text x="28" y="13" fill="#7C8AA1" font-family="Inter, system-ui, -apple-system, sans-serif" font-size="13" font-weight="500">Optional refinement (off)</text>
  </g>
</svg>
