<svg width="62" height="62" viewBox="0 0 62 62" fill="none" xmlns="http://www.w3.org/2000/svg">
<style>
  .od { fill: #00142B; }
  @media (prefers-color-scheme: dark) { .od { fill: #E8E9EA; } }
</style>
<path d="M4.00002 33.875C4.00397 34.7752 4.74793 35.4974 5.65017 35.4935L21.9479 35.4579C22.862 35.4539 23.5862 34.7258 23.5822 33.8235C23.5783 32.9272 22.8462 32.1991 21.9321 32.2031L5.63434 32.2387C4.73408 32.2426 3.99606 32.9767 4.00002 33.875Z" fill="#17C7FF"/>
<path d="M15.0639 46.9877C15.517 47.7653 16.5221 48.0185 17.3017 47.5654L24.1931 43.5449C24.9826 43.0839 25.2457 42.0906 24.7926 41.3131C24.3415 40.5374 23.3443 40.2743 22.5548 40.7353L15.6634 44.7558C14.8838 45.2109 14.6127 46.214 15.0639 46.9897V46.9877Z" fill="#17C7FF"/>
<path d="M25.8687 51.7351C26.6502 52.1823 27.6474 51.8994 28.0946 51.1158L30.2374 48.0609C30.6905 47.2675 30.4214 46.2742 29.6399 45.827C28.8603 45.3819 27.8651 45.6529 27.412 46.4463L25.2692 49.5033C24.822 50.2868 25.0891 51.2919 25.8667 51.7371L25.8687 51.7351Z" fill="#17C7FF"/>
<path d="M49.6331 10.2125C48.8516 9.76536 47.8544 10.0483 47.4052 10.8318L39.2871 24.965C38.834 25.7584 39.103 26.7516 39.8846 27.1968C40.6642 27.642 41.6594 27.3709 42.1125 26.5775L50.2307 12.4464C50.6778 11.6628 50.4107 10.6577 49.6331 10.2125Z" fill="#74BF4B"/>
<path d="M22.248 22.9376C21.5574 23.5153 21.4763 24.5482 22.054 25.2407L24.1751 28.3134C24.7608 29.0139 25.7857 29.1069 26.4762 28.5291C27.1648 27.9533 27.2578 26.9264 26.6701 26.226L24.5491 23.1533C23.9693 22.4608 22.9345 22.3618 22.248 22.9376Z" fill="#F2643D"/>
<path d="M32.9778 14.168C32.0775 14.1719 31.3553 14.9159 31.3593 15.8181L31.3949 23.7978C31.3988 24.7119 32.127 25.4361 33.0292 25.4321C33.9255 25.4282 34.6536 24.6961 34.6497 23.782L34.6141 15.8023C34.6101 14.9001 33.876 14.164 32.9797 14.168H32.9778Z" fill="#0051AF"/>
<path class="od" d="M34.0621 40.0836C31.8658 40.0836 30.0851 38.3029 30.0851 36.1066C30.0851 33.9104 31.8658 32.1297 34.0621 32.1297C36.2583 32.1297 38.039 33.9104 38.039 36.1066C38.039 38.3029 36.2583 40.0836 34.0621 40.0836ZM34.0621 29.3438C30.3265 29.3438 27.2992 32.3711 27.2992 36.1066C27.2992 39.8422 30.3265 42.8695 34.0621 42.8695C37.7977 42.8695 40.8249 39.8422 40.8249 36.1066C40.8249 32.3711 37.7977 29.3438 34.0621 29.3438Z"/>
<path class="od" d="M54 42.6326H52.4654L52.1383 40.5265C51.652 41.3428 51.0147 41.9633 50.2264 42.3877C49.4717 42.7958 48.6163 43 47.6604 43C45.8826 43 44.4738 42.3632 43.434 41.0897C42.478 39.8979 42 38.3224 42 36.3632C42 34.0122 42.6205 32.2245 43.8616 31C44.8679 30.0204 46.1677 29.5306 47.761 29.5306C49.7233 29.5306 51.174 30.2979 52.1132 31.8326V25H54V42.6326ZM43.9371 36.3877C43.9371 38.1347 44.3815 39.4571 45.2704 40.3551C45.9916 41.0897 46.914 41.4571 48.0377 41.4571C49.3627 41.4571 50.4109 40.9591 51.1824 39.9632C51.8867 39.0489 52.239 37.8408 52.239 36.3388C52.239 34.5428 51.8029 33.1796 50.9308 32.249C50.1929 31.4653 49.2369 31.0735 48.0629 31.0735C46.7212 31.0735 45.6897 31.5633 44.9685 32.5428C44.2809 33.4734 43.9371 34.755 43.9371 36.3877Z"/>
</svg>
