<svg width="24" height="24" viewBox="0 0 24 24" fill="none" xmlns="http://www.w3.org/2000/svg">
<path d="M11.9998 15.275C11.8665 15.275 11.7415 15.2542 11.6248 15.2125C11.5081 15.1708 11.3998 15.1 11.2998 15L6.6998 10.4C6.51647 10.2167 6.4248 9.98333 6.4248 9.7C6.4248 9.41667 6.51647 9.18333 6.6998 9C6.88314 8.81667 7.11647 8.725 7.3998 8.725C7.68314 8.725 7.91647 8.81667 8.0998 9L11.9998 12.9L15.8998 9C16.0831 8.81667 16.3165 8.725 16.5998 8.725C16.8831 8.725 17.1165 8.81667 17.2998 9C17.4831 9.18333 17.5748 9.41667 17.5748 9.7C17.5748 9.98333 17.4831 10.2167 17.2998 10.4L12.6998 15C12.5998 15.1 12.4915 15.1708 12.3748 15.2125C12.2581 15.2542 12.1331 15.275 11.9998 15.275Z" fill="#3C4551"/>
</svg>
