<svg width="110" height="45" viewBox="0 0 110 45" fill="none" xmlns="http://www.w3.org/2000/svg">
<g clip-path="url(#clip0_791_4306)">
<mask id="mask0_791_4306" style="mask-type:luminance" maskUnits="userSpaceOnUse" x="0" y="0" width="110" height="45">
<path d="M109.359 0H0V45H109.359V0Z" fill="white"/>
</mask>
<g mask="url(#mask0_791_4306)">
<path d="M41.2506 42.0934C41.2506 41.6818 41.1477 41.3712 40.9419 41.1654C40.7777 40.9972 40.564 40.9141 40.2989 40.9141C39.9922 40.9141 39.7488 41.0249 39.5668 41.2485C39.3947 41.4622 39.3076 41.7451 39.3076 42.0934C39.3076 42.5148 39.4105 42.8353 39.6163 43.0589C39.7884 43.2528 40.0159 43.3498 40.2969 43.3498C40.6115 43.3498 40.8529 43.235 41.0151 43.0035C41.1714 42.7898 41.2486 42.4871 41.2486 42.0953L41.2506 42.0934ZM39.2324 43.7712H38.7338V39.2303H39.3393V40.9458C39.5965 40.5797 39.9625 40.3977 40.4374 40.3977C40.9122 40.3977 41.2743 40.5659 41.5355 40.9022C41.767 41.205 41.8817 41.6066 41.8817 42.1072C41.8817 42.7008 41.7235 43.1539 41.4089 43.4705C41.1437 43.7356 40.8054 43.8682 40.3938 43.8682C39.9269 43.8682 39.5727 43.6921 39.3274 43.3379L39.2324 43.7732V43.7712Z" fill="white"/>
<path d="M45.1859 40.4908L44.0442 43.8148C43.8938 44.2561 43.7474 44.5568 43.6089 44.7171C43.4447 44.907 43.233 45 42.9718 45C42.863 45 42.7324 44.9802 42.58 44.9426V44.45C42.6968 44.4796 42.8036 44.4935 42.8946 44.4935C43.0252 44.4935 43.1261 44.448 43.1974 44.357C43.2686 44.2659 43.3596 44.0701 43.4684 43.7673H43.2726L42.0676 40.4868H42.7245L43.6524 43.2747L44.5804 40.4868H45.1859V40.4908Z" fill="white"/>
<path d="M52.6053 39.2284V43.8049H53.7489V39.2284H52.6053ZM50.9908 40.5204C50.9908 40.1504 50.9789 39.816 50.9947 39.4856C51.0026 39.3174 50.9235 39.2501 50.787 39.2383C50.3873 39.2046 49.9797 39.1275 49.5859 39.171C47.6687 39.3847 46.99 41.387 47.8032 42.7701C48.4364 43.8504 49.7759 44.1214 50.8602 43.7791C50.9096 43.7633 50.9789 43.704 50.9809 43.6624C50.9908 43.2904 50.9868 42.9185 50.9868 42.5999C50.601 42.6494 50.2508 42.7325 49.8986 42.7305C49.2812 42.7285 48.8064 42.2734 48.749 41.6937C48.6837 41.0309 49.026 40.5164 49.6453 40.3423C50.1024 40.2137 50.5297 40.3384 50.9908 40.5204ZM63.1314 39.2996C61.8513 38.9039 60.6483 39.2442 60.027 40.1682C59.4414 41.0388 59.4968 42.2517 60.1596 43.0629C60.8026 43.8504 62.1105 44.1491 63.1275 43.7336C63.1314 43.6842 63.1374 43.6308 63.1374 43.5773C63.1374 43.235 63.1374 42.8947 63.1374 42.5307C63.0444 42.5643 62.9732 42.6098 62.898 42.6177C62.5438 42.6573 62.1797 42.7562 61.8374 42.7067C61.1964 42.6157 60.8501 42.0518 60.9134 41.3415C60.9649 40.7697 61.4635 40.2948 62.063 40.3047C62.4191 40.3107 62.7733 40.4017 63.1314 40.4531V39.2996ZM55.31 42.8195C55.31 43.051 55.3021 43.3458 55.318 43.6426C55.3219 43.702 55.4109 43.8009 55.4663 43.8049C56.0283 43.8326 56.6001 43.9137 57.1521 43.8484C58.1375 43.7317 58.7132 42.8354 58.4283 41.9628C58.27 41.4741 57.8882 41.2228 57.4311 41.0566C57.2293 40.9834 57.0116 40.9438 56.8296 40.837C56.7069 40.7657 56.5526 40.5976 56.5645 40.4907C56.5763 40.3779 56.7584 40.2335 56.889 40.1979C57.0987 40.1425 57.3322 40.1524 57.5538 40.1642C57.7536 40.1741 57.9515 40.2256 58.1572 40.2592V39.2224C57.6586 39.2026 57.166 39.1433 56.6792 39.173C55.9214 39.2185 55.4347 39.7032 55.3239 40.4353C55.2329 41.0447 55.587 41.575 56.2835 41.8559C56.4992 41.943 56.7267 42.0004 56.9404 42.0914C57.1205 42.1666 57.3104 42.2972 57.2313 42.5089C57.1798 42.6454 56.9978 42.8175 56.8652 42.8255C56.3627 42.8571 55.8561 42.8255 55.3081 42.8195H55.31Z" fill="white"/>
<path d="M66.7855 42.7344C66.1128 42.7344 65.5706 42.1863 65.5845 41.5195C65.5983 40.8448 66.1148 40.3423 66.7954 40.3443C67.4938 40.3443 68.0122 40.8607 68.0103 41.5433C68.0063 42.218 67.476 42.7344 66.7875 42.7344H66.7855ZM66.8013 39.1512C65.3965 39.1512 64.3617 40.1701 64.3617 41.5472C64.3617 42.8967 65.4104 43.9196 66.7954 43.9196C68.1883 43.9196 69.2409 42.8868 69.239 41.5215C69.239 40.1662 68.1923 39.1492 66.8013 39.1492V39.1512Z" fill="white"/>
<path d="M1.58398e-05 23.8746C0.00397304 24.7748 0.747927 25.497 1.65017 25.4931L17.9479 25.4575C18.862 25.4535 19.5862 24.7254 19.5822 23.8231C19.5783 22.9268 18.8462 22.1987 17.9321 22.2027L1.63434 22.2383C0.734076 22.2422 -0.00394136 22.9763 1.58398e-05 23.8746Z" fill="#00BCEB"/>
<path d="M11.0639 36.9867C11.517 37.7643 12.5221 38.0175 13.3017 37.5644L20.1931 33.5439C20.9826 33.0829 21.2457 32.0896 20.7926 31.3121C20.3415 30.5364 19.3443 30.2733 18.5548 30.7343L11.6634 34.7548C10.8838 35.2099 10.6127 36.213 11.0639 36.9887V36.9867Z" fill="#00BCEB"/>
<path d="M21.8687 41.7353C22.6502 42.1825 23.6474 41.8996 24.0946 41.116L26.2374 38.0611C26.6905 37.2677 26.4214 36.2744 25.6399 35.8272C24.8603 35.3821 23.8651 35.6531 23.412 36.4465L21.2692 39.5035C20.822 40.287 21.0891 41.2921 21.8667 41.7373L21.8687 41.7353Z" fill="#00BCEB"/>
<path d="M45.6331 0.212523C44.8516 -0.23464 43.8544 0.0482995 43.4052 0.831825L35.2871 14.965C34.834 15.7584 35.103 16.7516 35.8846 17.1968C36.6642 17.642 37.6594 17.3709 38.1125 16.5775L46.2307 2.44636C46.6778 1.66284 46.4107 0.657708 45.6331 0.212523Z" fill="#74BF4B"/>
<path d="M18.248 12.9388C17.5574 13.5165 17.4763 14.5494 18.054 15.2419L20.1751 18.3146C20.7608 19.0151 21.7857 19.1081 22.4762 18.5303C23.1648 17.9545 23.2578 16.9276 22.6701 16.2272L20.5491 13.1545C19.9693 12.462 18.9345 12.363 18.248 12.9388Z" fill="#FF6D2D"/>
<path d="M28.9778 4.16774C28.0775 4.1717 27.3553 4.91565 27.3593 5.81789L27.3949 13.7976C27.3988 14.7117 28.127 15.4359 29.0292 15.4319C29.9255 15.428 30.6536 14.6959 30.6497 13.7818L30.6141 5.80206C30.6101 4.89982 29.876 4.16378 28.9797 4.16774H28.9778Z" fill="#0051AF"/>
<path d="M38.7417 19.7294H41.6721V28.0811C41.6721 29.7095 42.4694 30.5227 44.0642 30.5227C44.9921 30.5227 45.7163 30.1883 46.2367 29.5215C46.6601 28.9517 46.8718 28.2512 46.8718 27.4222V19.7314H49.8021V32.4281H47.3843L47.0677 31.0114C46.1556 32.2005 44.8853 32.7941 43.2589 32.7941C41.7611 32.7941 40.6135 32.339 39.8161 31.4269C39.0999 30.5959 38.7417 29.4582 38.7417 28.0079V19.7294Z" fill="white"/>
<path d="M59.3366 30.2773V32.4993C58.652 32.6952 58.0011 32.7921 57.3838 32.7921C56.1293 32.7921 55.1776 32.4182 54.5267 31.6683C53.9727 31.0332 53.6957 30.1784 53.6957 29.104V21.9732H51.7903V19.7274H53.6957L53.8915 16.6745H56.626V19.7274H59.3129V21.9732H56.626V29.201C56.626 30.0478 57.0573 30.4712 57.92 30.4712C58.2939 30.4712 58.7668 30.4059 59.3366 30.2754V30.2773Z" fill="white"/>
<path d="M63.5486 28.8112C63.7761 30.032 64.6962 30.6434 66.3068 30.6434C67.2011 30.6434 67.8778 30.4732 68.3328 30.1309C68.7068 29.8381 68.8948 29.4562 68.8948 28.9833C68.8948 28.3818 68.5683 27.9327 67.9173 27.6399C67.5434 27.4776 66.7203 27.2501 65.452 26.9572C63.8889 26.5991 62.775 26.1104 62.1062 25.4931C61.4374 24.8916 61.105 24.1021 61.105 23.1247C61.105 21.8881 61.6096 20.9344 62.6186 20.2676C63.513 19.6661 64.7437 19.3634 66.3048 19.3634C67.8659 19.3634 69.2113 19.7452 70.1868 20.511C71.0336 21.1619 71.5619 22.0404 71.7736 23.1484H68.7939C68.5505 22.0582 67.7036 21.5121 66.2553 21.5121C64.807 21.5121 64.0571 21.9593 64.0571 22.8556C64.0571 23.3107 64.2431 23.653 64.619 23.8805C64.993 24.1081 65.7508 24.3613 66.8904 24.6383C68.6494 25.0459 69.8682 25.501 70.5528 26.0055C71.4155 26.6407 71.8468 27.535 71.8468 28.6905C71.8468 30.0082 71.3106 31.043 70.2343 31.791C69.2568 32.4577 67.9391 32.7921 66.2791 32.7921C64.5379 32.7921 63.145 32.3766 62.1042 31.5476C61.2257 30.8472 60.7133 29.937 60.5649 28.8132H63.5446L63.5486 28.8112Z" fill="white"/>
<path d="M76.8681 32.4261H73.9379V14.8463H76.8681V21.0492C77.7802 19.9253 79.0091 19.3634 80.5543 19.3634C82.0996 19.3634 83.2492 19.8363 84.0466 20.7801C84.7628 21.6111 85.1208 22.7429 85.1208 24.1734V32.4261H82.1906V24.2466C82.1906 22.5054 81.3853 21.6329 79.7728 21.6329C78.8765 21.6329 78.1602 21.9415 77.624 22.5608C77.1195 23.1307 76.8681 23.8548 76.8681 24.7333V32.4241V32.4261Z" fill="white"/>
<path d="M90.5219 32.4261H87.5916V19.7294H90.5219V32.4261Z" fill="white"/>
<path d="M100.789 14.8205V17.1156C99.9913 16.9039 99.3562 16.7991 98.8853 16.7991C97.9415 16.7991 97.4686 17.2462 97.4686 18.1425V19.7294H100.229V21.9751H97.4686V32.426H94.5383V21.9751H92.6329V19.7294H94.5383V18.289C94.5383 17.0187 94.9281 16.0432 95.7096 15.3587C96.3942 14.773 97.2885 14.4802 98.3965 14.4802C99.1128 14.4802 99.9102 14.5949 100.789 14.8225V14.8205Z" fill="white"/>
<path d="M109.36 30.2773V32.4993C108.678 32.6952 108.025 32.7921 107.407 32.7921C106.153 32.7921 105.201 32.4182 104.55 31.6683C103.996 31.0332 103.719 30.1784 103.719 29.104V21.9732H101.814V19.7274H103.719L103.915 16.6745H106.65V19.7274H109.336V21.9732H106.65V29.201C106.65 30.0478 107.081 30.4712 107.944 30.4712C108.317 30.4712 108.79 30.4059 109.36 30.2754V30.2773Z" fill="white"/>
<path d="M91.1038 15.4695C91.1038 16.5755 90.2055 17.4738 89.0995 17.4738C87.9934 17.4738 87.0951 16.5755 87.0951 15.4695C87.0951 14.3634 87.9914 13.4652 89.0995 13.4652C90.2075 13.4652 91.1038 14.3634 91.1038 15.4695Z" fill="white"/>
<path d="M30.0621 30.0834C27.8658 30.0834 26.0851 28.3027 26.0851 26.1064C26.0851 23.9102 27.8658 22.1295 30.0621 22.1295C32.2583 22.1295 34.039 23.9102 34.039 26.1064C34.039 28.3027 32.2583 30.0834 30.0621 30.0834ZM30.0621 19.3436C26.3265 19.3436 23.2992 22.3709 23.2992 26.1064C23.2992 29.842 26.3265 32.8693 30.0621 32.8693C33.7977 32.8693 36.8249 29.842 36.8249 26.1064C36.8249 22.3709 33.7977 19.3436 30.0621 19.3436Z" fill="white"/>
</g>
</g>
<defs>
<clipPath id="clip0_791_4306">
<rect width="110" height="45" fill="white"/>
</clipPath>
</defs>
</svg>
