<svg width="767" height="902" viewBox="0 0 767 902" fill="none" xmlns="http://www.w3.org/2000/svg">
<g clip-path="url(#clip0_483_5163)">
<path d="M38.1879 449.559L222.683 130.24C304.605 -11.5476 509.285 -11.5145 591.161 130.3C673.038 272.114 570.726 449.388 406.973 449.441L38.1879 449.559Z" fill="#004BA8" fill-opacity="0.2"/>
<path d="M38.1879 449.56L222.683 768.879C304.605 910.667 509.285 910.634 591.161 768.819C673.038 627.005 570.726 449.731 406.973 449.678L38.1879 449.56Z" fill="#C62953" fill-opacity="0.2"/>
<path d="M45.3652 451.661L364.802 267.371C506.642 185.54 683.884 287.908 683.884 451.661C683.884 615.414 506.642 717.782 364.802 635.951L45.3652 451.661Z" fill="#00B285" fill-opacity="0.2"/>
<path d="M3.5 898C3.5 898.276 3.72386 898.5 4 898.5C4.27614 898.5 4.5 898.276 4.5 898H4H3.5ZM4.35355 23.6464C4.15829 23.4512 3.84171 23.4512 3.64645 23.6464L0.464466 26.8284C0.269204 27.0237 0.269204 27.3403 0.464466 27.5355C0.659728 27.7308 0.976311 27.7308 1.17157 27.5355L4 24.7071L6.82843 27.5355C7.02369 27.7308 7.34027 27.7308 7.53553 27.5355C7.7308 27.3403 7.7308 27.0237 7.53553 26.8284L4.35355 23.6464ZM4 898H4.5V24H4H3.5V898H4Z" fill="url(#paint0_linear_483_5163)"/>
<path d="M30.0572 30.7273V46H27.5962L20.3999 35.5969H20.2731V46H17.5064V30.7273H19.9822L27.1712 41.1378H27.3054V30.7273H30.0572ZM37.949 46.2237C36.8303 46.2237 35.8609 45.9776 35.0406 45.4854C34.2203 44.9933 33.5839 44.3047 33.1315 43.4197C32.684 42.5348 32.4603 41.5007 32.4603 40.3175C32.4603 39.1342 32.684 38.0977 33.1315 37.2077C33.5839 36.3178 34.2203 35.6268 35.0406 35.1346C35.8609 34.6424 36.8303 34.3963 37.949 34.3963C39.0676 34.3963 40.037 34.6424 40.8573 35.1346C41.6776 35.6268 42.3115 36.3178 42.759 37.2077C43.2114 38.0977 43.4376 39.1342 43.4376 40.3175C43.4376 41.5007 43.2114 42.5348 42.759 43.4197C42.3115 44.3047 41.6776 44.9933 40.8573 45.4854C40.037 45.9776 39.0676 46.2237 37.949 46.2237ZM37.9639 44.0611C38.5704 44.0611 39.0775 43.8945 39.4852 43.5614C39.8928 43.2234 40.1961 42.771 40.395 42.2042C40.5988 41.6374 40.7007 41.006 40.7007 40.31C40.7007 39.609 40.5988 38.9751 40.395 38.4084C40.1961 37.8366 39.8928 37.3817 39.4852 37.0437C39.0775 36.7056 38.5704 36.5366 37.9639 36.5366C37.3424 36.5366 36.8254 36.7056 36.4127 37.0437C36.0051 37.3817 35.6993 37.8366 35.4955 38.4084C35.2966 38.9751 35.1972 39.609 35.1972 40.31C35.1972 41.006 35.2966 41.6374 35.4955 42.2042C35.6993 42.771 36.0051 43.2234 36.4127 43.5614C36.8254 43.8945 37.3424 44.0611 37.9639 44.0611ZM47.7647 46L44.5282 34.5455H47.28L49.2935 42.5994H49.3979L51.4561 34.5455H54.1781L56.2363 42.5547H56.3482L58.3319 34.5455H61.0911L57.8471 46H55.0357L52.888 38.2592H52.7314L50.5836 46H47.7647Z" fill="#004BA8"/>
<path d="M20.8352 867.047V864.727H33.0206V867.047H28.3001V880H25.5558V867.047H20.8352ZM35.2504 880V868.545H37.9499V880H35.2504ZM36.6076 866.92C36.18 866.92 35.8121 866.778 35.5039 866.495C35.1957 866.206 35.0415 865.861 35.0415 865.458C35.0415 865.05 35.1957 864.705 35.5039 864.422C35.8121 864.133 36.18 863.989 36.6076 863.989C37.0401 863.989 37.408 864.133 37.7113 864.422C38.0195 864.705 38.1737 865.05 38.1737 865.458C38.1737 865.861 38.0195 866.206 37.7113 866.495C37.408 866.778 37.0401 866.92 36.6076 866.92ZM40.7259 880V868.545H43.3062V870.492H43.4404C43.6791 869.836 44.0743 869.324 44.6262 868.956C45.178 868.583 45.8367 868.396 46.6024 868.396C47.3779 868.396 48.0317 868.585 48.5637 868.963C49.1006 869.336 49.4784 869.846 49.6972 870.492H49.8165C50.07 869.855 50.4976 869.348 51.0992 868.971C51.7057 868.588 52.4241 868.396 53.2544 868.396C54.3083 868.396 55.1684 868.729 55.8346 869.396C56.5008 870.062 56.8339 871.034 56.8339 872.311V880H54.1269V872.729C54.1269 872.018 53.9379 871.499 53.5601 871.17C53.1823 870.837 52.7199 870.671 52.173 870.671C51.5218 870.671 51.0122 870.875 50.6443 871.282C50.2813 871.685 50.0999 872.21 50.0999 872.856V880H47.4525V872.617C47.4525 872.026 47.2735 871.553 46.9156 871.2C46.5626 870.847 46.1002 870.671 45.5285 870.671C45.1407 870.671 44.7877 870.77 44.4695 870.969C44.1514 871.163 43.8978 871.439 43.7089 871.797C43.52 872.15 43.4255 872.562 43.4255 873.035V880H40.7259ZM64.6436 880.224C63.4952 880.224 62.5034 879.985 61.6681 879.508C60.8379 879.026 60.199 878.344 59.7516 877.464C59.3042 876.58 59.0804 875.538 59.0804 874.34C59.0804 873.162 59.3042 872.127 59.7516 871.238C60.204 870.343 60.8354 869.647 61.6458 869.15C62.4561 868.647 63.4082 868.396 64.502 868.396C65.2079 868.396 65.8741 868.511 66.5005 868.739C67.1319 868.963 67.6887 869.311 68.171 869.783C68.6582 870.256 69.041 870.857 69.3194 871.588C69.5978 872.314 69.737 873.179 69.737 874.183V875.011H60.3482V873.191H67.1493C67.1444 872.674 67.0325 872.214 66.8137 871.812C66.595 871.404 66.2892 871.083 65.8965 870.85C65.5087 870.616 65.0563 870.499 64.5392 870.499C63.9874 870.499 63.5027 870.634 63.085 870.902C62.6674 871.165 62.3418 871.513 62.1081 871.946C61.8794 872.374 61.7626 872.843 61.7576 873.355V874.944C61.7576 875.61 61.8794 876.182 62.123 876.659C62.3667 877.131 62.7072 877.494 63.1447 877.748C63.5822 877.996 64.0943 878.121 64.6809 878.121C65.0737 878.121 65.4292 878.066 65.7473 877.957C66.0655 877.842 66.3414 877.676 66.5751 877.457C66.8088 877.238 66.9853 876.967 67.1046 876.644L69.6252 876.928C69.4661 877.594 69.1628 878.175 68.7154 878.673C68.2729 879.165 67.7061 879.548 67.0151 879.821C66.324 880.089 65.5336 880.224 64.6436 880.224Z" fill="#004BA8"/>
<path d="M71.5064 706.08V690.807H77.2337C78.407 690.807 79.3913 691.026 80.1868 691.464C80.9872 691.901 81.5913 692.503 81.9989 693.268C82.4116 694.029 82.6179 694.894 82.6179 695.863C82.6179 696.843 82.4116 697.713 81.9989 698.474C81.5863 699.234 80.9773 699.833 80.1719 700.271C79.3665 700.703 78.3746 700.92 77.1964 700.92H73.4006V698.645H76.8235C77.5096 698.645 78.0714 698.526 78.5089 698.287C78.9464 698.048 79.2695 697.72 79.4783 697.303C79.6921 696.885 79.799 696.405 79.799 695.863C79.799 695.322 79.6921 694.844 79.4783 694.432C79.2695 694.019 78.9439 693.698 78.5014 693.47C78.0639 693.236 77.4996 693.119 76.8086 693.119H74.2731V706.08H71.5064ZM89.7341 706.304C88.6155 706.304 87.646 706.058 86.8257 705.566C86.0054 705.073 85.3691 704.385 84.9166 703.5C84.4692 702.615 84.2455 701.581 84.2455 700.398C84.2455 699.214 84.4692 698.178 84.9166 697.288C85.3691 696.398 86.0054 695.707 86.8257 695.215C87.646 694.722 88.6155 694.476 89.7341 694.476C90.8527 694.476 91.8222 694.722 92.6425 695.215C93.4628 695.707 94.0967 696.398 94.5441 697.288C94.9965 698.178 95.2227 699.214 95.2227 700.398C95.2227 701.581 94.9965 702.615 94.5441 703.5C94.0967 704.385 93.4628 705.073 92.6425 705.566C91.8222 706.058 90.8527 706.304 89.7341 706.304ZM89.749 704.141C90.3556 704.141 90.8627 703.975 91.2703 703.642C91.678 703.303 91.9813 702.851 92.1801 702.284C92.384 701.718 92.4859 701.086 92.4859 700.39C92.4859 699.689 92.384 699.055 92.1801 698.488C91.9813 697.917 91.678 697.462 91.2703 697.124C90.8627 696.786 90.3556 696.617 89.749 696.617C89.1276 696.617 88.6105 696.786 88.1979 697.124C87.7902 697.462 87.4845 697.917 87.2806 698.488C87.0818 699.055 86.9823 699.689 86.9823 700.39C86.9823 701.086 87.0818 701.718 87.2806 702.284C87.4845 702.851 87.7902 703.303 88.1979 703.642C88.6105 703.975 89.1276 704.141 89.749 704.141ZM103.234 694.626V696.714H96.649V694.626H103.234ZM98.2747 691.881H100.974V702.635C100.974 702.998 101.029 703.276 101.138 703.47C101.253 703.659 101.402 703.788 101.586 703.858C101.77 703.927 101.974 703.962 102.197 703.962C102.366 703.962 102.52 703.95 102.66 703.925C102.804 703.9 102.913 703.878 102.988 703.858L103.443 705.968C103.298 706.018 103.092 706.073 102.824 706.132C102.56 706.192 102.237 706.227 101.854 706.237C101.178 706.257 100.569 706.155 100.027 705.931C99.4853 705.702 99.0552 705.349 98.737 704.872C98.4238 704.395 98.2697 703.798 98.2747 703.082V691.881ZM110.44 706.304C109.291 706.304 108.299 706.065 107.464 705.588C106.634 705.106 105.995 704.425 105.547 703.545C105.1 702.66 104.876 701.618 104.876 700.42C104.876 699.242 105.1 698.208 105.547 697.318C106 696.423 106.631 695.727 107.442 695.23C108.252 694.727 109.204 694.476 110.298 694.476C111.004 694.476 111.67 694.591 112.296 694.819C112.928 695.043 113.485 695.391 113.967 695.863C114.454 696.336 114.837 696.937 115.115 697.668C115.394 698.394 115.533 699.259 115.533 700.263V701.091H106.144V699.271H112.945C112.94 698.754 112.828 698.295 112.61 697.892C112.391 697.484 112.085 697.164 111.692 696.93C111.305 696.696 110.852 696.579 110.335 696.579C109.783 696.579 109.299 696.714 108.881 696.982C108.463 697.246 108.138 697.594 107.904 698.026C107.675 698.454 107.559 698.923 107.554 699.436V701.024C107.554 701.69 107.675 702.262 107.919 702.739C108.163 703.211 108.503 703.574 108.941 703.828C109.378 704.077 109.89 704.201 110.477 704.201C110.87 704.201 111.225 704.146 111.543 704.037C111.861 703.922 112.137 703.756 112.371 703.537C112.605 703.318 112.781 703.047 112.9 702.724L115.421 703.008C115.262 703.674 114.959 704.256 114.511 704.753C114.069 705.245 113.502 705.628 112.811 705.901C112.12 706.17 111.329 706.304 110.44 706.304ZM120.516 699.368V706.08H117.817V694.626H120.397V696.572H120.531C120.795 695.931 121.215 695.421 121.792 695.043C122.373 694.665 123.092 694.476 123.947 694.476C124.737 694.476 125.426 694.645 126.012 694.983C126.604 695.322 127.061 695.811 127.385 696.453C127.713 697.094 127.874 697.872 127.869 698.787V706.08H125.17V699.204C125.17 698.439 124.971 697.84 124.573 697.407C124.18 696.975 123.636 696.758 122.94 696.758C122.468 696.758 122.048 696.863 121.68 697.072C121.317 697.275 121.031 697.571 120.822 697.959C120.618 698.347 120.516 698.817 120.516 699.368ZM136.333 694.626V696.714H129.749V694.626H136.333ZM131.374 691.881H134.074V702.635C134.074 702.998 134.129 703.276 134.238 703.47C134.352 703.659 134.501 703.788 134.685 703.858C134.869 703.927 135.073 703.962 135.297 703.962C135.466 703.962 135.62 703.95 135.759 703.925C135.903 703.9 136.013 703.878 136.087 703.858L136.542 705.968C136.398 706.018 136.192 706.073 135.923 706.132C135.66 706.192 135.337 706.227 134.954 706.237C134.278 706.257 133.669 706.155 133.127 705.931C132.585 705.702 132.155 705.349 131.837 704.872C131.523 704.395 131.369 703.798 131.374 703.082V691.881ZM138.591 706.08V694.626H141.291V706.08H138.591ZM139.948 693C139.521 693 139.153 692.858 138.845 692.575C138.536 692.286 138.382 691.941 138.382 691.538C138.382 691.131 138.536 690.785 138.845 690.502C139.153 690.213 139.521 690.069 139.948 690.069C140.381 690.069 140.749 690.213 141.052 690.502C141.36 690.785 141.514 691.131 141.514 691.538C141.514 691.941 141.36 692.286 141.052 692.575C140.749 692.858 140.381 693 139.948 693ZM147.363 706.311C146.637 706.311 145.983 706.182 145.402 705.923C144.825 705.66 144.368 705.272 144.029 704.76C143.696 704.248 143.53 703.617 143.53 702.866C143.53 702.22 143.649 701.685 143.888 701.263C144.126 700.84 144.452 700.502 144.865 700.248C145.277 699.995 145.742 699.803 146.259 699.674C146.781 699.54 147.321 699.443 147.877 699.383C148.549 699.314 149.093 699.252 149.511 699.197C149.928 699.137 150.232 699.048 150.42 698.928C150.614 698.804 150.711 698.613 150.711 698.354V698.309C150.711 697.748 150.545 697.313 150.212 697.004C149.879 696.696 149.399 696.542 148.772 696.542C148.111 696.542 147.587 696.686 147.199 696.975C146.816 697.263 146.558 697.604 146.423 697.996L143.903 697.638C144.102 696.942 144.43 696.361 144.887 695.893C145.344 695.421 145.904 695.068 146.565 694.834C147.226 694.596 147.957 694.476 148.757 694.476C149.309 694.476 149.859 694.541 150.406 694.67C150.952 694.8 151.452 695.013 151.904 695.312C152.357 695.605 152.72 696.005 152.993 696.512C153.272 697.019 153.411 697.653 153.411 698.414V706.08H150.816V704.507H150.726C150.562 704.825 150.331 705.123 150.033 705.401C149.739 705.675 149.369 705.896 148.922 706.065C148.479 706.229 147.96 706.311 147.363 706.311ZM148.064 704.328C148.606 704.328 149.076 704.221 149.473 704.007C149.871 703.788 150.177 703.5 150.391 703.142C150.609 702.784 150.719 702.394 150.719 701.971V700.621C150.634 700.691 150.49 700.756 150.286 700.815C150.087 700.875 149.864 700.927 149.615 700.972C149.366 701.017 149.12 701.056 148.877 701.091C148.633 701.126 148.422 701.156 148.243 701.181C147.84 701.235 147.48 701.325 147.162 701.449C146.843 701.573 146.592 701.747 146.408 701.971C146.224 702.19 146.132 702.473 146.132 702.821C146.132 703.318 146.314 703.694 146.677 703.947C147.04 704.201 147.502 704.328 148.064 704.328ZM158.825 690.807V706.08H156.125V690.807H158.825Z" fill="#004BA8"/>
<path d="M615.303 113.264H618.07V123.242C618.07 124.336 617.811 125.298 617.294 126.128C616.782 126.959 616.061 127.607 615.131 128.075C614.202 128.537 613.115 128.768 611.872 128.768C610.625 128.768 609.536 128.537 608.606 128.075C607.676 127.607 606.956 126.959 606.443 126.128C605.931 125.298 605.675 124.336 605.675 123.242V113.264H608.442V123.011C608.442 123.648 608.581 124.214 608.86 124.711C609.143 125.209 609.541 125.599 610.053 125.882C610.565 126.161 611.171 126.3 611.872 126.3C612.573 126.3 613.18 126.161 613.692 125.882C614.209 125.599 614.607 125.209 614.885 124.711C615.164 124.214 615.303 123.648 615.303 123.011V113.264ZM626.677 117.083V119.171H620.092V117.083H626.677ZM621.718 114.338H624.418V125.092C624.418 125.455 624.472 125.733 624.582 125.927C624.696 126.116 624.845 126.245 625.029 126.315C625.213 126.384 625.417 126.419 625.641 126.419C625.81 126.419 625.964 126.407 626.103 126.382C626.247 126.357 626.357 126.335 626.431 126.315L626.886 128.425C626.742 128.475 626.536 128.53 626.267 128.589C626.004 128.649 625.68 128.684 625.298 128.694C624.621 128.714 624.012 128.612 623.471 128.388C622.929 128.159 622.499 127.806 622.18 127.329C621.867 126.852 621.713 126.255 621.718 125.539V114.338ZM633.808 128.761C632.69 128.761 631.72 128.515 630.9 128.023C630.08 127.53 629.443 126.842 628.991 125.957C628.543 125.072 628.32 124.038 628.32 122.855C628.32 121.671 628.543 120.635 628.991 119.745C629.443 118.855 630.08 118.164 630.9 117.672C631.72 117.18 632.69 116.933 633.808 116.933C634.927 116.933 635.896 117.18 636.717 117.672C637.537 118.164 638.171 118.855 638.618 119.745C639.071 120.635 639.297 121.671 639.297 122.855C639.297 124.038 639.071 125.072 638.618 125.957C638.171 126.842 637.537 127.53 636.717 128.023C635.896 128.515 634.927 128.761 633.808 128.761ZM633.823 126.598C634.43 126.598 634.937 126.432 635.345 126.099C635.752 125.76 636.055 125.308 636.254 124.741C636.458 124.175 636.56 123.543 636.56 122.847C636.56 122.146 636.458 121.512 636.254 120.945C636.055 120.374 635.752 119.919 635.345 119.581C634.937 119.243 634.43 119.074 633.823 119.074C633.202 119.074 632.685 119.243 632.272 119.581C631.864 119.919 631.559 120.374 631.355 120.945C631.156 121.512 631.057 122.146 631.057 122.847C631.057 123.543 631.156 124.175 631.355 124.741C631.559 125.308 631.864 125.76 632.272 126.099C632.685 126.432 633.202 126.598 633.823 126.598ZM641.588 132.833V117.083H644.243V118.977H644.4C644.539 118.698 644.735 118.403 644.989 118.089C645.242 117.771 645.585 117.5 646.018 117.276C646.45 117.048 647.002 116.933 647.673 116.933C648.558 116.933 649.356 117.16 650.067 117.612C650.783 118.059 651.35 118.723 651.768 119.603C652.19 120.478 652.401 121.552 652.401 122.825C652.401 124.083 652.195 125.151 651.782 126.031C651.37 126.911 650.808 127.583 650.097 128.045C649.386 128.507 648.581 128.738 647.681 128.738C647.025 128.738 646.48 128.629 646.048 128.41C645.615 128.192 645.267 127.928 645.004 127.62C644.745 127.307 644.544 127.011 644.4 126.732H644.288V132.833H641.588ZM644.236 122.81C644.236 123.551 644.34 124.199 644.549 124.756C644.763 125.313 645.068 125.748 645.466 126.061C645.869 126.369 646.356 126.524 646.928 126.524C647.524 126.524 648.024 126.365 648.427 126.046C648.829 125.723 649.133 125.283 649.336 124.726C649.545 124.165 649.65 123.526 649.65 122.81C649.65 122.099 649.548 121.468 649.344 120.916C649.14 120.364 648.837 119.931 648.434 119.618C648.031 119.305 647.529 119.148 646.928 119.148C646.351 119.148 645.861 119.3 645.459 119.603C645.056 119.906 644.75 120.331 644.541 120.878C644.338 121.425 644.236 122.069 644.236 122.81ZM654.713 128.537V117.083H657.413V128.537H654.713ZM656.07 115.457C655.643 115.457 655.275 115.315 654.967 115.032C654.659 114.743 654.504 114.398 654.504 113.995C654.504 113.588 654.659 113.242 654.967 112.959C655.275 112.67 655.643 112.526 656.07 112.526C656.503 112.526 656.871 112.67 657.174 112.959C657.482 113.242 657.637 113.588 657.637 113.995C657.637 114.398 657.482 114.743 657.174 115.032C656.871 115.315 656.503 115.457 656.07 115.457ZM663.485 128.768C662.759 128.768 662.105 128.639 661.524 128.381C660.947 128.117 660.49 127.729 660.152 127.217C659.818 126.705 659.652 126.074 659.652 125.323C659.652 124.677 659.771 124.142 660.01 123.72C660.248 123.297 660.574 122.959 660.987 122.705C661.399 122.452 661.864 122.26 662.381 122.131C662.903 121.997 663.443 121.9 664 121.84C664.671 121.771 665.215 121.709 665.633 121.654C666.05 121.594 666.354 121.505 666.543 121.385C666.736 121.261 666.833 121.07 666.833 120.811V120.767C666.833 120.205 666.667 119.77 666.334 119.461C666.001 119.153 665.521 118.999 664.894 118.999C664.233 118.999 663.709 119.143 663.321 119.432C662.938 119.72 662.68 120.061 662.545 120.453L660.025 120.095C660.224 119.399 660.552 118.818 661.009 118.35C661.467 117.878 662.026 117.525 662.687 117.291C663.348 117.053 664.079 116.933 664.88 116.933C665.431 116.933 665.981 116.998 666.528 117.127C667.074 117.257 667.574 117.47 668.027 117.769C668.479 118.062 668.842 118.462 669.115 118.969C669.394 119.476 669.533 120.11 669.533 120.871V128.537H666.938V126.964H666.848C666.684 127.282 666.453 127.58 666.155 127.858C665.861 128.132 665.491 128.353 665.044 128.522C664.601 128.686 664.082 128.768 663.485 128.768ZM664.186 126.785C664.728 126.785 665.198 126.678 665.595 126.464C665.993 126.245 666.299 125.957 666.513 125.599C666.731 125.241 666.841 124.851 666.841 124.428V123.078C666.756 123.148 666.612 123.213 666.408 123.272C666.209 123.332 665.986 123.384 665.737 123.429C665.489 123.474 665.242 123.513 664.999 123.548C664.755 123.583 664.544 123.613 664.365 123.638C663.962 123.692 663.602 123.782 663.284 123.906C662.965 124.03 662.714 124.204 662.53 124.428C662.347 124.647 662.255 124.93 662.255 125.278C662.255 125.775 662.436 126.151 662.799 126.404C663.162 126.658 663.624 126.785 664.186 126.785ZM674.947 121.825V128.537H672.247V117.083H674.828V119.029H674.962C675.225 118.388 675.646 117.878 676.222 117.5C676.804 117.122 677.522 116.933 678.377 116.933C679.168 116.933 679.856 117.102 680.443 117.441C681.035 117.779 681.492 118.268 681.815 118.91C682.143 119.551 682.305 120.329 682.3 121.244V128.537H679.6V121.661C679.6 120.896 679.402 120.297 679.004 119.864C678.611 119.432 678.067 119.215 677.371 119.215C676.898 119.215 676.478 119.32 676.11 119.529C675.747 119.732 675.462 120.028 675.253 120.416C675.049 120.804 674.947 121.274 674.947 121.825Z" fill="#004BA8"/>
<path d="M614.851 801.541H609.675V786.268H614.955C616.472 786.268 617.774 786.574 618.863 787.186C619.957 787.792 620.797 788.665 621.383 789.803C621.97 790.942 622.263 792.304 622.263 793.89C622.263 795.481 621.968 796.848 621.376 797.991C620.789 799.135 619.942 800.012 618.833 800.624C617.729 801.235 616.402 801.541 614.851 801.541ZM612.442 799.147H614.717C615.78 799.147 616.668 798.953 617.379 798.566C618.09 798.173 618.624 797.589 618.982 796.813C619.34 796.032 619.519 795.058 619.519 793.89C619.519 792.721 619.34 791.752 618.982 790.981C618.624 790.206 618.095 789.627 617.394 789.244C616.698 788.856 615.833 788.662 614.799 788.662H612.442V799.147ZM626.451 805.836C626.083 805.836 625.742 805.807 625.429 805.747C625.121 805.692 624.875 805.628 624.691 805.553L625.317 803.45C625.71 803.564 626.06 803.619 626.369 803.614C626.677 803.609 626.948 803.512 627.182 803.323C627.42 803.139 627.622 802.831 627.786 802.399L628.017 801.78L623.863 790.086H626.727L629.367 798.737H629.486L632.133 790.086H635.004L630.418 802.928C630.204 803.535 629.921 804.054 629.568 804.487C629.215 804.924 628.782 805.257 628.27 805.486C627.763 805.72 627.157 805.836 626.451 805.836ZM645.926 793.114L643.465 793.383C643.395 793.134 643.273 792.9 643.099 792.682C642.93 792.463 642.702 792.286 642.413 792.152C642.125 792.018 641.772 791.951 641.354 791.951C640.793 791.951 640.32 792.073 639.937 792.316C639.56 792.56 639.373 792.876 639.378 793.263C639.373 793.596 639.495 793.867 639.744 794.076C639.997 794.285 640.415 794.456 640.996 794.591L642.95 795.008C644.034 795.242 644.839 795.612 645.366 796.119C645.898 796.627 646.167 797.29 646.172 798.111C646.167 798.831 645.956 799.468 645.538 800.02C645.125 800.567 644.551 800.994 643.815 801.302C643.079 801.611 642.234 801.765 641.28 801.765C639.878 801.765 638.749 801.471 637.894 800.885C637.039 800.293 636.529 799.47 636.365 798.416L638.998 798.163C639.117 798.68 639.371 799.07 639.758 799.334C640.146 799.597 640.651 799.729 641.272 799.729C641.914 799.729 642.428 799.597 642.816 799.334C643.209 799.07 643.405 798.744 643.405 798.357C643.405 798.029 643.278 797.758 643.025 797.544C642.776 797.33 642.388 797.166 641.861 797.052L639.908 796.642C638.809 796.413 637.996 796.028 637.469 795.486C636.942 794.939 636.681 794.248 636.686 793.412C636.681 792.706 636.872 792.095 637.26 791.578C637.653 791.056 638.197 790.653 638.893 790.37C639.594 790.081 640.402 789.937 641.317 789.937C642.659 789.937 643.716 790.223 644.486 790.795C645.262 791.367 645.742 792.14 645.926 793.114ZM654.118 790.086V792.175H647.533V790.086H654.118ZM649.158 787.342H651.858V798.096C651.858 798.459 651.913 798.737 652.022 798.931C652.136 799.12 652.286 799.249 652.47 799.319C652.653 799.388 652.857 799.423 653.081 799.423C653.25 799.423 653.404 799.411 653.543 799.386C653.688 799.361 653.797 799.339 653.872 799.319L654.326 801.429C654.182 801.479 653.976 801.534 653.707 801.593C653.444 801.653 653.121 801.688 652.738 801.698C652.062 801.718 651.453 801.616 650.911 801.392C650.369 801.163 649.939 800.81 649.621 800.333C649.308 799.856 649.153 799.259 649.158 798.543V787.342ZM661.249 801.765C660.13 801.765 659.161 801.519 658.34 801.026C657.52 800.534 656.884 799.846 656.431 798.961C655.984 798.076 655.76 797.042 655.76 795.858C655.76 794.675 655.984 793.639 656.431 792.749C656.884 791.859 657.52 791.168 658.34 790.676C659.161 790.183 660.13 789.937 661.249 789.937C662.367 789.937 663.337 790.183 664.157 790.676C664.977 791.168 665.611 791.859 666.059 792.749C666.511 793.639 666.737 794.675 666.737 795.858C666.737 797.042 666.511 798.076 666.059 798.961C665.611 799.846 664.977 800.534 664.157 801.026C663.337 801.519 662.367 801.765 661.249 801.765ZM661.264 799.602C661.87 799.602 662.377 799.436 662.785 799.102C663.193 798.764 663.496 798.312 663.695 797.745C663.899 797.178 664.001 796.547 664.001 795.851C664.001 795.15 663.899 794.516 663.695 793.949C663.496 793.378 663.193 792.923 662.785 792.585C662.377 792.247 661.87 792.078 661.264 792.078C660.642 792.078 660.125 792.247 659.713 792.585C659.305 792.923 658.999 793.378 658.795 793.949C658.596 794.516 658.497 795.15 658.497 795.851C658.497 796.547 658.596 797.178 658.795 797.745C658.999 798.312 659.305 798.764 659.713 799.102C660.125 799.436 660.642 799.602 661.264 799.602ZM669.029 805.836V790.086H671.684V791.981H671.84C671.979 791.702 672.176 791.406 672.429 791.093C672.683 790.775 673.026 790.504 673.458 790.28C673.891 790.052 674.443 789.937 675.114 789.937C675.999 789.937 676.797 790.164 677.508 790.616C678.224 791.063 678.79 791.727 679.208 792.607C679.631 793.482 679.842 794.556 679.842 795.829C679.842 797.086 679.636 798.155 679.223 799.035C678.81 799.915 678.248 800.586 677.538 801.049C676.827 801.511 676.021 801.742 675.121 801.742C674.465 801.742 673.921 801.633 673.488 801.414C673.056 801.195 672.708 800.932 672.444 800.624C672.186 800.311 671.984 800.015 671.84 799.736H671.728V805.836H669.029ZM671.676 795.814C671.676 796.555 671.78 797.203 671.989 797.76C672.203 798.317 672.509 798.752 672.907 799.065C673.309 799.373 673.796 799.528 674.368 799.528C674.965 799.528 675.464 799.368 675.867 799.05C676.27 798.727 676.573 798.287 676.777 797.73C676.986 797.169 677.09 796.53 677.09 795.814C677.09 795.103 676.988 794.471 676.784 793.92C676.581 793.368 676.277 792.935 675.875 792.622C675.472 792.309 674.97 792.152 674.368 792.152C673.791 792.152 673.302 792.304 672.899 792.607C672.496 792.91 672.191 793.335 671.982 793.882C671.778 794.429 671.676 795.073 671.676 795.814ZM682.154 801.541V790.086H684.853V801.541H682.154ZM683.511 788.461C683.083 788.461 682.715 788.319 682.407 788.036C682.099 787.747 681.945 787.402 681.945 786.999C681.945 786.591 682.099 786.246 682.407 785.963C682.715 785.674 683.083 785.53 683.511 785.53C683.943 785.53 684.311 785.674 684.615 785.963C684.923 786.246 685.077 786.591 685.077 786.999C685.077 787.402 684.923 787.747 684.615 788.036C684.311 788.319 683.943 788.461 683.511 788.461ZM690.925 801.772C690.2 801.772 689.546 801.643 688.964 801.384C688.387 801.121 687.93 800.733 687.592 800.221C687.259 799.709 687.092 799.078 687.092 798.327C687.092 797.681 687.212 797.146 687.45 796.724C687.689 796.301 688.015 795.963 688.427 795.709C688.84 795.456 689.305 795.264 689.822 795.135C690.344 795.001 690.883 794.904 691.44 794.844C692.111 794.775 692.656 794.713 693.073 794.658C693.491 794.598 693.794 794.509 693.983 794.389C694.177 794.265 694.274 794.074 694.274 793.815V793.77C694.274 793.209 694.107 792.774 693.774 792.465C693.441 792.157 692.961 792.003 692.335 792.003C691.674 792.003 691.149 792.147 690.761 792.436C690.379 792.724 690.12 793.064 689.986 793.457L687.465 793.099C687.664 792.403 687.992 791.822 688.45 791.354C688.907 790.882 689.466 790.529 690.127 790.295C690.789 790.057 691.52 789.937 692.32 789.937C692.872 789.937 693.421 790.002 693.968 790.131C694.515 790.26 695.015 790.474 695.467 790.773C695.919 791.066 696.282 791.466 696.556 791.973C696.834 792.48 696.973 793.114 696.973 793.875V801.541H694.378V799.968H694.289C694.125 800.286 693.893 800.584 693.595 800.862C693.302 801.136 692.931 801.357 692.484 801.526C692.042 801.69 691.522 801.772 690.925 801.772ZM691.626 799.789C692.168 799.789 692.638 799.682 693.036 799.468C693.434 799.249 693.739 798.961 693.953 798.603C694.172 798.245 694.281 797.855 694.281 797.432V796.082C694.197 796.152 694.053 796.216 693.849 796.276C693.65 796.336 693.426 796.388 693.178 796.433C692.929 796.477 692.683 796.517 692.439 796.552C692.196 796.587 691.984 796.617 691.805 796.642C691.403 796.696 691.042 796.786 690.724 796.91C690.406 797.034 690.155 797.208 689.971 797.432C689.787 797.651 689.695 797.934 689.695 798.282C689.695 798.779 689.876 799.155 690.239 799.408C690.602 799.662 691.065 799.789 691.626 799.789ZM702.387 794.829V801.541H699.688V790.086H702.268V792.033H702.402C702.666 791.392 703.086 790.882 703.663 790.504C704.244 790.126 704.963 789.937 705.818 789.937C706.608 789.937 707.297 790.106 707.884 790.444C708.475 790.782 708.933 791.272 709.256 791.914C709.584 792.555 709.745 793.333 709.74 794.248V801.541H707.041V794.665C707.041 793.9 706.842 793.301 706.444 792.868C706.051 792.436 705.507 792.219 704.811 792.219C704.339 792.219 703.919 792.324 703.551 792.532C703.188 792.736 702.902 793.032 702.693 793.42C702.489 793.808 702.387 794.278 702.387 794.829Z" fill="#C0244C"/>
<path d="M4.02911 897.5C3.75299 897.5 3.52911 897.724 3.52911 898C3.52911 898.276 3.75299 898.5 4.02911 898.5V898V897.5ZM759.824 898.354C760.02 898.158 760.02 897.842 759.824 897.646L756.642 894.464C756.447 894.269 756.13 894.269 755.935 894.464C755.74 894.66 755.74 894.976 755.935 895.172L758.764 898L755.935 900.828C755.74 901.024 755.74 901.34 755.935 901.536C756.13 901.731 756.447 901.731 756.642 901.536L759.824 898.354ZM4.02911 898V898.5H759.471V898V897.5H4.02911V898Z" fill="url(#paint1_linear_483_5163)"/>
</g>
<defs>
<linearGradient id="paint0_linear_483_5163" x1="4" y1="461" x2="5" y2="461" gradientUnits="userSpaceOnUse">
<stop stop-color="#214694"/>
<stop offset="0.500848" stop-color="#3169A8"/>
<stop offset="1" stop-color="#56BAD5"/>
</linearGradient>
<linearGradient id="paint1_linear_483_5163" x1="381.75" y1="898" x2="381.75" y2="899" gradientUnits="userSpaceOnUse">
<stop stop-color="#214694"/>
<stop offset="0.500848" stop-color="#3169A8"/>
<stop offset="1" stop-color="#56BAD5"/>
</linearGradient>
<clipPath id="clip0_483_5163">
<rect width="767" height="902" fill="white"/>
</clipPath>
</defs>
</svg>
