<svg width="767" height="902" viewBox="0 0 767 902" fill="none" xmlns="http://www.w3.org/2000/svg">
<g clip-path="url(#clip0_878_5100)">
<path d="M38.1889 449.559L222.684 130.24C304.606 -11.5476 509.286 -11.5145 591.162 130.3C673.039 272.114 570.727 449.388 406.974 449.441L38.1889 449.559Z" fill="#004BA8" fill-opacity="0.4"/>
<path d="M38.1889 449.56L222.684 768.879C304.606 910.667 509.286 910.634 591.162 768.819C673.039 627.005 570.727 449.731 406.974 449.678L38.1889 449.56Z" fill="#C62953" fill-opacity="0.4"/>
<path d="M45.3652 451.661L364.802 267.371C506.642 185.54 683.884 287.908 683.884 451.661C683.884 615.414 506.642 717.782 364.802 635.951L45.3652 451.661Z" fill="#00B285" fill-opacity="0.4"/>
<path d="M3.5 898C3.5 898.276 3.72386 898.5 4 898.5C4.27614 898.5 4.5 898.276 4.5 898H4H3.5ZM4.35355 23.6464C4.15829 23.4512 3.84171 23.4512 3.64645 23.6464L0.464466 26.8284C0.269204 27.0237 0.269204 27.3403 0.464466 27.5355C0.659728 27.7308 0.976311 27.7308 1.17157 27.5355L4 24.7071L6.82843 27.5355C7.02369 27.7308 7.34027 27.7308 7.53553 27.5355C7.7308 27.3403 7.7308 27.0237 7.53553 26.8284L4.35355 23.6464ZM4 898H4.5V24H4H3.5V898H4Z" fill="url(#paint0_linear_878_5100)"/>
<path d="M30.0572 30.7273V46H27.5962L20.3999 35.5969H20.2731V46H17.5064V30.7273H19.9822L27.1712 41.1378H27.3054V30.7273H30.0572ZM37.949 46.2237C36.8303 46.2237 35.8609 45.9776 35.0406 45.4854C34.2203 44.9933 33.5839 44.3047 33.1315 43.4197C32.684 42.5348 32.4603 41.5007 32.4603 40.3175C32.4603 39.1342 32.684 38.0977 33.1315 37.2077C33.5839 36.3178 34.2203 35.6268 35.0406 35.1346C35.8609 34.6424 36.8303 34.3963 37.949 34.3963C39.0676 34.3963 40.037 34.6424 40.8573 35.1346C41.6776 35.6268 42.3115 36.3178 42.759 37.2077C43.2114 38.0977 43.4376 39.1342 43.4376 40.3175C43.4376 41.5007 43.2114 42.5348 42.759 43.4197C42.3115 44.3047 41.6776 44.9933 40.8573 45.4854C40.037 45.9776 39.0676 46.2237 37.949 46.2237ZM37.9639 44.0611C38.5704 44.0611 39.0775 43.8945 39.4852 43.5614C39.8928 43.2234 40.1961 42.771 40.395 42.2042C40.5988 41.6374 40.7007 41.006 40.7007 40.31C40.7007 39.609 40.5988 38.9751 40.395 38.4084C40.1961 37.8366 39.8928 37.3817 39.4852 37.0437C39.0775 36.7056 38.5704 36.5366 37.9639 36.5366C37.3424 36.5366 36.8254 36.7056 36.4127 37.0437C36.0051 37.3817 35.6993 37.8366 35.4955 38.4084C35.2966 38.9751 35.1972 39.609 35.1972 40.31C35.1972 41.006 35.2966 41.6374 35.4955 42.2042C35.6993 42.771 36.0051 43.2234 36.4127 43.5614C36.8254 43.8945 37.3424 44.0611 37.9639 44.0611ZM47.7647 46L44.5282 34.5455H47.28L49.2935 42.5994H49.3979L51.4561 34.5455H54.1781L56.2363 42.5547H56.3482L58.3319 34.5455H61.0911L57.8471 46H55.0357L52.888 38.2592H52.7314L50.5836 46H47.7647Z" fill="#E8F1FF"/>
<path d="M20.8352 867.047V864.727H33.0206V867.047H28.3001V880H25.5558V867.047H20.8352ZM35.2504 880V868.545H37.9499V880H35.2504ZM36.6076 866.92C36.18 866.92 35.8121 866.778 35.5039 866.495C35.1957 866.206 35.0415 865.861 35.0415 865.458C35.0415 865.05 35.1957 864.705 35.5039 864.422C35.8121 864.133 36.18 863.989 36.6076 863.989C37.0401 863.989 37.408 864.133 37.7113 864.422C38.0195 864.705 38.1737 865.05 38.1737 865.458C38.1737 865.861 38.0195 866.206 37.7113 866.495C37.408 866.778 37.0401 866.92 36.6076 866.92ZM40.7259 880V868.545H43.3062V870.492H43.4404C43.6791 869.836 44.0743 869.324 44.6262 868.956C45.178 868.583 45.8367 868.396 46.6024 868.396C47.3779 868.396 48.0317 868.585 48.5637 868.963C49.1006 869.336 49.4784 869.846 49.6972 870.492H49.8165C50.07 869.855 50.4976 869.348 51.0992 868.971C51.7057 868.588 52.4241 868.396 53.2544 868.396C54.3083 868.396 55.1684 868.729 55.8346 869.396C56.5008 870.062 56.8339 871.034 56.8339 872.311V880H54.1269V872.729C54.1269 872.018 53.9379 871.499 53.5601 871.17C53.1823 870.837 52.7199 870.671 52.173 870.671C51.5218 870.671 51.0122 870.875 50.6443 871.282C50.2813 871.685 50.0999 872.21 50.0999 872.856V880H47.4525V872.617C47.4525 872.026 47.2735 871.553 46.9156 871.2C46.5626 870.847 46.1002 870.671 45.5285 870.671C45.1407 870.671 44.7877 870.77 44.4695 870.969C44.1514 871.163 43.8978 871.439 43.7089 871.797C43.52 872.15 43.4255 872.562 43.4255 873.035V880H40.7259ZM64.6436 880.224C63.4952 880.224 62.5034 879.985 61.6681 879.508C60.8379 879.026 60.199 878.344 59.7516 877.464C59.3042 876.58 59.0804 875.538 59.0804 874.34C59.0804 873.162 59.3042 872.127 59.7516 871.238C60.204 870.343 60.8354 869.647 61.6458 869.15C62.4561 868.647 63.4082 868.396 64.502 868.396C65.2079 868.396 65.8741 868.511 66.5005 868.739C67.1319 868.963 67.6887 869.311 68.171 869.783C68.6582 870.256 69.041 870.857 69.3194 871.588C69.5978 872.314 69.737 873.179 69.737 874.183V875.011H60.3482V873.191H67.1493C67.1444 872.674 67.0325 872.214 66.8137 871.812C66.595 871.404 66.2892 871.083 65.8965 870.85C65.5087 870.616 65.0563 870.499 64.5392 870.499C63.9874 870.499 63.5027 870.634 63.085 870.902C62.6674 871.165 62.3418 871.513 62.1081 871.946C61.8794 872.374 61.7626 872.843 61.7576 873.355V874.944C61.7576 875.61 61.8794 876.182 62.123 876.659C62.3667 877.131 62.7072 877.494 63.1447 877.748C63.5822 877.996 64.0943 878.121 64.6809 878.121C65.0737 878.121 65.4292 878.066 65.7473 877.957C66.0655 877.842 66.3414 877.676 66.5751 877.457C66.8088 877.238 66.9853 876.967 67.1046 876.644L69.6252 876.928C69.4661 877.594 69.1628 878.175 68.7154 878.673C68.2729 879.165 67.7061 879.548 67.0151 879.821C66.324 880.089 65.5336 880.224 64.6436 880.224Z" fill="#E8F1FF"/>
<path d="M71.5064 706.08V690.807H77.2337C78.407 690.807 79.3913 691.026 80.1868 691.464C80.9872 691.901 81.5913 692.503 81.9989 693.268C82.4116 694.029 82.6179 694.894 82.6179 695.863C82.6179 696.843 82.4116 697.713 81.9989 698.474C81.5863 699.234 80.9773 699.833 80.1719 700.271C79.3665 700.703 78.3746 700.92 77.1964 700.92H73.4006V698.645H76.8235C77.5096 698.645 78.0714 698.526 78.5089 698.287C78.9464 698.048 79.2695 697.72 79.4783 697.303C79.6921 696.885 79.799 696.405 79.799 695.863C79.799 695.322 79.6921 694.844 79.4783 694.432C79.2695 694.019 78.9439 693.698 78.5014 693.47C78.0639 693.236 77.4996 693.119 76.8086 693.119H74.2731V706.08H71.5064ZM89.7341 706.304C88.6155 706.304 87.646 706.058 86.8257 705.566C86.0054 705.073 85.3691 704.385 84.9166 703.5C84.4692 702.615 84.2455 701.581 84.2455 700.398C84.2455 699.214 84.4692 698.178 84.9166 697.288C85.3691 696.398 86.0054 695.707 86.8257 695.215C87.646 694.722 88.6155 694.476 89.7341 694.476C90.8527 694.476 91.8222 694.722 92.6425 695.215C93.4628 695.707 94.0967 696.398 94.5441 697.288C94.9965 698.178 95.2227 699.214 95.2227 700.398C95.2227 701.581 94.9965 702.615 94.5441 703.5C94.0967 704.385 93.4628 705.073 92.6425 705.566C91.8222 706.058 90.8527 706.304 89.7341 706.304ZM89.749 704.141C90.3556 704.141 90.8627 703.975 91.2703 703.642C91.678 703.303 91.9813 702.851 92.1801 702.284C92.384 701.718 92.4859 701.086 92.4859 700.39C92.4859 699.689 92.384 699.055 92.1801 698.488C91.9813 697.917 91.678 697.462 91.2703 697.124C90.8627 696.786 90.3556 696.617 89.749 696.617C89.1276 696.617 88.6105 696.786 88.1979 697.124C87.7902 697.462 87.4845 697.917 87.2806 698.488C87.0818 699.055 86.9823 699.689 86.9823 700.39C86.9823 701.086 87.0818 701.718 87.2806 702.284C87.4845 702.851 87.7902 703.303 88.1979 703.642C88.6105 703.975 89.1276 704.141 89.749 704.141ZM103.234 694.626V696.714H96.649V694.626H103.234ZM98.2747 691.881H100.974V702.635C100.974 702.998 101.029 703.276 101.138 703.47C101.253 703.659 101.402 703.788 101.586 703.858C101.77 703.927 101.974 703.962 102.197 703.962C102.366 703.962 102.52 703.95 102.66 703.925C102.804 703.9 102.913 703.878 102.988 703.858L103.443 705.968C103.298 706.018 103.092 706.073 102.824 706.132C102.56 706.192 102.237 706.227 101.854 706.237C101.178 706.257 100.569 706.155 100.027 705.931C99.4853 705.702 99.0552 705.349 98.737 704.872C98.4238 704.395 98.2697 703.798 98.2747 703.082V691.881ZM110.44 706.304C109.291 706.304 108.299 706.065 107.464 705.588C106.634 705.106 105.995 704.425 105.547 703.545C105.1 702.66 104.876 701.618 104.876 700.42C104.876 699.242 105.1 698.208 105.547 697.318C106 696.423 106.631 695.727 107.442 695.23C108.252 694.727 109.204 694.476 110.298 694.476C111.004 694.476 111.67 694.591 112.296 694.819C112.928 695.043 113.485 695.391 113.967 695.863C114.454 696.336 114.837 696.937 115.115 697.668C115.394 698.394 115.533 699.259 115.533 700.263V701.091H106.144V699.271H112.945C112.94 698.754 112.828 698.295 112.61 697.892C112.391 697.484 112.085 697.164 111.692 696.93C111.305 696.696 110.852 696.579 110.335 696.579C109.783 696.579 109.299 696.714 108.881 696.982C108.463 697.246 108.138 697.594 107.904 698.026C107.675 698.454 107.559 698.923 107.554 699.436V701.024C107.554 701.69 107.675 702.262 107.919 702.739C108.163 703.211 108.503 703.574 108.941 703.828C109.378 704.077 109.89 704.201 110.477 704.201C110.87 704.201 111.225 704.146 111.543 704.037C111.861 703.922 112.137 703.756 112.371 703.537C112.605 703.318 112.781 703.047 112.9 702.724L115.421 703.008C115.262 703.674 114.959 704.256 114.511 704.753C114.069 705.245 113.502 705.628 112.811 705.901C112.12 706.17 111.329 706.304 110.44 706.304ZM120.516 699.368V706.08H117.817V694.626H120.397V696.572H120.531C120.795 695.931 121.215 695.421 121.792 695.043C122.373 694.665 123.092 694.476 123.947 694.476C124.737 694.476 125.426 694.645 126.012 694.983C126.604 695.322 127.061 695.811 127.385 696.453C127.713 697.094 127.874 697.872 127.869 698.787V706.08H125.17V699.204C125.17 698.439 124.971 697.84 124.573 697.407C124.18 696.975 123.636 696.758 122.94 696.758C122.468 696.758 122.048 696.863 121.68 697.072C121.317 697.275 121.031 697.571 120.822 697.959C120.618 698.347 120.516 698.817 120.516 699.368ZM136.333 694.626V696.714H129.749V694.626H136.333ZM131.374 691.881H134.074V702.635C134.074 702.998 134.129 703.276 134.238 703.47C134.352 703.659 134.501 703.788 134.685 703.858C134.869 703.927 135.073 703.962 135.297 703.962C135.466 703.962 135.62 703.95 135.759 703.925C135.903 703.9 136.013 703.878 136.087 703.858L136.542 705.968C136.398 706.018 136.192 706.073 135.923 706.132C135.66 706.192 135.337 706.227 134.954 706.237C134.278 706.257 133.669 706.155 133.127 705.931C132.585 705.702 132.155 705.349 131.837 704.872C131.523 704.395 131.369 703.798 131.374 703.082V691.881ZM138.591 706.08V694.626H141.291V706.08H138.591ZM139.948 693C139.521 693 139.153 692.858 138.845 692.575C138.536 692.286 138.382 691.941 138.382 691.538C138.382 691.131 138.536 690.785 138.845 690.502C139.153 690.213 139.521 690.069 139.948 690.069C140.381 690.069 140.749 690.213 141.052 690.502C141.36 690.785 141.514 691.131 141.514 691.538C141.514 691.941 141.36 692.286 141.052 692.575C140.749 692.858 140.381 693 139.948 693ZM147.363 706.311C146.637 706.311 145.983 706.182 145.402 705.923C144.825 705.66 144.368 705.272 144.029 704.76C143.696 704.248 143.53 703.617 143.53 702.866C143.53 702.22 143.649 701.685 143.888 701.263C144.126 700.84 144.452 700.502 144.865 700.248C145.277 699.995 145.742 699.803 146.259 699.674C146.781 699.54 147.321 699.443 147.877 699.383C148.549 699.314 149.093 699.252 149.511 699.197C149.928 699.137 150.232 699.048 150.42 698.928C150.614 698.804 150.711 698.613 150.711 698.354V698.309C150.711 697.748 150.545 697.313 150.212 697.004C149.879 696.696 149.399 696.542 148.772 696.542C148.111 696.542 147.587 696.686 147.199 696.975C146.816 697.263 146.558 697.604 146.423 697.996L143.903 697.638C144.102 696.942 144.43 696.361 144.887 695.893C145.344 695.421 145.904 695.068 146.565 694.834C147.226 694.596 147.957 694.476 148.757 694.476C149.309 694.476 149.859 694.541 150.406 694.67C150.952 694.8 151.452 695.013 151.904 695.312C152.357 695.605 152.72 696.005 152.993 696.512C153.272 697.019 153.411 697.653 153.411 698.414V706.08H150.816V704.507H150.726C150.562 704.825 150.331 705.123 150.033 705.401C149.739 705.675 149.369 705.896 148.922 706.065C148.479 706.229 147.96 706.311 147.363 706.311ZM148.064 704.328C148.606 704.328 149.076 704.221 149.473 704.007C149.871 703.788 150.177 703.5 150.391 703.142C150.609 702.784 150.719 702.394 150.719 701.971V700.621C150.634 700.691 150.49 700.756 150.286 700.815C150.087 700.875 149.864 700.927 149.615 700.972C149.366 701.017 149.12 701.056 148.877 701.091C148.633 701.126 148.422 701.156 148.243 701.181C147.84 701.235 147.48 701.325 147.162 701.449C146.843 701.573 146.592 701.747 146.408 701.971C146.224 702.19 146.132 702.473 146.132 702.821C146.132 703.318 146.314 703.694 146.677 703.947C147.04 704.201 147.502 704.328 148.064 704.328ZM158.825 690.807V706.08H156.125V690.807H158.825Z" fill="#E8F1FF"/>
<path d="M615.304 113.264H618.07V123.242C618.07 124.336 617.812 125.298 617.295 126.128C616.783 126.959 616.062 127.607 615.132 128.075C614.203 128.537 613.116 128.768 611.873 128.768C610.626 128.768 609.537 128.537 608.607 128.075C607.677 127.607 606.956 126.959 606.444 126.128C605.932 125.298 605.676 124.336 605.676 123.242V113.264H608.443V123.011C608.443 123.648 608.582 124.214 608.861 124.711C609.144 125.209 609.542 125.599 610.054 125.882C610.566 126.161 611.172 126.3 611.873 126.3C612.574 126.3 613.181 126.161 613.693 125.882C614.21 125.599 614.608 125.209 614.886 124.711C615.165 124.214 615.304 123.648 615.304 123.011V113.264ZM626.678 117.083V119.171H620.093V117.083H626.678ZM621.719 114.338H624.419V125.092C624.419 125.455 624.473 125.733 624.583 125.927C624.697 126.116 624.846 126.245 625.03 126.315C625.214 126.384 625.418 126.419 625.642 126.419C625.811 126.419 625.965 126.407 626.104 126.382C626.248 126.357 626.358 126.335 626.432 126.315L626.887 128.425C626.743 128.475 626.536 128.53 626.268 128.589C626.005 128.649 625.681 128.684 625.299 128.694C624.622 128.714 624.013 128.612 623.472 128.388C622.93 128.159 622.5 127.806 622.181 127.329C621.868 126.852 621.714 126.255 621.719 125.539V114.338ZM633.809 128.761C632.691 128.761 631.721 128.515 630.901 128.023C630.081 127.53 629.444 126.842 628.992 125.957C628.544 125.072 628.321 124.038 628.321 122.855C628.321 121.671 628.544 120.635 628.992 119.745C629.444 118.855 630.081 118.164 630.901 117.672C631.721 117.18 632.691 116.933 633.809 116.933C634.928 116.933 635.897 117.18 636.718 117.672C637.538 118.164 638.172 118.855 638.619 119.745C639.072 120.635 639.298 121.671 639.298 122.855C639.298 124.038 639.072 125.072 638.619 125.957C638.172 126.842 637.538 127.53 636.718 128.023C635.897 128.515 634.928 128.761 633.809 128.761ZM633.824 126.598C634.431 126.598 634.938 126.432 635.346 126.099C635.753 125.76 636.056 125.308 636.255 124.741C636.459 124.175 636.561 123.543 636.561 122.847C636.561 122.146 636.459 121.512 636.255 120.945C636.056 120.374 635.753 119.919 635.346 119.581C634.938 119.243 634.431 119.074 633.824 119.074C633.203 119.074 632.686 119.243 632.273 119.581C631.865 119.919 631.56 120.374 631.356 120.945C631.157 121.512 631.058 122.146 631.058 122.847C631.058 123.543 631.157 124.175 631.356 124.741C631.56 125.308 631.865 125.76 632.273 126.099C632.686 126.432 633.203 126.598 633.824 126.598ZM641.589 132.833V117.083H644.244V118.977H644.401C644.54 118.698 644.736 118.403 644.99 118.089C645.243 117.771 645.586 117.5 646.019 117.276C646.451 117.048 647.003 116.933 647.674 116.933C648.559 116.933 649.357 117.16 650.068 117.612C650.784 118.059 651.351 118.723 651.769 119.603C652.191 120.478 652.402 121.552 652.402 122.825C652.402 124.083 652.196 125.151 651.783 126.031C651.371 126.911 650.809 127.583 650.098 128.045C649.387 128.507 648.582 128.738 647.682 128.738C647.026 128.738 646.481 128.629 646.049 128.41C645.616 128.192 645.268 127.928 645.005 127.62C644.746 127.307 644.545 127.011 644.401 126.732H644.289V132.833H641.589ZM644.237 122.81C644.237 123.551 644.341 124.199 644.55 124.756C644.764 125.313 645.069 125.748 645.467 126.061C645.87 126.369 646.357 126.524 646.929 126.524C647.525 126.524 648.025 126.365 648.428 126.046C648.83 125.723 649.134 125.283 649.337 124.726C649.546 124.165 649.651 123.526 649.651 122.81C649.651 122.099 649.549 121.468 649.345 120.916C649.141 120.364 648.838 119.931 648.435 119.618C648.032 119.305 647.53 119.148 646.929 119.148C646.352 119.148 645.862 119.3 645.46 119.603C645.057 119.906 644.751 120.331 644.542 120.878C644.339 121.425 644.237 122.069 644.237 122.81ZM654.714 128.537V117.083H657.414V128.537H654.714ZM656.071 115.457C655.644 115.457 655.276 115.315 654.968 115.032C654.66 114.743 654.505 114.398 654.505 113.995C654.505 113.588 654.66 113.242 654.968 112.959C655.276 112.67 655.644 112.526 656.071 112.526C656.504 112.526 656.872 112.67 657.175 112.959C657.483 113.242 657.638 113.588 657.638 113.995C657.638 114.398 657.483 114.743 657.175 115.032C656.872 115.315 656.504 115.457 656.071 115.457ZM663.486 128.768C662.76 128.768 662.106 128.639 661.525 128.381C660.948 128.117 660.491 127.729 660.153 127.217C659.819 126.705 659.653 126.074 659.653 125.323C659.653 124.677 659.772 124.142 660.011 123.72C660.249 123.297 660.575 122.959 660.988 122.705C661.4 122.452 661.865 122.26 662.382 122.131C662.904 121.997 663.444 121.9 664.001 121.84C664.672 121.771 665.216 121.709 665.634 121.654C666.051 121.594 666.355 121.505 666.544 121.385C666.737 121.261 666.834 121.07 666.834 120.811V120.767C666.834 120.205 666.668 119.77 666.335 119.461C666.002 119.153 665.522 118.999 664.895 118.999C664.234 118.999 663.71 119.143 663.322 119.432C662.939 119.72 662.681 120.061 662.546 120.453L660.026 120.095C660.225 119.399 660.553 118.818 661.01 118.35C661.468 117.878 662.027 117.525 662.688 117.291C663.349 117.053 664.08 116.933 664.881 116.933C665.432 116.933 665.982 116.998 666.529 117.127C667.075 117.257 667.575 117.47 668.028 117.769C668.48 118.062 668.843 118.462 669.116 118.969C669.395 119.476 669.534 120.11 669.534 120.871V128.537H666.939V126.964H666.849C666.685 127.282 666.454 127.58 666.156 127.858C665.862 128.132 665.492 128.353 665.045 128.522C664.602 128.686 664.083 128.768 663.486 128.768ZM664.187 126.785C664.729 126.785 665.199 126.678 665.596 126.464C665.994 126.245 666.3 125.957 666.514 125.599C666.732 125.241 666.842 124.851 666.842 124.428V123.078C666.757 123.148 666.613 123.213 666.409 123.272C666.21 123.332 665.987 123.384 665.738 123.429C665.49 123.474 665.243 123.513 665 123.548C664.756 123.583 664.545 123.613 664.366 123.638C663.963 123.692 663.603 123.782 663.285 123.906C662.966 124.03 662.715 124.204 662.531 124.428C662.347 124.647 662.256 124.93 662.256 125.278C662.256 125.775 662.437 126.151 662.8 126.404C663.163 126.658 663.625 126.785 664.187 126.785ZM674.948 121.825V128.537H672.248V117.083H674.829V119.029H674.963C675.226 118.388 675.646 117.878 676.223 117.5C676.805 117.122 677.523 116.933 678.378 116.933C679.169 116.933 679.857 117.102 680.444 117.441C681.036 117.779 681.493 118.268 681.816 118.91C682.144 119.551 682.306 120.329 682.301 121.244V128.537H679.601V121.661C679.601 120.896 679.403 120.297 679.005 119.864C678.612 119.432 678.068 119.215 677.372 119.215C676.899 119.215 676.479 119.32 676.111 119.529C675.748 119.732 675.463 120.028 675.254 120.416C675.05 120.804 674.948 121.274 674.948 121.825Z" fill="#E8F1FF"/>
<path d="M614.852 801.541H609.676V786.268H614.956C616.472 786.268 617.775 786.574 618.864 787.186C619.958 787.792 620.798 788.665 621.384 789.803C621.971 790.942 622.264 792.304 622.264 793.89C622.264 795.481 621.969 796.848 621.377 797.991C620.79 799.135 619.943 800.012 618.834 800.624C617.73 801.235 616.403 801.541 614.852 801.541ZM612.443 799.147H614.718C615.781 799.147 616.669 798.953 617.38 798.566C618.091 798.173 618.625 797.589 618.983 796.813C619.341 796.032 619.52 795.058 619.52 793.89C619.52 792.721 619.341 791.752 618.983 790.981C618.625 790.206 618.096 789.627 617.395 789.244C616.699 788.856 615.834 788.662 614.8 788.662H612.443V799.147ZM626.452 805.836C626.084 805.836 625.743 805.807 625.43 805.747C625.122 805.692 624.876 805.628 624.692 805.553L625.318 803.45C625.711 803.564 626.061 803.619 626.37 803.614C626.678 803.609 626.949 803.512 627.183 803.323C627.421 803.139 627.623 802.831 627.787 802.399L628.018 801.78L623.864 790.086H626.728L629.368 798.737H629.487L632.134 790.086H635.005L630.419 802.928C630.205 803.535 629.922 804.054 629.569 804.487C629.216 804.924 628.783 805.257 628.271 805.486C627.764 805.72 627.158 805.836 626.452 805.836ZM645.927 793.114L643.466 793.383C643.396 793.134 643.274 792.9 643.1 792.682C642.931 792.463 642.703 792.286 642.414 792.152C642.126 792.018 641.773 791.951 641.355 791.951C640.794 791.951 640.321 792.073 639.938 792.316C639.561 792.56 639.374 792.876 639.379 793.263C639.374 793.596 639.496 793.867 639.744 794.076C639.998 794.285 640.416 794.456 640.997 794.591L642.951 795.008C644.035 795.242 644.84 795.612 645.367 796.119C645.899 796.627 646.168 797.29 646.173 798.111C646.168 798.831 645.956 799.468 645.539 800.02C645.126 800.567 644.552 800.994 643.816 801.302C643.08 801.611 642.235 801.765 641.281 801.765C639.879 801.765 638.75 801.471 637.895 800.885C637.04 800.293 636.53 799.47 636.366 798.416L638.999 798.163C639.118 798.68 639.372 799.07 639.759 799.334C640.147 799.597 640.652 799.729 641.273 799.729C641.915 799.729 642.429 799.597 642.817 799.334C643.21 799.07 643.406 798.744 643.406 798.357C643.406 798.029 643.279 797.758 643.026 797.544C642.777 797.33 642.389 797.166 641.862 797.052L639.909 796.642C638.81 796.413 637.997 796.028 637.47 795.486C636.943 794.939 636.682 794.248 636.687 793.412C636.682 792.706 636.873 792.095 637.261 791.578C637.654 791.056 638.198 790.653 638.894 790.37C639.595 790.081 640.403 789.937 641.318 789.937C642.66 789.937 643.717 790.223 644.487 790.795C645.263 791.367 645.743 792.14 645.927 793.114ZM654.119 790.086V792.175H647.534V790.086H654.119ZM649.159 787.342H651.859V798.096C651.859 798.459 651.914 798.737 652.023 798.931C652.137 799.12 652.287 799.249 652.471 799.319C652.654 799.388 652.858 799.423 653.082 799.423C653.251 799.423 653.405 799.411 653.544 799.386C653.689 799.361 653.798 799.339 653.873 799.319L654.327 801.429C654.183 801.479 653.977 801.534 653.708 801.593C653.445 801.653 653.122 801.688 652.739 801.698C652.063 801.718 651.454 801.616 650.912 801.392C650.37 801.163 649.94 800.81 649.622 800.333C649.309 799.856 649.154 799.259 649.159 798.543V787.342ZM661.25 801.765C660.131 801.765 659.162 801.519 658.341 801.026C657.521 800.534 656.885 799.846 656.432 798.961C655.985 798.076 655.761 797.042 655.761 795.858C655.761 794.675 655.985 793.639 656.432 792.749C656.885 791.859 657.521 791.168 658.341 790.676C659.162 790.183 660.131 789.937 661.25 789.937C662.368 789.937 663.338 790.183 664.158 790.676C664.978 791.168 665.612 791.859 666.06 792.749C666.512 793.639 666.738 794.675 666.738 795.858C666.738 797.042 666.512 798.076 666.06 798.961C665.612 799.846 664.978 800.534 664.158 801.026C663.338 801.519 662.368 801.765 661.25 801.765ZM661.265 799.602C661.871 799.602 662.378 799.436 662.786 799.102C663.194 798.764 663.497 798.312 663.696 797.745C663.9 797.178 664.002 796.547 664.002 795.851C664.002 795.15 663.9 794.516 663.696 793.949C663.497 793.378 663.194 792.923 662.786 792.585C662.378 792.247 661.871 792.078 661.265 792.078C660.643 792.078 660.126 792.247 659.714 792.585C659.306 792.923 659 793.378 658.796 793.949C658.597 794.516 658.498 795.15 658.498 795.851C658.498 796.547 658.597 797.178 658.796 797.745C659 798.312 659.306 798.764 659.714 799.102C660.126 799.436 660.643 799.602 661.265 799.602ZM669.03 805.836V790.086H671.684V791.981H671.841C671.98 791.702 672.177 791.406 672.43 791.093C672.684 790.775 673.027 790.504 673.459 790.28C673.892 790.052 674.444 789.937 675.115 789.937C676 789.937 676.798 790.164 677.509 790.616C678.225 791.063 678.791 791.727 679.209 792.607C679.632 793.482 679.843 794.556 679.843 795.829C679.843 797.086 679.637 798.155 679.224 799.035C678.811 799.915 678.249 800.586 677.539 801.049C676.828 801.511 676.022 801.742 675.122 801.742C674.466 801.742 673.922 801.633 673.489 801.414C673.057 801.195 672.709 800.932 672.445 800.624C672.187 800.311 671.985 800.015 671.841 799.736H671.729V805.836H669.03ZM671.677 795.814C671.677 796.555 671.781 797.203 671.99 797.76C672.204 798.317 672.51 798.752 672.907 799.065C673.31 799.373 673.797 799.528 674.369 799.528C674.966 799.528 675.465 799.368 675.868 799.05C676.271 798.727 676.574 798.287 676.778 797.73C676.987 797.169 677.091 796.53 677.091 795.814C677.091 795.103 676.989 794.471 676.785 793.92C676.581 793.368 676.278 792.935 675.876 792.622C675.473 792.309 674.971 792.152 674.369 792.152C673.792 792.152 673.303 792.304 672.9 792.607C672.497 792.91 672.192 793.335 671.983 793.882C671.779 794.429 671.677 795.073 671.677 795.814ZM682.155 801.541V790.086H684.854V801.541H682.155ZM683.512 788.461C683.084 788.461 682.716 788.319 682.408 788.036C682.1 787.747 681.946 787.402 681.946 786.999C681.946 786.591 682.1 786.246 682.408 785.963C682.716 785.674 683.084 785.53 683.512 785.53C683.944 785.53 684.312 785.674 684.616 785.963C684.924 786.246 685.078 786.591 685.078 786.999C685.078 787.402 684.924 787.747 684.616 788.036C684.312 788.319 683.944 788.461 683.512 788.461ZM690.926 801.772C690.201 801.772 689.547 801.643 688.965 801.384C688.388 801.121 687.931 800.733 687.593 800.221C687.26 799.709 687.093 799.078 687.093 798.327C687.093 797.681 687.213 797.146 687.451 796.724C687.69 796.301 688.016 795.963 688.428 795.709C688.841 795.456 689.306 795.264 689.823 795.135C690.345 795.001 690.884 794.904 691.441 794.844C692.112 794.775 692.657 794.713 693.074 794.658C693.492 794.598 693.795 794.509 693.984 794.389C694.178 794.265 694.275 794.074 694.275 793.815V793.77C694.275 793.209 694.108 792.774 693.775 792.465C693.442 792.157 692.962 792.003 692.336 792.003C691.675 792.003 691.15 792.147 690.762 792.436C690.38 792.724 690.121 793.064 689.987 793.457L687.466 793.099C687.665 792.403 687.993 791.822 688.451 791.354C688.908 790.882 689.467 790.529 690.128 790.295C690.79 790.057 691.521 789.937 692.321 789.937C692.873 789.937 693.422 790.002 693.969 790.131C694.516 790.26 695.016 790.474 695.468 790.773C695.92 791.066 696.283 791.466 696.557 791.973C696.835 792.48 696.974 793.114 696.974 793.875V801.541H694.379V799.968H694.29C694.126 800.286 693.894 800.584 693.596 800.862C693.303 801.136 692.932 801.357 692.485 801.526C692.043 801.69 691.523 801.772 690.926 801.772ZM691.627 799.789C692.169 799.789 692.639 799.682 693.037 799.468C693.435 799.249 693.74 798.961 693.954 798.603C694.173 798.245 694.282 797.855 694.282 797.432V796.082C694.198 796.152 694.054 796.216 693.85 796.276C693.651 796.336 693.427 796.388 693.179 796.433C692.93 796.477 692.684 796.517 692.44 796.552C692.197 796.587 691.985 796.617 691.806 796.642C691.404 796.696 691.043 796.786 690.725 796.91C690.407 797.034 690.156 797.208 689.972 797.432C689.788 797.651 689.696 797.934 689.696 798.282C689.696 798.779 689.877 799.155 690.24 799.408C690.603 799.662 691.066 799.789 691.627 799.789ZM702.388 794.829V801.541H699.689V790.086H702.269V792.033H702.403C702.667 791.392 703.087 790.882 703.664 790.504C704.245 790.126 704.964 789.937 705.819 789.937C706.609 789.937 707.298 790.106 707.884 790.444C708.476 790.782 708.934 791.272 709.257 791.914C709.585 792.555 709.746 793.333 709.741 794.248V801.541H707.042V794.665C707.042 793.9 706.843 793.301 706.445 792.868C706.052 792.436 705.508 792.219 704.812 792.219C704.34 792.219 703.92 792.324 703.552 792.532C703.189 792.736 702.903 793.032 702.694 793.42C702.49 793.808 702.388 794.278 702.388 794.829Z" fill="#EEBFCB"/>
<path d="M4.02911 897.5C3.75299 897.5 3.52911 897.724 3.52911 898C3.52911 898.276 3.75299 898.5 4.02911 898.5V898V897.5ZM759.824 898.354C760.02 898.158 760.02 897.842 759.824 897.646L756.642 894.464C756.447 894.269 756.13 894.269 755.935 894.464C755.74 894.66 755.74 894.976 755.935 895.172L758.764 898L755.935 900.828C755.74 901.024 755.74 901.34 755.935 901.536C756.13 901.731 756.447 901.731 756.642 901.536L759.824 898.354ZM4.02911 898V898.5H759.471V898V897.5H4.02911V898Z" fill="url(#paint1_linear_878_5100)"/>
</g>
<defs>
<linearGradient id="paint0_linear_878_5100" x1="4" y1="461" x2="5" y2="461" gradientUnits="userSpaceOnUse">
<stop stop-color="#214694"/>
<stop offset="0.500848" stop-color="#3169A8"/>
<stop offset="1" stop-color="#56BAD5"/>
</linearGradient>
<linearGradient id="paint1_linear_878_5100" x1="381.75" y1="898" x2="381.75" y2="899" gradientUnits="userSpaceOnUse">
<stop stop-color="#214694"/>
<stop offset="0.500848" stop-color="#3169A8"/>
<stop offset="1" stop-color="#56BAD5"/>
</linearGradient>
<clipPath id="clip0_878_5100">
<rect width="767" height="902" fill="white"/>
</clipPath>
</defs>
</svg>
